M48
;Layer_Color=9474304
;FILE_FORMAT=4:4
METRIC,LZ
;TYPE=PLATED
T1F00S00C0.4000
T2F00S00C1.0500
T3F00S00C1.4000
T4F00S00C2.5400
%
T01
X0011Y0008
X0012Y00070106
X0013Y0008
Y001
X0012Y00090105
X0011Y001
X0014Y0009
Y0007
X00145Y00055
X0015Y0008
Y001
X0025Y004
X0026Y00390106
X0027Y004
Y0042
X0026Y00410106
X0025Y0042
Y0044
X0026Y00430106
X0027Y0044
X0029
Y0042
X0028Y0043
Y0041
Y0039
X0029Y004
X0028Y0045
X0029Y0046
X0027
X0026Y00450106
X0025Y0046
T02
X001723Y00025
X001977
X002231
X002485
T03
X0005Y0011
Y0016
X0015Y00451
X002
T04
X0003Y0003
X0037
Y0047
X0003
M30
