M48
;Layer_Color=9474304
;FILE_FORMAT=2:4
METRIC,LZ
;TYPE=PLATED
T1F00S00C0.4000
T2F00S00C1.0500
T3F00S00C1.4000
T4F00S00C2.0000
%
T01
X14Y025
X15Y035
X13
X154Y0545
X14Y07
X12
Y09
Y11
X13Y12
X15
Y1
X14Y11
X13Y1
Y08
X15
X14Y09
X28Y39
Y41
Y43
X27Y42
X26Y410106
X25Y42
Y44
X26Y430106
X27Y44
X29
Y42
Y4
X27
X28Y45
X29Y46
X27
X26Y450106
X25Y46
T02
X1723Y025
X1977
X2231
X2485
T03
X05Y11
Y16
X15Y451
X2
T04
X03Y03
X37
Y47
X03
M30
