G04*
G04 #@! TF.GenerationSoftware,Altium Limited,Altium Designer,22.7.1 (60)*
G04*
G04 Layer_Physical_Order=1*
G04 Layer_Color=255*
%FSLAX44Y44*%
%MOMM*%
G71*
G04*
G04 #@! TF.SameCoordinates,B907E7F6-3D8B-4148-802C-DA242210B7AD*
G04*
G04*
G04 #@! TF.FilePolarity,Positive*
G04*
G01*
G75*
%ADD12R,0.9000X1.6000*%
%ADD13R,1.5000X1.6600*%
%ADD14R,1.6600X1.5000*%
%ADD15R,1.6000X0.9000*%
%ADD16R,4.0000X3.2000*%
%ADD17O,2.0000X1.0000*%
%ADD18R,2.5000X1.7000*%
%ADD19R,1.6500X0.6500*%
%ADD20R,1.3000X0.7000*%
%ADD32C,0.8000*%
%ADD33C,0.5000*%
%ADD34C,0.6500*%
%ADD35C,2.0000*%
%ADD36C,2.3000*%
%ADD37C,0.7000*%
G36*
X312500Y487500D02*
Y340000D01*
X307500Y335000D01*
X235000D01*
X225000Y325000D01*
X212500D01*
X210000Y327500D01*
Y415000D01*
X185000Y440000D01*
Y485000D01*
X190000Y490000D01*
X310000Y490000D01*
X312500Y487500D01*
D02*
G37*
G36*
X257500Y205000D02*
Y190000D01*
X255000Y187500D01*
X235000D01*
X230000Y182500D01*
Y172500D01*
X227500Y170000D01*
X207500D01*
X205000Y172500D01*
Y182500D01*
X230000Y207500D01*
X255000D01*
X257500Y205000D01*
D02*
G37*
G36*
X330000Y287500D02*
X337500Y280000D01*
Y240000D01*
X347500Y230000D01*
Y220000D01*
X345000Y217500D01*
X327500D01*
X285000Y175000D01*
Y170000D01*
X282500Y167500D01*
X265000D01*
X262500Y170000D01*
Y177500D01*
X265000Y180000D01*
X270000D01*
X272500Y182500D01*
Y207500D01*
X267500Y212500D01*
X252500D01*
X245000Y220000D01*
Y282500D01*
X250000Y287500D01*
X330000Y287500D01*
D02*
G37*
G36*
X202500Y165000D02*
X225000D01*
X227500Y162500D01*
Y157500D01*
X225000Y155000D01*
X199709D01*
X198614Y153231D01*
X196894Y152889D01*
X195406Y151894D01*
X187827Y144315D01*
X186832Y142827D01*
X186483Y141071D01*
Y138500D01*
X180250D01*
Y125500D01*
X180250D01*
X180819Y124479D01*
X177380Y118923D01*
X176816Y118811D01*
X175327Y117816D01*
X169056Y111544D01*
X168061Y110056D01*
X167712Y108300D01*
Y103302D01*
X167500Y102960D01*
Y36085D01*
X164932Y34602D01*
X162698Y32368D01*
X161118Y29632D01*
X160300Y26580D01*
Y23420D01*
X161118Y20368D01*
X162698Y17632D01*
X164932Y15398D01*
X167500Y13915D01*
Y10000D01*
X70000Y10000D01*
X42841Y37159D01*
X41763Y39026D01*
X39026Y41763D01*
X37159Y42841D01*
X10000Y70000D01*
Y140000D01*
X12500Y142500D01*
X67500D01*
X92500Y167500D01*
X95230D01*
X96500Y167500D01*
X96500Y166230D01*
Y156500D01*
X113500D01*
X113500Y167452D01*
X114750Y167499D01*
X116000Y167452D01*
X116000Y166230D01*
Y156500D01*
X132730D01*
X133000Y156500D01*
X134000Y155848D01*
Y154500D01*
X153730D01*
X154000Y154500D01*
X155000D01*
X155270Y154500D01*
X175000D01*
X175000Y167500D01*
X176270Y167500D01*
X200000D01*
X202500Y165000D01*
D02*
G37*
G36*
X355300Y464700D02*
Y463911D01*
X363911Y455300D01*
X364700D01*
X390000Y430000D01*
Y70000D01*
X364700Y44700D01*
X363911D01*
X355300Y36089D01*
Y35300D01*
X330000Y10000D01*
X169665D01*
X169665Y10000D01*
Y13000D01*
X177271D01*
X184300Y20029D01*
Y29971D01*
X177271Y37000D01*
X177171D01*
Y106283D01*
X180388Y109500D01*
X200250D01*
Y122500D01*
X195121D01*
Y125500D01*
X200250D01*
Y138500D01*
X198217D01*
X197388Y140500D01*
X200667Y143779D01*
X206500D01*
Y143400D01*
X227000D01*
Y153900D01*
X227000Y153900D01*
X227000D01*
X228320Y155258D01*
X229031Y155969D01*
X229665Y157500D01*
Y162500D01*
X229031Y164031D01*
X227226Y165835D01*
X227402Y167119D01*
X228173Y168114D01*
X229031Y168469D01*
X231531Y170969D01*
X232165Y172500D01*
Y181603D01*
X235897Y185335D01*
X255000D01*
X256531Y185969D01*
X259031Y188469D01*
X259665Y190000D01*
Y205000D01*
X259031Y206531D01*
X257226Y208335D01*
X258055Y210335D01*
X266603D01*
X270335Y206603D01*
Y183397D01*
X269103Y182165D01*
X265000D01*
X263469Y181531D01*
X260969Y179031D01*
X260335Y177500D01*
Y170000D01*
X260969Y168469D01*
X263469Y165969D01*
X265000Y165335D01*
X282500D01*
X284031Y165969D01*
X286531Y168469D01*
X287165Y170000D01*
Y174103D01*
X328397Y215335D01*
X345000D01*
X346531Y215969D01*
X349031Y218469D01*
X349665Y220000D01*
Y230000D01*
X349031Y231531D01*
X339665Y240897D01*
Y280000D01*
X339031Y281531D01*
X331531Y289031D01*
X330000Y289665D01*
X250000Y289665D01*
X248469Y289031D01*
X243469Y284031D01*
X242835Y282500D01*
Y220000D01*
X243469Y218469D01*
X250274Y211665D01*
X249445Y209665D01*
X230000D01*
X228469Y209031D01*
X203469Y184031D01*
X202835Y182500D01*
Y172500D01*
X203469Y170969D01*
X204212Y170227D01*
X203515Y168095D01*
X202607Y167954D01*
X201531Y169031D01*
X200000Y169665D01*
X176270D01*
X176270Y169665D01*
X176270Y169665D01*
X175000Y169665D01*
X174212Y169338D01*
X173469Y169031D01*
X173469Y169031D01*
X173469Y169031D01*
X173162Y168288D01*
X172835Y167500D01*
X172835Y156665D01*
X155270D01*
X155270Y156665D01*
X155270Y156665D01*
X155000Y156665D01*
X154000D01*
X153730Y156665D01*
X153730Y156665D01*
X153730Y156665D01*
X135865D01*
X135768Y156806D01*
X135531Y157379D01*
X135314Y157469D01*
X135182Y157662D01*
X134182Y158314D01*
X133573Y158427D01*
X133000Y158665D01*
X132730Y158665D01*
X132730Y158665D01*
X132730Y158665D01*
X118165D01*
Y166230D01*
X118165Y167452D01*
X117862Y168183D01*
X117588Y168923D01*
X117548Y168942D01*
X117531Y168983D01*
X116800Y169285D01*
X116082Y169615D01*
X114832Y169662D01*
X114750Y169632D01*
X114668Y169662D01*
X113418Y169615D01*
X112699Y169285D01*
X111969Y168983D01*
X111952Y168942D01*
X111912Y168923D01*
X111638Y168182D01*
X111335Y167452D01*
X111335Y158665D01*
X98665D01*
Y166230D01*
X98665Y167500D01*
X98349Y168261D01*
X98031Y169030D01*
X98031Y169031D01*
X98031Y169031D01*
X97262Y169349D01*
X96500Y169665D01*
X95230Y169665D01*
X95230Y169665D01*
X95230Y169665D01*
X92500D01*
X90969Y169031D01*
X66603Y144665D01*
X12500D01*
X12000Y144458D01*
X10000Y145675D01*
Y430000D01*
X35300Y455300D01*
X36089D01*
X44700Y463911D01*
Y464700D01*
X70000Y490000D01*
X184325D01*
X185091Y488152D01*
X183469Y486531D01*
X182835Y485000D01*
Y440000D01*
X183469Y438469D01*
X207835Y414103D01*
Y327500D01*
X208469Y325969D01*
X210969Y323469D01*
X212500Y322835D01*
X225000D01*
X226531Y323469D01*
X235897Y332835D01*
X307500D01*
X309031Y333469D01*
X314031Y338469D01*
X314665Y340000D01*
Y345506D01*
X320310D01*
X361006Y304810D01*
Y121876D01*
X360124Y120994D01*
X356000D01*
Y121000D01*
X337165D01*
Y134000D01*
X336531Y135531D01*
X333531Y138531D01*
X332000Y139165D01*
X319000D01*
X318052Y138772D01*
X317258Y138658D01*
X315716Y139582D01*
X315531Y140031D01*
X311531Y144031D01*
X310000Y144665D01*
X303397D01*
X294031Y154031D01*
X292500Y154665D01*
X265000D01*
X263469Y154031D01*
X263339Y153900D01*
X263000D01*
Y153561D01*
X260969Y151531D01*
X260335Y150000D01*
Y145000D01*
X260969Y143469D01*
X261740Y142699D01*
X263000Y141200D01*
X262342Y139473D01*
X261835Y138250D01*
Y131000D01*
X262469Y129469D01*
X272585Y119353D01*
Y95250D01*
X273219Y93719D01*
X289469Y77469D01*
X291000Y76835D01*
X300000D01*
X301531Y77469D01*
X304531Y80469D01*
X305165Y82000D01*
Y94000D01*
X304531Y95531D01*
X304226Y95835D01*
X305000Y97835D01*
X306531Y98469D01*
X312987Y104926D01*
X315144Y104254D01*
X315469Y103469D01*
X318469Y100469D01*
X318708Y99269D01*
X315969Y96531D01*
X315335Y95000D01*
X315335Y82498D01*
X315969Y80967D01*
X318467Y78469D01*
X319998Y77835D01*
X354000Y77835D01*
X355531Y78469D01*
X356531Y79469D01*
X357165Y81000D01*
Y90000D01*
X356531Y91531D01*
X347531Y100531D01*
X346000Y101165D01*
X338569D01*
X337165Y103000D01*
Y108000D01*
X356000D01*
Y108006D01*
X362814D01*
X367406Y109908D01*
X372092Y114594D01*
X373994Y119186D01*
Y307500D01*
X372092Y312092D01*
X327592Y356592D01*
X323000Y358494D01*
X314665D01*
Y487500D01*
X314458Y488000D01*
X315185Y489524D01*
X315675Y490000D01*
X330000D01*
X355300Y464700D01*
D02*
G37*
G36*
X335000Y134000D02*
Y104000D01*
Y103000D01*
X334000Y102000D01*
X320000D01*
X317000Y105000D01*
X317000Y133000D01*
Y135000D01*
X319000Y137000D01*
X332000D01*
X335000Y134000D01*
D02*
G37*
G36*
X302500Y142500D02*
X310000D01*
X314000Y138500D01*
Y109000D01*
X305000Y100000D01*
X295000D01*
X292500Y102500D01*
Y140000D01*
X290000Y142500D01*
X265000D01*
X262500Y145000D01*
Y150000D01*
X265000Y152500D01*
X292500D01*
X302500Y142500D01*
D02*
G37*
G36*
X355000Y90000D02*
Y81000D01*
X354000Y80000D01*
X319998Y80000D01*
X317500Y82498D01*
X317500Y95000D01*
X321500Y99000D01*
X346000D01*
X355000Y90000D01*
D02*
G37*
G36*
X286000Y138000D02*
Y100000D01*
X289000Y97000D01*
X300000D01*
X303000Y94000D01*
Y82000D01*
X300000Y79000D01*
X291000D01*
X274750Y95250D01*
Y120250D01*
X264000Y131000D01*
Y138250D01*
X265750Y140000D01*
X284000Y140000D01*
X286000Y138000D01*
D02*
G37*
%LPC*%
G36*
X110000Y61000D02*
X90000D01*
Y48000D01*
X110000D01*
Y49147D01*
X144365D01*
X146413Y49555D01*
X146719Y49759D01*
X148116Y50337D01*
X149663Y51884D01*
X150500Y53906D01*
Y56094D01*
X149663Y58116D01*
X148116Y59663D01*
X146094Y60500D01*
X143906D01*
X142344Y59853D01*
X110000D01*
Y61000D01*
D02*
G37*
G36*
X90300Y34000D02*
X69700D01*
Y15000D01*
X90300D01*
Y18882D01*
X99500D01*
X100091Y19000D01*
X110000D01*
Y32000D01*
X90300D01*
Y34000D01*
D02*
G37*
%LPD*%
G36*
X108469Y58322D02*
X110000Y57688D01*
X142344D01*
X142741Y57853D01*
X143172D01*
X144337Y58335D01*
X145663D01*
X146889Y57827D01*
X147827Y56889D01*
X148335Y55663D01*
Y54337D01*
X147827Y53111D01*
X146889Y52173D01*
X145890Y51759D01*
X145764Y51633D01*
X144151Y51312D01*
X110000D01*
X108469Y50678D01*
X108257Y50165D01*
X92165D01*
Y58835D01*
X108257D01*
X108469Y58322D01*
D02*
G37*
%LPC*%
G36*
X345000Y397300D02*
Y397300D01*
X344124Y397300D01*
X326000D01*
Y376700D01*
X344124D01*
X345000Y376700D01*
Y376700D01*
X346000Y377000D01*
X346000Y377000D01*
X359000D01*
Y397000D01*
X346000D01*
Y397000D01*
X345000Y397300D01*
D02*
G37*
G36*
X197000Y365000D02*
X184000D01*
Y347000D01*
X184000Y345000D01*
X184000D01*
Y345000D01*
X184000Y345000D01*
Y325000D01*
X184006D01*
Y255500D01*
X185908Y250908D01*
X210500Y226316D01*
Y214500D01*
X239500D01*
Y235500D01*
X219684D01*
X196994Y258190D01*
Y325000D01*
X197000D01*
Y343000D01*
X197000Y345000D01*
X197000D01*
Y345000D01*
X197000Y345000D01*
Y365000D01*
D02*
G37*
G36*
X227000Y141200D02*
X206500D01*
Y130700D01*
X211879D01*
Y126000D01*
X205000D01*
Y113000D01*
X216105D01*
X217000Y112629D01*
X223482D01*
X227429Y108682D01*
Y37446D01*
X226983Y37000D01*
X218129D01*
X211100Y29971D01*
Y20029D01*
X218129Y13000D01*
X228071D01*
X235100Y20029D01*
Y29971D01*
X234415Y30656D01*
X235744Y31985D01*
X237171Y35429D01*
Y110700D01*
X235744Y114144D01*
X228944Y120944D01*
X225500Y122371D01*
X225000D01*
Y126000D01*
X221621D01*
Y130700D01*
X227000D01*
Y141200D01*
D02*
G37*
%LPD*%
D12*
X381500Y387000D02*
D03*
X352500D02*
D03*
X190500Y335000D02*
D03*
X219500D02*
D03*
X190500Y355000D02*
D03*
X219500D02*
D03*
X191000Y375000D02*
D03*
X220000D02*
D03*
X191000Y395000D02*
D03*
X220000D02*
D03*
X252000Y112500D02*
D03*
X281000D02*
D03*
X329500Y111000D02*
D03*
X300500D02*
D03*
X296000Y88750D02*
D03*
X325000D02*
D03*
X250500Y198000D02*
D03*
X279500D02*
D03*
D13*
X335500Y387000D02*
D03*
X304500D02*
D03*
D14*
X80000Y55500D02*
D03*
Y24500D02*
D03*
D15*
X100000Y54500D02*
D03*
Y25500D02*
D03*
X190250Y132000D02*
D03*
Y161000D02*
D03*
X305000Y159500D02*
D03*
Y130500D02*
D03*
X325000Y159500D02*
D03*
Y130500D02*
D03*
X346000Y85500D02*
D03*
Y114500D02*
D03*
X215000Y90500D02*
D03*
Y119500D02*
D03*
X190250Y87000D02*
D03*
Y116000D02*
D03*
X165000Y161000D02*
D03*
Y132000D02*
D03*
X144000Y161000D02*
D03*
Y132000D02*
D03*
D16*
X285000Y352000D02*
D03*
Y268000D02*
D03*
D17*
X332000Y225000D02*
D03*
D18*
X225000D02*
D03*
X265000D02*
D03*
D19*
X216750Y135950D02*
D03*
Y148650D02*
D03*
Y161350D02*
D03*
Y174050D02*
D03*
X273250Y135950D02*
D03*
Y148650D02*
D03*
Y161350D02*
D03*
Y174050D02*
D03*
D20*
X124500Y143000D02*
D03*
Y162000D02*
D03*
X105000Y143000D02*
D03*
Y162000D02*
D03*
D32*
X335500Y387000D02*
X352500D01*
X80000Y24500D02*
X80500Y25000D01*
X99500D02*
X100000Y25500D01*
X80500Y25000D02*
X99500D01*
X367500Y119186D02*
Y307500D01*
X323000Y352000D02*
X367500Y307500D01*
X346000Y114500D02*
X362814D01*
X367500Y119186D01*
X285000Y352000D02*
X323000D01*
X221000Y225000D02*
X225000D01*
X190500Y255500D02*
Y335000D01*
Y255500D02*
X221000Y225000D01*
X190500Y335000D02*
Y355000D01*
D33*
X223100Y25000D02*
Y26229D01*
X232300Y35429D01*
Y110700D01*
X172300Y108300D02*
X178572Y114572D01*
X172300Y25000D02*
Y108300D01*
X178572Y114572D02*
X188822D01*
X190250Y116000D01*
X215000Y119500D02*
X217000Y117500D01*
X225500D01*
X232300Y110700D01*
X216750Y121250D02*
Y135950D01*
X190250Y116000D02*
Y132000D01*
X191071Y132821D02*
Y141071D01*
X198650Y148650D02*
X216750D01*
X190250Y132000D02*
X191071Y132821D01*
Y141071D02*
X198650Y148650D01*
D34*
X144865Y55000D02*
X145000D01*
X100000Y54500D02*
X144365D01*
X144865Y55000D01*
D35*
X197700Y25000D02*
D03*
X172300D02*
D03*
X370000Y470000D02*
D03*
Y30000D02*
D03*
X30000D02*
D03*
Y470000D02*
D03*
X223100Y25000D02*
D03*
X248500D02*
D03*
D36*
X50000Y160000D02*
D03*
Y110000D02*
D03*
X200000Y451000D02*
D03*
X150000D02*
D03*
D37*
X145000Y55000D02*
D03*
X120000Y70106D02*
D03*
X110000Y100000D02*
D03*
Y80000D02*
D03*
X130000D02*
D03*
Y100000D02*
D03*
X120000Y90105D02*
D03*
X140000Y70000D02*
D03*
X150000Y80000D02*
D03*
X140000Y90000D02*
D03*
X150000Y100000D02*
D03*
X250000Y420000D02*
D03*
X270000D02*
D03*
X290000D02*
D03*
X280000Y410000D02*
D03*
X260000Y410106D02*
D03*
Y390106D02*
D03*
X280000Y390000D02*
D03*
X290000Y400000D02*
D03*
X270000D02*
D03*
X250000D02*
D03*
Y440000D02*
D03*
X270000D02*
D03*
X290000D02*
D03*
X280000Y430000D02*
D03*
X260000Y430106D02*
D03*
Y450106D02*
D03*
X280000Y450000D02*
D03*
X290000Y460000D02*
D03*
X270000D02*
D03*
X250000D02*
D03*
M02*
