G04*
G04 #@! TF.GenerationSoftware,Altium Limited,Altium Designer,22.7.1 (60)*
G04*
G04 Layer_Physical_Order=2*
G04 Layer_Color=16711680*
%FSLAX44Y44*%
%MOMM*%
G71*
G04*
G04 #@! TF.SameCoordinates,B907E7F6-3D8B-4148-802C-DA242210B7AD*
G04*
G04*
G04 #@! TF.FilePolarity,Positive*
G04*
G01*
G75*
%ADD34C,0.6500*%
%ADD35C,2.0000*%
%ADD36C,2.3000*%
%ADD37C,0.7000*%
G36*
X312500Y487500D02*
Y340000D01*
X307500Y335000D01*
X235000D01*
X225000Y325000D01*
X212500D01*
X210000Y327500D01*
Y415000D01*
X185000Y440000D01*
Y485000D01*
X190000Y490000D01*
X310000Y490000D01*
X312500Y487500D01*
D02*
G37*
G36*
X355300Y464700D02*
Y463911D01*
X363911Y455300D01*
X364700D01*
X390000Y430000D01*
Y70000D01*
X364700Y44700D01*
X363911D01*
X355300Y36089D01*
Y35300D01*
X330000Y10000D01*
X169665D01*
X169665Y10000D01*
Y13000D01*
X177271D01*
X184300Y20029D01*
Y29971D01*
X177271Y37000D01*
X169665D01*
Y47630D01*
X169031Y49161D01*
X167013Y51178D01*
X165483Y51812D01*
X146449D01*
X146094Y51665D01*
X144337D01*
X143111Y52172D01*
X142173Y53111D01*
X141665Y54337D01*
Y55663D01*
X142172Y56889D01*
X143111Y57827D01*
X144337Y58335D01*
X146094D01*
X146449Y58188D01*
X167500D01*
X169031Y58822D01*
X169665Y60353D01*
Y102344D01*
X200915Y152835D01*
X225000D01*
X226531Y153469D01*
X229031Y155969D01*
X229665Y157500D01*
Y162500D01*
X229031Y164031D01*
X227226Y165835D01*
X227340Y166667D01*
X227855Y167982D01*
X229031Y168469D01*
X231531Y170969D01*
X232165Y172500D01*
Y181603D01*
X235897Y185335D01*
X255000D01*
X256531Y185969D01*
X259031Y188469D01*
X259665Y190000D01*
Y205000D01*
X259031Y206531D01*
X257226Y208335D01*
X258055Y210335D01*
X266603D01*
X270335Y206603D01*
Y183397D01*
X269103Y182165D01*
X265000D01*
X263469Y181531D01*
X260969Y179031D01*
X260335Y177500D01*
Y170000D01*
X260969Y168469D01*
X263469Y165969D01*
X265000Y165335D01*
X282500D01*
X284031Y165969D01*
X286531Y168469D01*
X287165Y170000D01*
Y174103D01*
X328397Y215335D01*
X345000D01*
X346531Y215969D01*
X349031Y218469D01*
X349665Y220000D01*
Y230000D01*
X349031Y231531D01*
X339665Y240897D01*
Y280000D01*
X339031Y281531D01*
X331531Y289031D01*
X330000Y289665D01*
X250000Y289665D01*
X248469Y289031D01*
X243469Y284031D01*
X242835Y282500D01*
Y220000D01*
X243469Y218469D01*
X250274Y211665D01*
X249445Y209665D01*
X230000D01*
X228469Y209031D01*
X203469Y184031D01*
X202835Y182500D01*
Y172500D01*
X203469Y170969D01*
X204212Y170227D01*
X203515Y168095D01*
X202607Y167954D01*
X201531Y169031D01*
X200000Y169665D01*
X92500D01*
X90969Y169031D01*
X66603Y144665D01*
X12500D01*
X12000Y144458D01*
X10000Y145675D01*
Y430000D01*
X35300Y455300D01*
X36089D01*
X44700Y463911D01*
Y464700D01*
X70000Y490000D01*
X184325D01*
X185091Y488152D01*
X183469Y486531D01*
X182835Y485000D01*
Y440000D01*
X183469Y438469D01*
X207835Y414103D01*
Y327500D01*
X208469Y325969D01*
X210969Y323469D01*
X212500Y322835D01*
X225000D01*
X226531Y323469D01*
X235897Y332835D01*
X307500D01*
X309031Y333469D01*
X314031Y338469D01*
X314665Y340000D01*
Y487500D01*
X314458Y488000D01*
X315185Y489524D01*
X315675Y490000D01*
X330000D01*
X355300Y464700D01*
D02*
G37*
G36*
X257500Y205000D02*
Y190000D01*
X255000Y187500D01*
X235000D01*
X230000Y182500D01*
Y172500D01*
X227500Y170000D01*
X207500D01*
X205000Y172500D01*
Y182500D01*
X230000Y207500D01*
X255000D01*
X257500Y205000D01*
D02*
G37*
G36*
X330000Y287500D02*
X337500Y280000D01*
Y240000D01*
X347500Y230000D01*
Y220000D01*
X345000Y217500D01*
X327500D01*
X285000Y175000D01*
Y170000D01*
X282500Y167500D01*
X265000D01*
X262500Y170000D01*
Y177500D01*
X265000Y180000D01*
X270000D01*
X272500Y182500D01*
Y207500D01*
X267500Y212500D01*
X252500D01*
X245000Y220000D01*
Y282500D01*
X250000Y287500D01*
X330000Y287500D01*
D02*
G37*
G36*
X202500Y165000D02*
X225000D01*
X227500Y162500D01*
Y157500D01*
X225000Y155000D01*
X199709D01*
X167500Y102960D01*
Y60353D01*
X146449D01*
X146094Y60500D01*
X143906D01*
X141884Y59663D01*
X140337Y58116D01*
X139500Y56094D01*
Y53906D01*
X140337Y51884D01*
X141884Y50337D01*
X143906Y49500D01*
X146094D01*
X146449Y49647D01*
X165483D01*
X167500Y47630D01*
Y36085D01*
X164932Y34602D01*
X162698Y32368D01*
X161118Y29632D01*
X160300Y26580D01*
Y23420D01*
X161118Y20368D01*
X162698Y17632D01*
X164932Y15398D01*
X167500Y13915D01*
Y10000D01*
X70000Y10000D01*
X42841Y37159D01*
X41763Y39026D01*
X39026Y41763D01*
X37159Y42841D01*
X10000Y70000D01*
Y140000D01*
X12500Y142500D01*
X67500D01*
X92500Y167500D01*
X200000D01*
X202500Y165000D01*
D02*
G37*
%LPC*%
G36*
X292500Y154665D02*
X265000D01*
X263469Y154031D01*
X260969Y151531D01*
X260335Y150000D01*
Y145000D01*
X260969Y143469D01*
X263469Y140969D01*
X263500Y140812D01*
X262469Y139781D01*
X261835Y138250D01*
Y131000D01*
X262469Y129469D01*
X272585Y119353D01*
Y95250D01*
X273219Y93719D01*
X289469Y77469D01*
X291000Y76835D01*
X300000D01*
X301531Y77469D01*
X304531Y80469D01*
X305165Y82000D01*
Y94000D01*
X304531Y95531D01*
X304074Y95987D01*
X304839Y97835D01*
X305000D01*
X306531Y98469D01*
X312987Y104926D01*
X315144Y104254D01*
X315469Y103469D01*
X318469Y100469D01*
X318708Y99269D01*
X315969Y96531D01*
X315335Y95000D01*
X315335Y82498D01*
X315969Y80967D01*
X318467Y78469D01*
X319998Y77835D01*
X354000Y77835D01*
X355531Y78469D01*
X356531Y79469D01*
X357165Y81000D01*
Y90000D01*
X356531Y91531D01*
X347531Y100531D01*
X346000Y101165D01*
X338569D01*
X337165Y103000D01*
Y134000D01*
X336531Y135531D01*
X333531Y138531D01*
X332000Y139165D01*
X319000D01*
X318052Y138772D01*
X317258Y138658D01*
X315716Y139582D01*
X315531Y140031D01*
X311531Y144031D01*
X310000Y144665D01*
X303397D01*
X294031Y154031D01*
X292500Y154665D01*
D02*
G37*
G36*
X228071Y37000D02*
X218129D01*
X211100Y29971D01*
Y20029D01*
X218129Y13000D01*
X228071D01*
X235100Y20029D01*
Y29971D01*
X228071Y37000D01*
D02*
G37*
%LPD*%
G36*
X335000Y134000D02*
Y104000D01*
Y103000D01*
X334000Y102000D01*
X320000D01*
X317000Y105000D01*
X317000Y133000D01*
Y135000D01*
X319000Y137000D01*
X332000D01*
X335000Y134000D01*
D02*
G37*
G36*
X302500Y142500D02*
X310000D01*
X314000Y138500D01*
Y109000D01*
X305000Y100000D01*
X295000D01*
X292500Y102500D01*
Y140000D01*
X290000Y142500D01*
X265000D01*
X262500Y145000D01*
Y150000D01*
X265000Y152500D01*
X292500D01*
X302500Y142500D01*
D02*
G37*
G36*
X355000Y90000D02*
Y81000D01*
X354000Y80000D01*
X319998Y80000D01*
X317500Y82498D01*
X317500Y95000D01*
X321500Y99000D01*
X346000D01*
X355000Y90000D01*
D02*
G37*
G36*
X286000Y138000D02*
Y100000D01*
X289000Y97000D01*
X300000D01*
X303000Y94000D01*
Y82000D01*
X300000Y79000D01*
X291000D01*
X274750Y95250D01*
Y120250D01*
X264000Y131000D01*
Y138250D01*
X265750Y140000D01*
X284000Y140000D01*
X286000Y138000D01*
D02*
G37*
D34*
X167700Y55000D02*
X197700Y25000D01*
X145000Y55000D02*
X167700D01*
D35*
X197700Y25000D02*
D03*
X172300D02*
D03*
X370000Y470000D02*
D03*
Y30000D02*
D03*
X30000D02*
D03*
Y470000D02*
D03*
X223100Y25000D02*
D03*
X248500D02*
D03*
D36*
X50000Y160000D02*
D03*
Y110000D02*
D03*
X200000Y451000D02*
D03*
X150000D02*
D03*
D37*
X145000Y55000D02*
D03*
X120000Y70106D02*
D03*
X110000Y100000D02*
D03*
Y80000D02*
D03*
X130000D02*
D03*
Y100000D02*
D03*
X120000Y90105D02*
D03*
X140000Y70000D02*
D03*
X150000Y80000D02*
D03*
X140000Y90000D02*
D03*
X150000Y100000D02*
D03*
X250000Y420000D02*
D03*
X270000D02*
D03*
X290000D02*
D03*
X280000Y410000D02*
D03*
X260000Y410106D02*
D03*
Y390106D02*
D03*
X280000Y390000D02*
D03*
X290000Y400000D02*
D03*
X270000D02*
D03*
X250000D02*
D03*
Y440000D02*
D03*
X270000D02*
D03*
X290000D02*
D03*
X280000Y430000D02*
D03*
X260000Y430106D02*
D03*
Y450106D02*
D03*
X280000Y450000D02*
D03*
X290000Y460000D02*
D03*
X270000D02*
D03*
X250000D02*
D03*
M02*
