G04*
G04 #@! TF.GenerationSoftware,Altium Limited,Altium Designer,22.7.1 (60)*
G04*
G04 Layer_Color=2752767*
%FSLAX44Y44*%
%MOMM*%
G71*
G04*
G04 #@! TF.SameCoordinates,B907E7F6-3D8B-4148-802C-DA242210B7AD*
G04*
G04*
G04 #@! TF.FilePolarity,Positive*
G04*
G01*
G75*
%ADD11C,0.2000*%
%ADD40C,0.0677*%
%ADD41C,0.0508*%
D11*
X380000Y0D02*
G03*
X400000Y20000I0J20000D01*
G01*
X0D02*
G03*
X20000Y-0I20000J0D01*
G01*
X400000Y480000D02*
G03*
X380000Y500000I-20000J0D01*
G01*
X20000Y500000D02*
G03*
X0Y480000I0J-20000D01*
G01*
X20000Y0D02*
X380000D01*
X0Y20000D02*
Y480000D01*
X400000Y20000D02*
Y480000D01*
X20000Y500000D02*
X380000D01*
D40*
X199732Y25000D02*
G03*
X199732Y25000I-2032J0D01*
G01*
X174332D02*
G03*
X174332Y25000I-2032J0D01*
G01*
X225132D02*
G03*
X225132Y25000I-2032J0D01*
G01*
X250532D02*
G03*
X250532Y25000I-2032J0D01*
G01*
D41*
X367968Y467968D02*
X368984Y470000D01*
X367968Y472032D01*
X370000Y471016D01*
X372032Y472032D01*
X371016Y470000D01*
X372032Y467968D01*
X370000Y468984D01*
X367968Y467968D01*
Y27968D02*
X368984Y30000D01*
X367968Y32032D01*
X370000Y31016D01*
X372032Y32032D01*
X371016Y30000D01*
X372032Y27968D01*
X370000Y28984D01*
X367968Y27968D01*
X27968D02*
X28984Y30000D01*
X27968Y32032D01*
X30000Y31016D01*
X32032Y32032D01*
X31016Y30000D01*
X32032Y27968D01*
X30000Y28984D01*
X27968Y27968D01*
Y467968D02*
X28984Y470000D01*
X27968Y472032D01*
X30000Y471016D01*
X32032Y472032D01*
X31016Y470000D01*
X32032Y467968D01*
X30000Y468984D01*
X27968Y467968D01*
X47968Y157968D02*
Y162032D01*
X52032D01*
Y157968D01*
X47968D01*
Y107968D02*
Y112032D01*
X52032D01*
Y107968D01*
X47968D01*
X197968Y448968D02*
Y453032D01*
X202032D01*
Y448968D01*
X197968D01*
X147968D02*
Y453032D01*
X152032D01*
Y448968D01*
X147968D01*
X143984Y53984D02*
Y52968D01*
X146016D01*
Y53984D01*
X147032D01*
Y56016D01*
X146016D01*
Y57032D01*
X143984D01*
Y56016D01*
X142968D01*
Y53984D01*
X143984D01*
X118984Y69089D02*
Y68074D01*
X121016D01*
Y69089D01*
X122032D01*
Y71122D01*
X121016D01*
Y72137D01*
X118984D01*
Y71122D01*
X117968D01*
Y69089D01*
X118984D01*
X108984Y98984D02*
Y97968D01*
X111016D01*
Y98984D01*
X112032D01*
Y101016D01*
X111016D01*
Y102032D01*
X108984D01*
Y101016D01*
X107968D01*
Y98984D01*
X108984D01*
Y78984D02*
Y77968D01*
X111016D01*
Y78984D01*
X112032D01*
Y81016D01*
X111016D01*
Y82032D01*
X108984D01*
Y81016D01*
X107968D01*
Y78984D01*
X108984D01*
X128984D02*
Y77968D01*
X131016D01*
Y78984D01*
X132032D01*
Y81016D01*
X131016D01*
Y82032D01*
X128984D01*
Y81016D01*
X127968D01*
Y78984D01*
X128984D01*
Y98984D02*
Y97968D01*
X131016D01*
Y98984D01*
X132032D01*
Y101016D01*
X131016D01*
Y102032D01*
X128984D01*
Y101016D01*
X127968D01*
Y98984D01*
X128984D01*
X118984Y89089D02*
Y88074D01*
X121016D01*
Y89089D01*
X122032D01*
Y91122D01*
X121016D01*
Y92137D01*
X118984D01*
Y91122D01*
X117968D01*
Y89089D01*
X118984D01*
X138984Y68984D02*
Y67968D01*
X141016D01*
Y68984D01*
X142032D01*
Y71016D01*
X141016D01*
Y72032D01*
X138984D01*
Y71016D01*
X137968D01*
Y68984D01*
X138984D01*
X148984Y78984D02*
Y77968D01*
X151016D01*
Y78984D01*
X152032D01*
Y81016D01*
X151016D01*
Y82032D01*
X148984D01*
Y81016D01*
X147968D01*
Y78984D01*
X148984D01*
X138984Y88984D02*
Y87968D01*
X141016D01*
Y88984D01*
X142032D01*
Y91016D01*
X141016D01*
Y92032D01*
X138984D01*
Y91016D01*
X137968D01*
Y88984D01*
X138984D01*
X148984Y98984D02*
Y97968D01*
X151016D01*
Y98984D01*
X152032D01*
Y101016D01*
X151016D01*
Y102032D01*
X148984D01*
Y101016D01*
X147968D01*
Y98984D01*
X148984D01*
X248984Y418984D02*
Y417968D01*
X251016D01*
Y418984D01*
X252032D01*
Y421016D01*
X251016D01*
Y422032D01*
X248984D01*
Y421016D01*
X247968D01*
Y418984D01*
X248984D01*
X268984D02*
Y417968D01*
X271016D01*
Y418984D01*
X272032D01*
Y421016D01*
X271016D01*
Y422032D01*
X268984D01*
Y421016D01*
X267968D01*
Y418984D01*
X268984D01*
X288984D02*
Y417968D01*
X291016D01*
Y418984D01*
X292032D01*
Y421016D01*
X291016D01*
Y422032D01*
X288984D01*
Y421016D01*
X287968D01*
Y418984D01*
X288984D01*
X278984Y408984D02*
Y407968D01*
X281016D01*
Y408984D01*
X282032D01*
Y411016D01*
X281016D01*
Y412032D01*
X278984D01*
Y411016D01*
X277968D01*
Y408984D01*
X278984D01*
X258984Y409090D02*
Y408074D01*
X261016D01*
Y409090D01*
X262032D01*
Y411121D01*
X261016D01*
Y412137D01*
X258984D01*
Y411121D01*
X257968D01*
Y409090D01*
X258984D01*
Y389090D02*
Y388074D01*
X261016D01*
Y389090D01*
X262032D01*
Y391121D01*
X261016D01*
Y392137D01*
X258984D01*
Y391121D01*
X257968D01*
Y389090D01*
X258984D01*
X278984Y388984D02*
Y387968D01*
X281016D01*
Y388984D01*
X282032D01*
Y391016D01*
X281016D01*
Y392032D01*
X278984D01*
Y391016D01*
X277968D01*
Y388984D01*
X278984D01*
X288984Y398984D02*
Y397968D01*
X291016D01*
Y398984D01*
X292032D01*
Y401016D01*
X291016D01*
Y402032D01*
X288984D01*
Y401016D01*
X287968D01*
Y398984D01*
X288984D01*
X268984D02*
Y397968D01*
X271016D01*
Y398984D01*
X272032D01*
Y401016D01*
X271016D01*
Y402032D01*
X268984D01*
Y401016D01*
X267968D01*
Y398984D01*
X268984D01*
X248984D02*
Y397968D01*
X251016D01*
Y398984D01*
X252032D01*
Y401016D01*
X251016D01*
Y402032D01*
X248984D01*
Y401016D01*
X247968D01*
Y398984D01*
X248984D01*
Y438984D02*
Y437968D01*
X251016D01*
Y438984D01*
X252032D01*
Y441016D01*
X251016D01*
Y442032D01*
X248984D01*
Y441016D01*
X247968D01*
Y438984D01*
X248984D01*
X268984D02*
Y437968D01*
X271016D01*
Y438984D01*
X272032D01*
Y441016D01*
X271016D01*
Y442032D01*
X268984D01*
Y441016D01*
X267968D01*
Y438984D01*
X268984D01*
X288984D02*
Y437968D01*
X291016D01*
Y438984D01*
X292032D01*
Y441016D01*
X291016D01*
Y442032D01*
X288984D01*
Y441016D01*
X287968D01*
Y438984D01*
X288984D01*
X278984Y428984D02*
Y427968D01*
X281016D01*
Y428984D01*
X282032D01*
Y431016D01*
X281016D01*
Y432032D01*
X278984D01*
Y431016D01*
X277968D01*
Y428984D01*
X278984D01*
X258984Y429090D02*
Y428074D01*
X261016D01*
Y429090D01*
X262032D01*
Y431121D01*
X261016D01*
Y432137D01*
X258984D01*
Y431121D01*
X257968D01*
Y429090D01*
X258984D01*
Y449090D02*
Y448074D01*
X261016D01*
Y449090D01*
X262032D01*
Y451121D01*
X261016D01*
Y452137D01*
X258984D01*
Y451121D01*
X257968D01*
Y449090D01*
X258984D01*
X278984Y448984D02*
Y447968D01*
X281016D01*
Y448984D01*
X282032D01*
Y451016D01*
X281016D01*
Y452032D01*
X278984D01*
Y451016D01*
X277968D01*
Y448984D01*
X278984D01*
X288984Y458984D02*
Y457968D01*
X291016D01*
Y458984D01*
X292032D01*
Y461016D01*
X291016D01*
Y462032D01*
X288984D01*
Y461016D01*
X287968D01*
Y458984D01*
X288984D01*
X268984D02*
Y457968D01*
X271016D01*
Y458984D01*
X272032D01*
Y461016D01*
X271016D01*
Y462032D01*
X268984D01*
Y461016D01*
X267968D01*
Y458984D01*
X268984D01*
X248984D02*
Y457968D01*
X251016D01*
Y458984D01*
X252032D01*
Y461016D01*
X251016D01*
Y462032D01*
X248984D01*
Y461016D01*
X247968D01*
Y458984D01*
X248984D01*
M02*
