G04*
G04 #@! TF.GenerationSoftware,Altium Limited,Altium Designer,22.7.1 (60)*
G04*
G04 Layer_Color=8388736*
%FSLAX44Y44*%
%MOMM*%
G71*
G04*
G04 #@! TF.SameCoordinates,B907E7F6-3D8B-4148-802C-DA242210B7AD*
G04*
G04*
G04 #@! TF.FilePolarity,Negative*
G04*
G01*
G75*
%ADD21R,1.0000X1.7000*%
%ADD22R,1.6000X1.7600*%
%ADD23R,1.7600X1.6000*%
%ADD24R,1.7000X1.0000*%
%ADD25R,4.1000X3.3000*%
%ADD26O,2.1000X1.1000*%
%ADD27R,2.6000X1.8000*%
%ADD28R,1.7500X0.7500*%
%ADD29R,1.4000X0.8000*%
%ADD30C,2.1000*%
%ADD31C,2.4000*%
D21*
X381500Y387000D02*
D03*
X352500D02*
D03*
X190500Y335000D02*
D03*
X219500D02*
D03*
X190500Y355000D02*
D03*
X219500D02*
D03*
X191000Y375000D02*
D03*
X220000D02*
D03*
X191000Y395000D02*
D03*
X220000D02*
D03*
X252000Y112500D02*
D03*
X281000D02*
D03*
X329500Y111000D02*
D03*
X300500D02*
D03*
X296000Y88750D02*
D03*
X325000D02*
D03*
X250500Y198000D02*
D03*
X279500D02*
D03*
D22*
X335500Y387000D02*
D03*
X304500D02*
D03*
D23*
X80000Y55500D02*
D03*
Y24500D02*
D03*
D24*
X100000Y54500D02*
D03*
Y25500D02*
D03*
X190250Y132000D02*
D03*
Y161000D02*
D03*
X305000Y159500D02*
D03*
Y130500D02*
D03*
X325000Y159500D02*
D03*
Y130500D02*
D03*
X346000Y85500D02*
D03*
Y114500D02*
D03*
X215000Y90500D02*
D03*
Y119500D02*
D03*
X190250Y87000D02*
D03*
Y116000D02*
D03*
X165000Y161000D02*
D03*
Y132000D02*
D03*
X144000Y161000D02*
D03*
Y132000D02*
D03*
D25*
X285000Y352000D02*
D03*
Y268000D02*
D03*
D26*
X332000Y225000D02*
D03*
D27*
X225000D02*
D03*
X265000D02*
D03*
D28*
X216750Y135950D02*
D03*
Y148650D02*
D03*
Y161350D02*
D03*
Y174050D02*
D03*
X273250Y135950D02*
D03*
Y148650D02*
D03*
Y161350D02*
D03*
Y174050D02*
D03*
D29*
X124500Y143000D02*
D03*
Y162000D02*
D03*
X105000Y143000D02*
D03*
Y162000D02*
D03*
D30*
X197700Y25000D02*
D03*
X172300D02*
D03*
X370000Y470000D02*
D03*
Y30000D02*
D03*
X30000D02*
D03*
Y470000D02*
D03*
X223100Y25000D02*
D03*
X248500D02*
D03*
D31*
X50000Y160000D02*
D03*
Y110000D02*
D03*
X200000Y451000D02*
D03*
X150000D02*
D03*
M02*
