G04*
G04 #@! TF.GenerationSoftware,Altium Limited,Altium Designer,22.7.1 (60)*
G04*
G04 Layer_Color=32896*
%FSLAX44Y44*%
%MOMM*%
G71*
G04*
G04 #@! TF.SameCoordinates,B907E7F6-3D8B-4148-802C-DA242210B7AD*
G04*
G04*
G04 #@! TF.FilePolarity,Positive*
G04*
G01*
G75*
%ADD33C,0.5000*%
G36*
X83050Y46979D02*
X83443D01*
Y46949D01*
X83654D01*
Y46919D01*
X83836D01*
Y46889D01*
X83956D01*
Y46859D01*
X84077D01*
Y46828D01*
X84168D01*
Y46798D01*
X84289D01*
Y46768D01*
X84379D01*
Y46738D01*
X84440D01*
Y46708D01*
X84530D01*
Y46677D01*
X84621D01*
Y46647D01*
X84682D01*
Y46617D01*
X84742D01*
Y46587D01*
X84802D01*
Y46556D01*
X84863D01*
Y46526D01*
X84923D01*
Y46496D01*
X84984D01*
Y46466D01*
X85044D01*
Y46435D01*
X85105D01*
Y46405D01*
X85135D01*
Y46375D01*
X85195D01*
Y46345D01*
X85225D01*
Y46315D01*
X85286D01*
Y46284D01*
X85316D01*
Y46254D01*
X85377D01*
Y46224D01*
X85407D01*
Y46194D01*
X85437D01*
Y46164D01*
X85497D01*
Y46133D01*
X85527D01*
Y46103D01*
X85558D01*
Y46073D01*
X85588D01*
Y46043D01*
X85618D01*
Y46013D01*
X85679D01*
Y45982D01*
X85709D01*
Y45952D01*
X85739D01*
Y45922D01*
X85769D01*
Y45892D01*
X85800D01*
Y45862D01*
X85830D01*
Y45831D01*
X85860D01*
Y45801D01*
X85890D01*
Y45771D01*
X85920D01*
Y45741D01*
X85950D01*
Y45710D01*
X85981D01*
Y45680D01*
X86011D01*
Y45650D01*
X86041D01*
Y45620D01*
X86071D01*
Y45559D01*
X86102D01*
Y45529D01*
X86132D01*
Y45499D01*
X86162D01*
Y45438D01*
X86192D01*
Y45408D01*
X86222D01*
Y45378D01*
X86253D01*
Y45529D01*
X86222D01*
Y45650D01*
X86192D01*
Y45771D01*
X86162D01*
Y45922D01*
X86132D01*
Y46043D01*
X86102D01*
Y46164D01*
X86071D01*
Y46284D01*
X86041D01*
Y46405D01*
X86011D01*
Y46526D01*
X85981D01*
Y46647D01*
X85950D01*
Y46708D01*
X89999D01*
Y46677D01*
X90029D01*
Y46556D01*
X90060D01*
Y46435D01*
X90090D01*
Y46315D01*
X90120D01*
Y46194D01*
X90150D01*
Y46073D01*
X90181D01*
Y45952D01*
X90211D01*
Y45831D01*
X90241D01*
Y45710D01*
X90271D01*
Y45590D01*
X90301D01*
Y45469D01*
X90331D01*
Y45348D01*
X90362D01*
Y45227D01*
X90392D01*
Y45106D01*
X90422D01*
Y44985D01*
X90452D01*
Y44865D01*
X90483D01*
Y44744D01*
X90513D01*
Y44623D01*
X90543D01*
Y44502D01*
X90573D01*
Y44381D01*
X90604D01*
Y44260D01*
X90634D01*
Y44139D01*
X90664D01*
Y44019D01*
X90694D01*
Y43898D01*
X90724D01*
Y43777D01*
X90754D01*
Y43656D01*
X90785D01*
Y43535D01*
X90815D01*
Y43414D01*
X90845D01*
Y43293D01*
X90875D01*
Y43172D01*
X90906D01*
Y43052D01*
X90936D01*
Y42931D01*
X90966D01*
Y42810D01*
X90996D01*
Y42689D01*
X91026D01*
Y42568D01*
X91057D01*
Y42447D01*
X91087D01*
Y42326D01*
X91117D01*
Y42206D01*
X91147D01*
Y42085D01*
X91178D01*
Y41964D01*
X91208D01*
Y41843D01*
X91238D01*
Y41722D01*
X91268D01*
Y41601D01*
X91298D01*
Y41480D01*
X91329D01*
Y41360D01*
X91359D01*
Y41239D01*
X91389D01*
Y41118D01*
X91419D01*
Y40997D01*
X91449D01*
Y40906D01*
X91480D01*
Y40786D01*
X91510D01*
Y40665D01*
X91540D01*
Y40544D01*
X91570D01*
Y40423D01*
X91601D01*
Y40302D01*
X91631D01*
Y40181D01*
X91661D01*
Y40060D01*
X91691D01*
Y39940D01*
X91721D01*
Y39819D01*
X91752D01*
Y39698D01*
X91782D01*
Y39577D01*
X91812D01*
Y39456D01*
X91842D01*
Y39335D01*
X91873D01*
Y39214D01*
X91903D01*
Y39094D01*
X91933D01*
Y38973D01*
X91963D01*
Y38852D01*
X91993D01*
Y38731D01*
X92023D01*
Y38610D01*
X92054D01*
Y38489D01*
X92084D01*
Y38368D01*
X92114D01*
Y38248D01*
X92144D01*
Y38127D01*
X92175D01*
Y38006D01*
X92205D01*
Y37885D01*
X92235D01*
Y37764D01*
X92265D01*
Y37643D01*
X92295D01*
Y37522D01*
X92326D01*
Y37402D01*
X92356D01*
Y37281D01*
X92386D01*
Y37160D01*
X92416D01*
Y37039D01*
X92446D01*
Y36918D01*
X92477D01*
Y36797D01*
X92507D01*
Y36676D01*
X92537D01*
Y36556D01*
X92567D01*
Y36435D01*
X92598D01*
Y36314D01*
X92628D01*
Y36193D01*
X92658D01*
Y36072D01*
X92688D01*
Y35951D01*
X92718D01*
Y35921D01*
X88670D01*
Y36042D01*
X88640D01*
Y36163D01*
X88609D01*
Y36284D01*
X88579D01*
Y36405D01*
X88549D01*
Y36525D01*
X88519D01*
Y36646D01*
X88489D01*
Y36767D01*
X88458D01*
Y36888D01*
X88428D01*
Y37009D01*
X88398D01*
Y37130D01*
X88368D01*
Y37250D01*
X88337D01*
Y37371D01*
X88307D01*
Y37492D01*
X88277D01*
Y37613D01*
X88247D01*
Y37734D01*
X88217D01*
Y37855D01*
X88186D01*
Y37976D01*
X88156D01*
Y38096D01*
X88126D01*
Y38217D01*
X88096D01*
Y38338D01*
X88066D01*
Y38459D01*
X88035D01*
Y38580D01*
X88005D01*
Y38701D01*
X87975D01*
Y38822D01*
X87945D01*
Y38942D01*
X87914D01*
Y39063D01*
X87884D01*
Y39184D01*
X87854D01*
Y39305D01*
X87824D01*
Y39426D01*
X87794D01*
Y39547D01*
X87763D01*
Y39668D01*
X87733D01*
Y39788D01*
X87703D01*
Y39909D01*
X87673D01*
Y40030D01*
X87642D01*
Y40151D01*
X87612D01*
Y40272D01*
X87582D01*
Y40393D01*
X87552D01*
Y40514D01*
X87522D01*
Y40634D01*
X87491D01*
Y40755D01*
X87461D01*
Y40876D01*
X87431D01*
Y40997D01*
X87401D01*
Y41118D01*
X87371D01*
Y41239D01*
X87340D01*
Y41360D01*
X87310D01*
Y41480D01*
X87280D01*
Y41601D01*
X87250D01*
Y41722D01*
X87219D01*
Y41843D01*
X87189D01*
Y41964D01*
X87159D01*
Y42085D01*
X87129D01*
Y42206D01*
X87099D01*
Y42326D01*
X87069D01*
Y42447D01*
X87038D01*
Y42568D01*
X87008D01*
Y42689D01*
X86978D01*
Y42810D01*
X86948D01*
Y42931D01*
X86917D01*
Y43052D01*
X86887D01*
Y43142D01*
X86857D01*
Y43263D01*
X86827D01*
Y43354D01*
X86797D01*
Y43414D01*
X86766D01*
Y43475D01*
X86736D01*
Y43535D01*
X86706D01*
Y43595D01*
X86676D01*
Y43656D01*
X86645D01*
Y43686D01*
X86615D01*
Y43747D01*
X86585D01*
Y43777D01*
X86555D01*
Y43837D01*
X86525D01*
Y43867D01*
X86494D01*
Y43898D01*
X86464D01*
Y43928D01*
X86434D01*
Y43958D01*
X86404D01*
Y43988D01*
X86374D01*
Y44019D01*
X86343D01*
Y44049D01*
X86283D01*
Y44079D01*
X86253D01*
Y44109D01*
X86192D01*
Y44139D01*
X86132D01*
Y44170D01*
X86071D01*
Y44200D01*
X86011D01*
Y44230D01*
X85920D01*
Y44260D01*
X85800D01*
Y44290D01*
X85588D01*
Y44321D01*
X85256D01*
Y44290D01*
X85044D01*
Y44260D01*
X84953D01*
Y44230D01*
X84893D01*
Y44200D01*
X84833D01*
Y44170D01*
X84772D01*
Y44139D01*
X84742D01*
Y44109D01*
X84712D01*
Y44079D01*
X84682D01*
Y44049D01*
X84651D01*
Y44019D01*
X84621D01*
Y43958D01*
X84591D01*
Y43867D01*
X84561D01*
Y43777D01*
X84530D01*
Y43323D01*
X84561D01*
Y43142D01*
X84591D01*
Y43021D01*
X84621D01*
Y42901D01*
X84651D01*
Y42780D01*
X84682D01*
Y42659D01*
X84712D01*
Y42538D01*
X84742D01*
Y42417D01*
X84772D01*
Y42296D01*
X84802D01*
Y42175D01*
X84833D01*
Y42055D01*
X84863D01*
Y41934D01*
X84893D01*
Y41813D01*
X84923D01*
Y41692D01*
X84953D01*
Y41571D01*
X84984D01*
Y41450D01*
X85014D01*
Y41329D01*
X85044D01*
Y41209D01*
X85074D01*
Y41088D01*
X85105D01*
Y40967D01*
X85135D01*
Y40846D01*
X85165D01*
Y40725D01*
X85195D01*
Y40604D01*
X85225D01*
Y40483D01*
X85256D01*
Y40363D01*
X85286D01*
Y40242D01*
X85316D01*
Y40121D01*
X85346D01*
Y40000D01*
X85377D01*
Y39879D01*
X85407D01*
Y39758D01*
X85437D01*
Y39637D01*
X85467D01*
Y39517D01*
X85497D01*
Y39396D01*
X85527D01*
Y39275D01*
X85558D01*
Y39154D01*
X85588D01*
Y39033D01*
X85618D01*
Y38912D01*
X85648D01*
Y38791D01*
X85679D01*
Y38671D01*
X85709D01*
Y38550D01*
X85739D01*
Y38429D01*
X85769D01*
Y38308D01*
X85800D01*
Y38187D01*
X85830D01*
Y38066D01*
X85860D01*
Y37945D01*
X85890D01*
Y37825D01*
X85920D01*
Y37704D01*
X85950D01*
Y37583D01*
X85981D01*
Y37462D01*
X86011D01*
Y37341D01*
X86041D01*
Y37220D01*
X86071D01*
Y37099D01*
X86102D01*
Y36979D01*
X86132D01*
Y36858D01*
X86162D01*
Y36737D01*
X86192D01*
Y36616D01*
X86222D01*
Y36525D01*
X86253D01*
Y36405D01*
X86283D01*
Y36284D01*
X86313D01*
Y36163D01*
X86343D01*
Y36042D01*
X86374D01*
Y35921D01*
X82355D01*
Y36042D01*
X82325D01*
Y36163D01*
X82295D01*
Y36284D01*
X82264D01*
Y36405D01*
X82234D01*
Y36525D01*
X82204D01*
Y36646D01*
X82174D01*
Y36767D01*
X82144D01*
Y36888D01*
X82113D01*
Y37009D01*
X82083D01*
Y37130D01*
X82053D01*
Y37250D01*
X82023D01*
Y37371D01*
X81993D01*
Y37492D01*
X81962D01*
Y37613D01*
X81932D01*
Y37734D01*
X81902D01*
Y37855D01*
X81872D01*
Y37976D01*
X81841D01*
Y38096D01*
X81811D01*
Y38217D01*
X81781D01*
Y38338D01*
X81751D01*
Y38459D01*
X81721D01*
Y38580D01*
X81690D01*
Y38701D01*
X81660D01*
Y38822D01*
X81630D01*
Y38942D01*
X81600D01*
Y39063D01*
X81569D01*
Y39184D01*
X81539D01*
Y39305D01*
X81509D01*
Y39426D01*
X81479D01*
Y39547D01*
X81449D01*
Y39668D01*
X81419D01*
Y39788D01*
X81388D01*
Y39909D01*
X81358D01*
Y40030D01*
X81328D01*
Y40151D01*
X81298D01*
Y40272D01*
X81267D01*
Y40393D01*
X81237D01*
Y40514D01*
X81207D01*
Y40634D01*
X81177D01*
Y40755D01*
X81146D01*
Y40876D01*
X81116D01*
Y40997D01*
X81086D01*
Y41118D01*
X81056D01*
Y41239D01*
X81026D01*
Y41360D01*
X80996D01*
Y41480D01*
X80965D01*
Y41601D01*
X80935D01*
Y41722D01*
X80905D01*
Y41843D01*
X80875D01*
Y41964D01*
X80844D01*
Y42085D01*
X80814D01*
Y42206D01*
X80784D01*
Y42326D01*
X80754D01*
Y42447D01*
X80723D01*
Y42568D01*
X80693D01*
Y42659D01*
X80663D01*
Y42780D01*
X80633D01*
Y42901D01*
X80603D01*
Y43021D01*
X80573D01*
Y43142D01*
X80542D01*
Y43233D01*
X80512D01*
Y43323D01*
X80482D01*
Y43414D01*
X80452D01*
Y43475D01*
X80421D01*
Y43535D01*
X80391D01*
Y43595D01*
X80361D01*
Y43626D01*
X80331D01*
Y43686D01*
X80301D01*
Y43716D01*
X80270D01*
Y43777D01*
X80240D01*
Y43807D01*
X80210D01*
Y43837D01*
X80180D01*
Y43898D01*
X80149D01*
Y43928D01*
X80119D01*
Y43958D01*
X80089D01*
Y43988D01*
X80029D01*
Y44019D01*
X79998D01*
Y44049D01*
X79968D01*
Y44079D01*
X79908D01*
Y44109D01*
X79878D01*
Y44139D01*
X79817D01*
Y44170D01*
X79727D01*
Y44200D01*
X79666D01*
Y44230D01*
X79575D01*
Y44260D01*
X79455D01*
Y44290D01*
X79243D01*
Y44321D01*
X78911D01*
Y44290D01*
X78699D01*
Y44260D01*
X78609D01*
Y44230D01*
X78518D01*
Y44200D01*
X78457D01*
Y44170D01*
X78427D01*
Y44139D01*
X78397D01*
Y44109D01*
X78367D01*
Y44079D01*
X78337D01*
Y44049D01*
X78306D01*
Y44019D01*
X78276D01*
Y43958D01*
X78246D01*
Y43898D01*
X78216D01*
Y43807D01*
X78186D01*
Y43293D01*
X78216D01*
Y43142D01*
X78246D01*
Y42991D01*
X78276D01*
Y42870D01*
X78306D01*
Y42750D01*
X78337D01*
Y42629D01*
X78367D01*
Y42508D01*
X78397D01*
Y42387D01*
X78427D01*
Y42266D01*
X78457D01*
Y42145D01*
X78488D01*
Y42024D01*
X78518D01*
Y41904D01*
X78548D01*
Y41783D01*
X78578D01*
Y41662D01*
X78609D01*
Y41541D01*
X78639D01*
Y41420D01*
X78669D01*
Y41299D01*
X78699D01*
Y41178D01*
X78729D01*
Y41058D01*
X78760D01*
Y40937D01*
X78790D01*
Y40816D01*
X78820D01*
Y40695D01*
X78850D01*
Y40574D01*
X78881D01*
Y40453D01*
X78911D01*
Y40332D01*
X78941D01*
Y40212D01*
X78971D01*
Y40091D01*
X79001D01*
Y39970D01*
X79032D01*
Y39849D01*
X79062D01*
Y39728D01*
X79092D01*
Y39607D01*
X79122D01*
Y39486D01*
X79152D01*
Y39365D01*
X79183D01*
Y39245D01*
X79213D01*
Y39124D01*
X79243D01*
Y39003D01*
X79273D01*
Y38882D01*
X79303D01*
Y38761D01*
X79334D01*
Y38640D01*
X79364D01*
Y38519D01*
X79394D01*
Y38399D01*
X79424D01*
Y38278D01*
X79455D01*
Y38157D01*
X79485D01*
Y38036D01*
X79515D01*
Y37915D01*
X79545D01*
Y37794D01*
X79575D01*
Y37673D01*
X79606D01*
Y37553D01*
X79636D01*
Y37432D01*
X79666D01*
Y37311D01*
X79696D01*
Y37190D01*
X79727D01*
Y37069D01*
X79757D01*
Y36948D01*
X79787D01*
Y36827D01*
X79817D01*
Y36707D01*
X79847D01*
Y36586D01*
X79878D01*
Y36465D01*
X79908D01*
Y36344D01*
X79938D01*
Y36223D01*
X79968D01*
Y36102D01*
X79998D01*
Y35982D01*
X80029D01*
Y35921D01*
X77974D01*
Y35951D01*
X77763D01*
Y35982D01*
X77611D01*
Y36012D01*
X77491D01*
Y36042D01*
X77370D01*
Y36072D01*
X77279D01*
Y36102D01*
X77189D01*
Y36133D01*
X77128D01*
Y36163D01*
X77068D01*
Y36193D01*
X76977D01*
Y36223D01*
X76917D01*
Y36253D01*
X76856D01*
Y36284D01*
X76796D01*
Y36314D01*
X76765D01*
Y36344D01*
X76705D01*
Y36374D01*
X76645D01*
Y36405D01*
X76614D01*
Y36435D01*
X76554D01*
Y36465D01*
X76524D01*
Y36495D01*
X76494D01*
Y36525D01*
X76433D01*
Y36556D01*
X76403D01*
Y36586D01*
X76373D01*
Y36616D01*
X76343D01*
Y36646D01*
X76282D01*
Y36676D01*
X76252D01*
Y36707D01*
X76222D01*
Y36737D01*
X76192D01*
Y36767D01*
X76161D01*
Y36797D01*
X76131D01*
Y36827D01*
X76101D01*
Y36858D01*
X76071D01*
Y36888D01*
X76040D01*
Y36918D01*
X76010D01*
Y36979D01*
X75980D01*
Y37009D01*
X75950D01*
Y37039D01*
X75919D01*
Y37069D01*
X75889D01*
Y37130D01*
X75859D01*
Y37160D01*
X75829D01*
Y37220D01*
X75799D01*
Y37250D01*
X75768D01*
Y37311D01*
X75738D01*
Y37371D01*
X75708D01*
Y37432D01*
X75678D01*
Y37492D01*
X75648D01*
Y37553D01*
X75617D01*
Y37643D01*
X75587D01*
Y37704D01*
X75557D01*
Y37825D01*
X75527D01*
Y37915D01*
X75497D01*
Y38036D01*
X75466D01*
Y38157D01*
X75436D01*
Y38278D01*
X75406D01*
Y38399D01*
X75376D01*
Y38519D01*
X75346D01*
Y38640D01*
X75315D01*
Y38761D01*
X75285D01*
Y38882D01*
X75255D01*
Y39003D01*
X75225D01*
Y39124D01*
X75194D01*
Y39245D01*
X75164D01*
Y39365D01*
X75134D01*
Y39486D01*
X75104D01*
Y39607D01*
X75073D01*
Y39728D01*
X75043D01*
Y39849D01*
X75013D01*
Y39970D01*
X74983D01*
Y40091D01*
X74953D01*
Y40212D01*
X74922D01*
Y40332D01*
X74892D01*
Y40453D01*
X74862D01*
Y40574D01*
X74832D01*
Y40695D01*
X74802D01*
Y40816D01*
X74771D01*
Y40937D01*
X74741D01*
Y41058D01*
X74711D01*
Y41178D01*
X74681D01*
Y41299D01*
X74651D01*
Y41420D01*
X74620D01*
Y41541D01*
X74590D01*
Y41662D01*
X74560D01*
Y41783D01*
X74530D01*
Y41904D01*
X74500D01*
Y42024D01*
X74469D01*
Y42145D01*
X74439D01*
Y42266D01*
X74409D01*
Y42387D01*
X74379D01*
Y42508D01*
X74348D01*
Y42629D01*
X74318D01*
Y42750D01*
X74288D01*
Y42870D01*
X74258D01*
Y42991D01*
X74228D01*
Y43112D01*
X74197D01*
Y43233D01*
X74167D01*
Y43354D01*
X74137D01*
Y43475D01*
X74107D01*
Y43595D01*
X74076D01*
Y43716D01*
X74046D01*
Y43837D01*
X74016D01*
Y43958D01*
X73986D01*
Y44079D01*
X73956D01*
Y44230D01*
X73925D01*
Y44381D01*
X73895D01*
Y44562D01*
X73865D01*
Y44834D01*
X73835D01*
Y45378D01*
X73865D01*
Y45590D01*
X73895D01*
Y45710D01*
X73925D01*
Y45801D01*
X73956D01*
Y45892D01*
X73986D01*
Y45982D01*
X74016D01*
Y46043D01*
X74046D01*
Y46073D01*
X74076D01*
Y46133D01*
X74107D01*
Y46164D01*
X74137D01*
Y46224D01*
X74167D01*
Y46254D01*
X74197D01*
Y46284D01*
X74228D01*
Y46315D01*
X74258D01*
Y46345D01*
X74288D01*
Y46375D01*
X74318D01*
Y46405D01*
X74348D01*
Y46435D01*
X74379D01*
Y46466D01*
X74439D01*
Y46496D01*
X74469D01*
Y46526D01*
X74530D01*
Y46556D01*
X74590D01*
Y46587D01*
X74620D01*
Y46617D01*
X74681D01*
Y46647D01*
X74741D01*
Y46677D01*
X74802D01*
Y46708D01*
X74892D01*
Y46738D01*
X74953D01*
Y46768D01*
X75043D01*
Y46798D01*
X75134D01*
Y46828D01*
X75225D01*
Y46859D01*
X75376D01*
Y46889D01*
X75497D01*
Y46919D01*
X75678D01*
Y46949D01*
X75919D01*
Y46979D01*
X76494D01*
Y47010D01*
X76554D01*
Y46979D01*
X77068D01*
Y46949D01*
X77309D01*
Y46919D01*
X77491D01*
Y46889D01*
X77642D01*
Y46859D01*
X77763D01*
Y46828D01*
X77853D01*
Y46798D01*
X77974D01*
Y46768D01*
X78065D01*
Y46738D01*
X78155D01*
Y46708D01*
X78246D01*
Y46677D01*
X78337D01*
Y46647D01*
X78427D01*
Y46617D01*
X78488D01*
Y46587D01*
X78548D01*
Y46556D01*
X78609D01*
Y46526D01*
X78669D01*
Y46496D01*
X78729D01*
Y46466D01*
X78790D01*
Y46435D01*
X78850D01*
Y46405D01*
X78911D01*
Y46375D01*
X78941D01*
Y46345D01*
X79001D01*
Y46315D01*
X79062D01*
Y46284D01*
X79092D01*
Y46254D01*
X79152D01*
Y46224D01*
X79183D01*
Y46194D01*
X79243D01*
Y46164D01*
X79273D01*
Y46133D01*
X79334D01*
Y46103D01*
X79364D01*
Y46073D01*
X79394D01*
Y46043D01*
X79424D01*
Y46013D01*
X79455D01*
Y45982D01*
X79515D01*
Y45952D01*
X79545D01*
Y45922D01*
X79575D01*
Y45892D01*
X79606D01*
Y45862D01*
X79636D01*
Y45831D01*
X79666D01*
Y45801D01*
X79696D01*
Y45771D01*
X79727D01*
Y45741D01*
X79757D01*
Y45710D01*
X79787D01*
Y45680D01*
X79817D01*
Y45650D01*
X79847D01*
Y45620D01*
X79878D01*
Y45590D01*
X79908D01*
Y45559D01*
X79938D01*
Y45529D01*
X79968D01*
Y45499D01*
X79998D01*
Y45469D01*
X80029D01*
Y45408D01*
X80059D01*
Y45378D01*
X80089D01*
Y45348D01*
X80119D01*
Y45408D01*
X80149D01*
Y45559D01*
X80180D01*
Y45650D01*
X80210D01*
Y45741D01*
X80240D01*
Y45831D01*
X80270D01*
Y45892D01*
X80301D01*
Y45952D01*
X80331D01*
Y46013D01*
X80361D01*
Y46073D01*
X80391D01*
Y46103D01*
X80421D01*
Y46164D01*
X80452D01*
Y46194D01*
X80482D01*
Y46224D01*
X80512D01*
Y46284D01*
X80542D01*
Y46315D01*
X80573D01*
Y46345D01*
X80603D01*
Y46375D01*
X80633D01*
Y46405D01*
X80663D01*
Y46435D01*
X80693D01*
Y46466D01*
X80723D01*
Y46496D01*
X80784D01*
Y46526D01*
X80814D01*
Y46556D01*
X80844D01*
Y46587D01*
X80905D01*
Y46617D01*
X80935D01*
Y46647D01*
X80996D01*
Y46677D01*
X81056D01*
Y46708D01*
X81116D01*
Y46738D01*
X81177D01*
Y46768D01*
X81267D01*
Y46798D01*
X81358D01*
Y46828D01*
X81449D01*
Y46859D01*
X81539D01*
Y46889D01*
X81660D01*
Y46919D01*
X81841D01*
Y46949D01*
X82053D01*
Y46979D01*
X82476D01*
Y47010D01*
X83050D01*
Y46979D01*
D02*
G37*
G36*
X102326Y46647D02*
X102357D01*
Y46526D01*
X102387D01*
Y46405D01*
X102417D01*
Y46284D01*
X102447D01*
Y46164D01*
X102478D01*
Y46043D01*
X102508D01*
Y45922D01*
X102538D01*
Y45801D01*
X102568D01*
Y45680D01*
X102598D01*
Y45559D01*
X102629D01*
Y45438D01*
X102659D01*
Y45318D01*
X102689D01*
Y45197D01*
X102719D01*
Y45076D01*
X102750D01*
Y44955D01*
X102780D01*
Y44834D01*
X102810D01*
Y44713D01*
X102840D01*
Y44592D01*
X102870D01*
Y44472D01*
X102900D01*
Y44351D01*
X102931D01*
Y44230D01*
X102961D01*
Y44109D01*
X102991D01*
Y43988D01*
X103021D01*
Y43867D01*
X103052D01*
Y43747D01*
X103082D01*
Y43626D01*
X103112D01*
Y43505D01*
X103142D01*
Y43384D01*
X103172D01*
Y43263D01*
X103203D01*
Y43142D01*
X103233D01*
Y43021D01*
X103263D01*
Y42901D01*
X103293D01*
Y42780D01*
X103323D01*
Y42659D01*
X103354D01*
Y42538D01*
X103384D01*
Y42417D01*
X103414D01*
Y42296D01*
X103444D01*
Y42175D01*
X103475D01*
Y42055D01*
X103505D01*
Y41934D01*
X103535D01*
Y41813D01*
X103565D01*
Y41692D01*
X103595D01*
Y41571D01*
X103626D01*
Y41450D01*
X103656D01*
Y41329D01*
X103686D01*
Y41209D01*
X103716D01*
Y41088D01*
X103747D01*
Y40967D01*
X103777D01*
Y40846D01*
X103807D01*
Y40725D01*
X103837D01*
Y40604D01*
X103867D01*
Y40483D01*
X103898D01*
Y40363D01*
X103928D01*
Y40242D01*
X103958D01*
Y40121D01*
X103988D01*
Y40000D01*
X104018D01*
Y39879D01*
X104049D01*
Y39758D01*
X104079D01*
Y39637D01*
X104109D01*
Y39517D01*
X104139D01*
Y39396D01*
X104170D01*
Y39275D01*
X104200D01*
Y39154D01*
X104230D01*
Y39033D01*
X104260D01*
Y38912D01*
X104290D01*
Y38791D01*
X104321D01*
Y38671D01*
X104351D01*
Y38550D01*
X104381D01*
Y38429D01*
X104411D01*
Y38278D01*
X104441D01*
Y38066D01*
X104472D01*
Y37825D01*
X104502D01*
Y37311D01*
X104472D01*
Y37099D01*
X104441D01*
Y36979D01*
X104411D01*
Y36858D01*
X104381D01*
Y36797D01*
X104351D01*
Y36707D01*
X104321D01*
Y36646D01*
X104290D01*
Y36586D01*
X104260D01*
Y36556D01*
X104230D01*
Y36495D01*
X104200D01*
Y36465D01*
X104170D01*
Y36435D01*
X104139D01*
Y36405D01*
X104109D01*
Y36374D01*
X104079D01*
Y36344D01*
X104049D01*
Y36314D01*
X104018D01*
Y36284D01*
X103988D01*
Y36253D01*
X103958D01*
Y36223D01*
X103898D01*
Y36193D01*
X103867D01*
Y36163D01*
X103837D01*
Y36133D01*
X103777D01*
Y36102D01*
X103747D01*
Y36072D01*
X103686D01*
Y36042D01*
X103626D01*
Y36012D01*
X103565D01*
Y35982D01*
X103505D01*
Y35951D01*
X103444D01*
Y35921D01*
X103384D01*
Y35891D01*
X103323D01*
Y35861D01*
X103233D01*
Y35831D01*
X103142D01*
Y35800D01*
X103021D01*
Y35770D01*
X102900D01*
Y35740D01*
X102750D01*
Y35710D01*
X102568D01*
Y35679D01*
X102236D01*
Y35649D01*
X101481D01*
Y35679D01*
X101178D01*
Y35710D01*
X100967D01*
Y35740D01*
X100786D01*
Y35770D01*
X100665D01*
Y35800D01*
X100544D01*
Y35831D01*
X100423D01*
Y35861D01*
X100332D01*
Y35891D01*
X100242D01*
Y35921D01*
X100151D01*
Y35951D01*
X100060D01*
Y35982D01*
X100000D01*
Y36012D01*
X99940D01*
Y36042D01*
X99879D01*
Y36072D01*
X99789D01*
Y36102D01*
X99728D01*
Y36133D01*
X99668D01*
Y36163D01*
X99637D01*
Y36193D01*
X99577D01*
Y36223D01*
X99517D01*
Y36253D01*
X99486D01*
Y36284D01*
X99426D01*
Y36314D01*
X99396D01*
Y36344D01*
X99335D01*
Y36374D01*
X99275D01*
Y36405D01*
X99245D01*
Y36435D01*
X99214D01*
Y36465D01*
X99154D01*
Y36495D01*
X99124D01*
Y36525D01*
X99094D01*
Y36556D01*
X99063D01*
Y36586D01*
X99003D01*
Y36616D01*
X98973D01*
Y36646D01*
X98942D01*
Y36676D01*
X98912D01*
Y36707D01*
X98882D01*
Y36737D01*
X98852D01*
Y36767D01*
X98822D01*
Y36797D01*
X98791D01*
Y36827D01*
X98761D01*
Y36858D01*
X98731D01*
Y36888D01*
X98701D01*
Y36918D01*
X98671D01*
Y36948D01*
X98640D01*
Y36979D01*
X98610D01*
Y37009D01*
X98580D01*
Y37039D01*
X98550D01*
Y37099D01*
X98519D01*
Y37130D01*
X98489D01*
Y37160D01*
X98459D01*
Y37190D01*
X98429D01*
Y37220D01*
X98368D01*
Y37190D01*
X98399D01*
Y37069D01*
X98429D01*
Y36948D01*
X98459D01*
Y36827D01*
X98489D01*
Y36707D01*
X98519D01*
Y36586D01*
X98550D01*
Y36435D01*
X98580D01*
Y36314D01*
X98610D01*
Y36193D01*
X98640D01*
Y36072D01*
X98671D01*
Y35951D01*
X98701D01*
Y35921D01*
X94682D01*
Y35982D01*
X94652D01*
Y36102D01*
X94622D01*
Y36223D01*
X94592D01*
Y36344D01*
X94562D01*
Y36465D01*
X94531D01*
Y36586D01*
X94501D01*
Y36707D01*
X94471D01*
Y36827D01*
X94441D01*
Y36948D01*
X94410D01*
Y37069D01*
X94380D01*
Y37190D01*
X94350D01*
Y37311D01*
X94320D01*
Y37432D01*
X94290D01*
Y37553D01*
X94259D01*
Y37673D01*
X94229D01*
Y37794D01*
X94199D01*
Y37915D01*
X94169D01*
Y38036D01*
X94138D01*
Y38157D01*
X94108D01*
Y38278D01*
X94078D01*
Y38399D01*
X94048D01*
Y38519D01*
X94018D01*
Y38640D01*
X93987D01*
Y38761D01*
X93957D01*
Y38882D01*
X93927D01*
Y39003D01*
X93897D01*
Y39124D01*
X93867D01*
Y39245D01*
X93836D01*
Y39365D01*
X93806D01*
Y39486D01*
X93776D01*
Y39607D01*
X93746D01*
Y39728D01*
X93715D01*
Y39849D01*
X93685D01*
Y39970D01*
X93655D01*
Y40091D01*
X93625D01*
Y40212D01*
X93595D01*
Y40332D01*
X93564D01*
Y40453D01*
X93534D01*
Y40574D01*
X93504D01*
Y40695D01*
X93474D01*
Y40816D01*
X93444D01*
Y40937D01*
X93413D01*
Y41058D01*
X93383D01*
Y41178D01*
X93353D01*
Y41299D01*
X93323D01*
Y41420D01*
X93293D01*
Y41541D01*
X93262D01*
Y41662D01*
X93232D01*
Y41783D01*
X93202D01*
Y41904D01*
X93172D01*
Y42024D01*
X93141D01*
Y42145D01*
X93111D01*
Y42266D01*
X93081D01*
Y42387D01*
X93051D01*
Y42508D01*
X93021D01*
Y42629D01*
X92990D01*
Y42750D01*
X92960D01*
Y42870D01*
X92930D01*
Y42991D01*
X92900D01*
Y43112D01*
X92870D01*
Y43233D01*
X92839D01*
Y43354D01*
X92809D01*
Y43475D01*
X92779D01*
Y43595D01*
X92749D01*
Y43716D01*
X92718D01*
Y43837D01*
X92688D01*
Y43958D01*
X92658D01*
Y44079D01*
X92628D01*
Y44200D01*
X92598D01*
Y44321D01*
X92567D01*
Y44441D01*
X92537D01*
Y44562D01*
X92507D01*
Y44683D01*
X92477D01*
Y44804D01*
X92446D01*
Y44925D01*
X92416D01*
Y45046D01*
X92386D01*
Y45167D01*
X92356D01*
Y45287D01*
X92326D01*
Y45408D01*
X92295D01*
Y45529D01*
X92265D01*
Y45650D01*
X92235D01*
Y45771D01*
X92205D01*
Y45892D01*
X92175D01*
Y46013D01*
X92144D01*
Y46133D01*
X92114D01*
Y46254D01*
X92084D01*
Y46375D01*
X92054D01*
Y46496D01*
X92023D01*
Y46617D01*
X91993D01*
Y46677D01*
X92023D01*
Y46708D01*
X96012D01*
Y46617D01*
X96042D01*
Y46496D01*
X96072D01*
Y46375D01*
X96102D01*
Y46254D01*
X96133D01*
Y46133D01*
X96163D01*
Y46013D01*
X96193D01*
Y45892D01*
X96223D01*
Y45771D01*
X96253D01*
Y45650D01*
X96284D01*
Y45529D01*
X96314D01*
Y45408D01*
X96344D01*
Y45287D01*
X96374D01*
Y45167D01*
X96404D01*
Y45046D01*
X96435D01*
Y44925D01*
X96465D01*
Y44804D01*
X96495D01*
Y44683D01*
X96525D01*
Y44562D01*
X96556D01*
Y44441D01*
X96586D01*
Y44321D01*
X96616D01*
Y44200D01*
X96646D01*
Y44079D01*
X96677D01*
Y43958D01*
X96707D01*
Y43837D01*
X96737D01*
Y43716D01*
X96767D01*
Y43595D01*
X96797D01*
Y43475D01*
X96827D01*
Y43384D01*
X96858D01*
Y43263D01*
X96888D01*
Y43142D01*
X96918D01*
Y43021D01*
X96948D01*
Y42901D01*
X96979D01*
Y42780D01*
X97009D01*
Y42659D01*
X97039D01*
Y42538D01*
X97069D01*
Y42417D01*
X97100D01*
Y42296D01*
X97130D01*
Y42175D01*
X97160D01*
Y42055D01*
X97190D01*
Y41934D01*
X97220D01*
Y41813D01*
X97250D01*
Y41692D01*
X97281D01*
Y41571D01*
X97311D01*
Y41450D01*
X97341D01*
Y41329D01*
X97371D01*
Y41209D01*
X97402D01*
Y41088D01*
X97432D01*
Y40967D01*
X97462D01*
Y40846D01*
X97492D01*
Y40725D01*
X97522D01*
Y40604D01*
X97553D01*
Y40483D01*
X97583D01*
Y40363D01*
X97613D01*
Y40242D01*
X97643D01*
Y40121D01*
X97674D01*
Y40000D01*
X97704D01*
Y39879D01*
X97734D01*
Y39758D01*
X97764D01*
Y39637D01*
X97794D01*
Y39517D01*
X97825D01*
Y39426D01*
X97855D01*
Y39335D01*
X97885D01*
Y39245D01*
X97915D01*
Y39184D01*
X97945D01*
Y39124D01*
X97976D01*
Y39063D01*
X98006D01*
Y39003D01*
X98036D01*
Y38942D01*
X98066D01*
Y38912D01*
X98097D01*
Y38852D01*
X98127D01*
Y38822D01*
X98157D01*
Y38791D01*
X98187D01*
Y38761D01*
X98217D01*
Y38731D01*
X98248D01*
Y38671D01*
X98278D01*
Y38640D01*
X98308D01*
Y38610D01*
X98368D01*
Y38580D01*
X98399D01*
Y38550D01*
X98429D01*
Y38519D01*
X98489D01*
Y38489D01*
X98550D01*
Y38459D01*
X98610D01*
Y38429D01*
X98671D01*
Y38399D01*
X98731D01*
Y38368D01*
X98852D01*
Y38338D01*
X98973D01*
Y38308D01*
X99607D01*
Y38338D01*
X99698D01*
Y38368D01*
X99789D01*
Y38399D01*
X99849D01*
Y38429D01*
X99909D01*
Y38459D01*
X99940D01*
Y38489D01*
X99970D01*
Y38519D01*
X100000D01*
Y38550D01*
X100030D01*
Y38580D01*
X100060D01*
Y38640D01*
X100091D01*
Y38701D01*
X100121D01*
Y38791D01*
X100151D01*
Y38942D01*
X100181D01*
Y39154D01*
X100151D01*
Y39365D01*
X100121D01*
Y39517D01*
X100091D01*
Y39637D01*
X100060D01*
Y39758D01*
X100030D01*
Y39879D01*
X100000D01*
Y40000D01*
X99970D01*
Y40121D01*
X99940D01*
Y40242D01*
X99909D01*
Y40363D01*
X99879D01*
Y40483D01*
X99849D01*
Y40604D01*
X99819D01*
Y40725D01*
X99789D01*
Y40846D01*
X99758D01*
Y40967D01*
X99728D01*
Y41088D01*
X99698D01*
Y41209D01*
X99668D01*
Y41329D01*
X99637D01*
Y41450D01*
X99607D01*
Y41571D01*
X99577D01*
Y41692D01*
X99547D01*
Y41813D01*
X99517D01*
Y41934D01*
X99486D01*
Y42055D01*
X99456D01*
Y42175D01*
X99426D01*
Y42296D01*
X99396D01*
Y42417D01*
X99366D01*
Y42538D01*
X99335D01*
Y42659D01*
X99305D01*
Y42780D01*
X99275D01*
Y42901D01*
X99245D01*
Y43021D01*
X99214D01*
Y43142D01*
X99184D01*
Y43263D01*
X99154D01*
Y43384D01*
X99124D01*
Y43505D01*
X99094D01*
Y43626D01*
X99063D01*
Y43747D01*
X99033D01*
Y43867D01*
X99003D01*
Y43988D01*
X98973D01*
Y44109D01*
X98942D01*
Y44230D01*
X98912D01*
Y44351D01*
X98882D01*
Y44472D01*
X98852D01*
Y44592D01*
X98822D01*
Y44713D01*
X98791D01*
Y44834D01*
X98761D01*
Y44955D01*
X98731D01*
Y45076D01*
X98701D01*
Y45197D01*
X98671D01*
Y45318D01*
X98640D01*
Y45438D01*
X98610D01*
Y45559D01*
X98580D01*
Y45680D01*
X98550D01*
Y45801D01*
X98519D01*
Y45922D01*
X98489D01*
Y46043D01*
X98459D01*
Y46164D01*
X98429D01*
Y46284D01*
X98399D01*
Y46405D01*
X98368D01*
Y46466D01*
Y46496D01*
Y46526D01*
X98338D01*
Y46617D01*
X98308D01*
Y46677D01*
X98338D01*
Y46708D01*
X102326D01*
Y46647D01*
D02*
G37*
G36*
X127767Y50122D02*
X128190D01*
Y50091D01*
X128401D01*
Y50061D01*
X128582D01*
Y50031D01*
X128733D01*
Y50001D01*
X128884D01*
Y49971D01*
X128975D01*
Y49940D01*
X129096D01*
Y49910D01*
X129187D01*
Y49880D01*
X129277D01*
Y49850D01*
X129368D01*
Y49819D01*
X129459D01*
Y49789D01*
X129549D01*
Y49759D01*
X129610D01*
Y49729D01*
X129700D01*
Y49699D01*
X129761D01*
Y49668D01*
X129821D01*
Y49638D01*
X129881D01*
Y49608D01*
X129972D01*
Y49578D01*
X130033D01*
Y49548D01*
X130093D01*
Y49517D01*
X130154D01*
Y49487D01*
X130214D01*
Y49457D01*
X130244D01*
Y49427D01*
X130304D01*
Y49397D01*
X130365D01*
Y49366D01*
X130425D01*
Y49336D01*
X130456D01*
Y49306D01*
X130516D01*
Y49276D01*
X130546D01*
Y49245D01*
X130607D01*
Y49215D01*
X130637D01*
Y49185D01*
X130697D01*
Y49155D01*
X130728D01*
Y49125D01*
X130758D01*
Y49094D01*
X130818D01*
Y49064D01*
X130848D01*
Y49034D01*
X130879D01*
Y49004D01*
X130939D01*
Y48973D01*
X130969D01*
Y48943D01*
X130999D01*
Y48913D01*
X131060D01*
Y48883D01*
X131090D01*
Y48853D01*
X131120D01*
Y48822D01*
X131151D01*
Y48792D01*
X131181D01*
Y48762D01*
X131211D01*
Y48732D01*
X131271D01*
Y48702D01*
X131302D01*
Y48671D01*
X131332D01*
Y48641D01*
X131362D01*
Y48611D01*
X131392D01*
Y48581D01*
X131422D01*
Y48551D01*
X131453D01*
Y48520D01*
X131483D01*
Y48490D01*
X131513D01*
Y48460D01*
X131543D01*
Y48430D01*
X131573D01*
Y48399D01*
X131604D01*
Y48369D01*
X131634D01*
Y48309D01*
X131664D01*
Y48279D01*
X131694D01*
Y48248D01*
X131725D01*
Y48218D01*
X131755D01*
Y48188D01*
X131785D01*
Y48158D01*
X131815D01*
Y48097D01*
X131845D01*
Y48067D01*
X131876D01*
Y48037D01*
X131906D01*
Y48007D01*
X131936D01*
Y47946D01*
X131966D01*
Y47916D01*
X131996D01*
Y47886D01*
X132027D01*
Y47825D01*
X132057D01*
Y47795D01*
X132087D01*
Y47735D01*
X132117D01*
Y47705D01*
X132148D01*
Y47674D01*
X132178D01*
Y47614D01*
X132208D01*
Y47584D01*
X132238D01*
Y47523D01*
X132268D01*
Y47463D01*
X132299D01*
Y47433D01*
X132329D01*
Y47372D01*
X132359D01*
Y47312D01*
X132389D01*
Y47251D01*
X132420D01*
Y47221D01*
X132450D01*
Y47161D01*
X132480D01*
Y47100D01*
X132510D01*
Y47040D01*
X132540D01*
Y46979D01*
X132571D01*
Y46919D01*
X132601D01*
Y46859D01*
X132631D01*
Y46828D01*
X132661D01*
Y46768D01*
X132691D01*
Y46708D01*
X132722D01*
Y46647D01*
X132752D01*
Y46587D01*
X132782D01*
Y46526D01*
X132812D01*
Y46466D01*
X132843D01*
Y46405D01*
X132873D01*
Y46375D01*
X132903D01*
Y46315D01*
X132933D01*
Y46254D01*
X132963D01*
Y46194D01*
X132994D01*
Y46133D01*
X133024D01*
Y46073D01*
X133054D01*
Y46013D01*
X133084D01*
Y45982D01*
X133114D01*
Y45922D01*
X133145D01*
Y45862D01*
X133175D01*
Y45801D01*
X133205D01*
Y45741D01*
X133235D01*
Y45680D01*
X133265D01*
Y45620D01*
X133296D01*
Y45559D01*
X133326D01*
Y45529D01*
X133356D01*
Y45469D01*
X133386D01*
Y45408D01*
X133417D01*
Y45348D01*
X133447D01*
Y45287D01*
X133477D01*
Y45227D01*
X133507D01*
Y45167D01*
X133537D01*
Y45136D01*
X133568D01*
Y45076D01*
X133598D01*
Y45016D01*
X133628D01*
Y44955D01*
X133658D01*
Y44895D01*
X133688D01*
Y44834D01*
X133719D01*
Y44774D01*
X133749D01*
Y44744D01*
X133779D01*
Y44683D01*
X133809D01*
Y44623D01*
X133840D01*
Y44562D01*
X133870D01*
Y44502D01*
X133900D01*
Y44441D01*
X133930D01*
Y44381D01*
X133960D01*
Y44321D01*
X133991D01*
Y44290D01*
X134021D01*
Y44230D01*
X134051D01*
Y44170D01*
X134081D01*
Y44109D01*
X134111D01*
Y44049D01*
X134142D01*
Y43988D01*
X134172D01*
Y43928D01*
X134202D01*
Y43898D01*
X134232D01*
Y43837D01*
X134263D01*
Y43777D01*
X134293D01*
Y43716D01*
X134323D01*
Y43656D01*
X134353D01*
Y43595D01*
X134383D01*
Y43535D01*
X134414D01*
Y43505D01*
X134444D01*
Y43444D01*
X134474D01*
Y43384D01*
X134504D01*
Y43323D01*
X134535D01*
Y43263D01*
X134565D01*
Y43203D01*
X134595D01*
Y43142D01*
X134625D01*
Y43082D01*
X134655D01*
Y43052D01*
X134685D01*
Y42991D01*
X134716D01*
Y42931D01*
X134746D01*
Y42870D01*
X134776D01*
Y42810D01*
X134806D01*
Y42750D01*
X134837D01*
Y42689D01*
X134867D01*
Y42659D01*
X134897D01*
Y42598D01*
X134927D01*
Y42538D01*
X134958D01*
Y42477D01*
X134988D01*
Y42417D01*
X135018D01*
Y42357D01*
X135048D01*
Y42296D01*
X135078D01*
Y42266D01*
X135108D01*
Y42206D01*
X135139D01*
Y42145D01*
X135169D01*
Y42085D01*
X135199D01*
Y42024D01*
X135229D01*
Y41964D01*
X135260D01*
Y41904D01*
X135290D01*
Y41843D01*
X135320D01*
Y41813D01*
X135350D01*
Y41752D01*
X135380D01*
Y41692D01*
X135411D01*
Y41631D01*
X135441D01*
Y41571D01*
X135471D01*
Y41511D01*
X135501D01*
Y41450D01*
X135532D01*
Y41420D01*
X135562D01*
Y41360D01*
X135592D01*
Y41299D01*
X135622D01*
Y41239D01*
X135652D01*
Y41178D01*
X135683D01*
Y41118D01*
X135713D01*
Y41058D01*
X135743D01*
Y40997D01*
X135773D01*
Y40967D01*
X135803D01*
Y40906D01*
X135834D01*
Y40846D01*
X135864D01*
Y40786D01*
X135894D01*
Y40725D01*
X135924D01*
Y40665D01*
X135955D01*
Y40604D01*
X135985D01*
Y40574D01*
X136015D01*
Y40514D01*
X136045D01*
Y40453D01*
X136075D01*
Y40393D01*
X136106D01*
Y40332D01*
X136136D01*
Y40272D01*
X136166D01*
Y40212D01*
X136196D01*
Y40181D01*
X136226D01*
Y40121D01*
X136257D01*
Y40060D01*
X136287D01*
Y40000D01*
X136317D01*
Y39940D01*
X136347D01*
Y39879D01*
X136377D01*
Y39819D01*
X136408D01*
Y39758D01*
X136438D01*
Y39728D01*
X136468D01*
Y39668D01*
X136498D01*
Y39607D01*
X136529D01*
Y39547D01*
X136559D01*
Y39486D01*
X136589D01*
Y39426D01*
X136619D01*
Y39365D01*
X136649D01*
Y39335D01*
X136680D01*
Y39275D01*
X136710D01*
Y39214D01*
X136740D01*
Y39154D01*
X136770D01*
Y39094D01*
X136800D01*
Y39033D01*
X136831D01*
Y38973D01*
X136861D01*
Y38942D01*
X136891D01*
Y38882D01*
X136921D01*
Y38822D01*
X136952D01*
Y38761D01*
X136982D01*
Y38701D01*
X137012D01*
Y38640D01*
X137042D01*
Y38580D01*
X137072D01*
Y38519D01*
X137103D01*
Y38489D01*
X137133D01*
Y38429D01*
X137163D01*
Y38368D01*
X137193D01*
Y38308D01*
X137224D01*
Y38248D01*
X137254D01*
Y38187D01*
X137284D01*
Y38127D01*
X137314D01*
Y38096D01*
X137344D01*
Y38036D01*
X137375D01*
Y37976D01*
X137405D01*
Y37915D01*
X137435D01*
Y37855D01*
X137465D01*
Y37794D01*
X137495D01*
Y37734D01*
X137526D01*
Y37673D01*
X137556D01*
Y37643D01*
X137586D01*
Y37583D01*
X137616D01*
Y37522D01*
X137647D01*
Y37462D01*
X137677D01*
Y37402D01*
X137707D01*
Y37341D01*
X137737D01*
Y37281D01*
X137767D01*
Y37250D01*
X137798D01*
Y37190D01*
X137828D01*
Y37130D01*
X137858D01*
Y37069D01*
X137888D01*
Y37009D01*
X137918D01*
Y36948D01*
X137949D01*
Y36888D01*
X137979D01*
Y36858D01*
X138009D01*
Y36797D01*
X138039D01*
Y36737D01*
X138069D01*
Y36676D01*
X138100D01*
Y36616D01*
X138130D01*
Y36556D01*
X138160D01*
Y36495D01*
X138190D01*
Y36435D01*
X138221D01*
Y36405D01*
X138251D01*
Y36344D01*
X138281D01*
Y36284D01*
X138311D01*
Y36223D01*
X138341D01*
Y36163D01*
X138372D01*
Y36102D01*
X138402D01*
Y36042D01*
X138432D01*
Y36012D01*
X138462D01*
Y35951D01*
X138492D01*
Y35921D01*
X133870D01*
Y35951D01*
X133840D01*
Y36012D01*
X133809D01*
Y36102D01*
X133779D01*
Y36163D01*
X133749D01*
Y36223D01*
X133719D01*
Y36284D01*
X133688D01*
Y36374D01*
X133658D01*
Y36435D01*
X133628D01*
Y36495D01*
X133598D01*
Y36586D01*
X133568D01*
Y36646D01*
X133537D01*
Y36707D01*
X133507D01*
Y36767D01*
X133477D01*
Y36858D01*
X133447D01*
Y36918D01*
X133417D01*
Y36979D01*
X133386D01*
Y37069D01*
X133356D01*
Y37130D01*
X133326D01*
Y37190D01*
X133296D01*
Y37250D01*
X133265D01*
Y37341D01*
X133235D01*
Y37402D01*
X133205D01*
Y37462D01*
X133175D01*
Y37522D01*
X133145D01*
Y37613D01*
X133114D01*
Y37673D01*
X133084D01*
Y37734D01*
X133054D01*
Y37825D01*
X133024D01*
Y37885D01*
X132994D01*
Y37945D01*
X132963D01*
Y38006D01*
X132933D01*
Y38096D01*
X132903D01*
Y38157D01*
X132873D01*
Y38217D01*
X132843D01*
Y38308D01*
X132812D01*
Y38368D01*
X132782D01*
Y38399D01*
X129338D01*
Y37825D01*
X129368D01*
Y37281D01*
X129398D01*
Y36737D01*
X129428D01*
Y36163D01*
X129459D01*
Y35921D01*
X124836D01*
Y36616D01*
X124866D01*
Y37432D01*
X124896D01*
Y38217D01*
X124926D01*
Y39033D01*
X124957D01*
Y39819D01*
X124987D01*
Y40604D01*
X125017D01*
Y41420D01*
X125047D01*
Y42206D01*
X125077D01*
Y43021D01*
X125108D01*
Y43807D01*
X125138D01*
Y44592D01*
X125168D01*
Y45408D01*
X125198D01*
Y45862D01*
Y45892D01*
Y46194D01*
X125229D01*
Y47010D01*
X125259D01*
Y47795D01*
X125289D01*
Y48611D01*
X125319D01*
Y49397D01*
X125350D01*
Y50122D01*
X125380D01*
Y50152D01*
X127767D01*
Y50122D01*
D02*
G37*
G36*
X120394D02*
X120425D01*
Y50061D01*
X120455D01*
Y49940D01*
X120485D01*
Y49819D01*
X120515D01*
Y49699D01*
X120545D01*
Y49578D01*
X120576D01*
Y49457D01*
X120606D01*
Y49336D01*
X120636D01*
Y49215D01*
X120666D01*
Y49094D01*
X120696D01*
Y48973D01*
X120727D01*
Y48853D01*
X120757D01*
Y48732D01*
X120787D01*
Y48611D01*
X120817D01*
Y48490D01*
X120848D01*
Y48369D01*
X120878D01*
Y48248D01*
X120908D01*
Y48127D01*
X120938D01*
Y48007D01*
X120968D01*
Y47886D01*
X120999D01*
Y47765D01*
X121029D01*
Y47644D01*
X121059D01*
Y47523D01*
X121089D01*
Y47402D01*
X121119D01*
Y47281D01*
X121150D01*
Y47161D01*
X121180D01*
Y47040D01*
X121210D01*
Y46919D01*
X121240D01*
Y46798D01*
X121271D01*
Y46677D01*
X121301D01*
Y46556D01*
X121331D01*
Y46435D01*
X121361D01*
Y46315D01*
X121391D01*
Y46194D01*
X121422D01*
Y46073D01*
X121452D01*
Y45952D01*
X121482D01*
Y45831D01*
X121512D01*
Y45710D01*
X121543D01*
Y45590D01*
X121573D01*
Y45469D01*
X121603D01*
Y45348D01*
X121633D01*
Y45227D01*
X121663D01*
Y45106D01*
X121694D01*
Y44985D01*
X121724D01*
Y44865D01*
X121754D01*
Y44744D01*
X121784D01*
Y44623D01*
X121814D01*
Y44502D01*
X121845D01*
Y44381D01*
X121875D01*
Y44260D01*
X121905D01*
Y44139D01*
X121935D01*
Y44019D01*
X121966D01*
Y43898D01*
X121996D01*
Y43777D01*
X122026D01*
Y43656D01*
X122056D01*
Y43535D01*
X122086D01*
Y43414D01*
X122116D01*
Y43293D01*
X122147D01*
Y43172D01*
X122177D01*
Y43052D01*
X122207D01*
Y42931D01*
X122237D01*
Y42810D01*
X122268D01*
Y42689D01*
X122298D01*
Y42568D01*
X122328D01*
Y42447D01*
X122358D01*
Y42326D01*
X122388D01*
Y42206D01*
X122419D01*
Y42085D01*
X122449D01*
Y41964D01*
X122479D01*
Y41843D01*
X122509D01*
Y41722D01*
X122540D01*
Y41601D01*
X122570D01*
Y41480D01*
X122600D01*
Y41360D01*
X122630D01*
Y41239D01*
X122660D01*
Y41118D01*
X122691D01*
Y40997D01*
X122721D01*
Y40876D01*
X122751D01*
Y40755D01*
X122781D01*
Y40634D01*
X122811D01*
Y40514D01*
X122842D01*
Y40393D01*
X122872D01*
Y40272D01*
X122902D01*
Y40151D01*
X122932D01*
Y40030D01*
X122963D01*
Y39909D01*
X122993D01*
Y39788D01*
X123023D01*
Y39668D01*
X123053D01*
Y39547D01*
X123083D01*
Y39426D01*
X123114D01*
Y39305D01*
X123144D01*
Y39184D01*
X123174D01*
Y39063D01*
X123204D01*
Y38942D01*
X123234D01*
Y38822D01*
X123265D01*
Y38701D01*
X123295D01*
Y38580D01*
X123325D01*
Y38459D01*
X123355D01*
Y38338D01*
X123386D01*
Y38217D01*
X123416D01*
Y38096D01*
X123446D01*
Y37976D01*
X123476D01*
Y37855D01*
X123506D01*
Y37734D01*
X123537D01*
Y37613D01*
X123567D01*
Y37492D01*
X123597D01*
Y37371D01*
X123627D01*
Y37250D01*
X123658D01*
Y37130D01*
X123688D01*
Y37009D01*
X123718D01*
Y36888D01*
X123748D01*
Y36767D01*
X123778D01*
Y36646D01*
X123808D01*
Y36525D01*
X123839D01*
Y36405D01*
X123869D01*
Y36284D01*
X123899D01*
Y36163D01*
X123929D01*
Y36042D01*
X123960D01*
Y35921D01*
X119971D01*
Y35951D01*
X119941D01*
Y36072D01*
X119911D01*
Y36193D01*
X119881D01*
Y36314D01*
X119851D01*
Y36435D01*
X119820D01*
Y36556D01*
X119790D01*
Y36676D01*
X119760D01*
Y36797D01*
X119730D01*
Y36918D01*
X119699D01*
Y37039D01*
X119669D01*
Y37160D01*
X119639D01*
Y37281D01*
X119609D01*
Y37402D01*
X119579D01*
Y37522D01*
X119548D01*
Y37643D01*
X119518D01*
Y37764D01*
X119488D01*
Y37885D01*
X119458D01*
Y38006D01*
X119427D01*
Y38127D01*
X119397D01*
Y38248D01*
X119367D01*
Y38368D01*
X119337D01*
Y38489D01*
X119307D01*
Y38610D01*
X119276D01*
Y38731D01*
X119246D01*
Y38852D01*
X119216D01*
Y38973D01*
X119186D01*
Y39063D01*
X119156D01*
Y39184D01*
X119125D01*
Y39305D01*
X119095D01*
Y39426D01*
X119065D01*
Y39547D01*
X119035D01*
Y39668D01*
X119004D01*
Y39788D01*
X118974D01*
Y39909D01*
X118944D01*
Y40030D01*
X118914D01*
Y40151D01*
X118884D01*
Y40272D01*
X118854D01*
Y40393D01*
X118823D01*
Y40514D01*
X118793D01*
Y40634D01*
X118763D01*
Y40755D01*
X118733D01*
Y40876D01*
X118702D01*
Y40997D01*
X118672D01*
Y41118D01*
X118642D01*
Y41148D01*
Y41178D01*
Y41239D01*
X118612D01*
Y41360D01*
X118581D01*
Y41480D01*
X118551D01*
Y41601D01*
X118521D01*
Y41722D01*
X118491D01*
Y41843D01*
X118461D01*
Y41964D01*
X118430D01*
Y42085D01*
X118400D01*
Y42206D01*
X118370D01*
Y42326D01*
X118340D01*
Y42447D01*
X118310D01*
Y42568D01*
X118279D01*
Y42689D01*
X118249D01*
Y42810D01*
X118219D01*
Y42931D01*
X118189D01*
Y43052D01*
X118159D01*
Y43172D01*
X118128D01*
Y43293D01*
X118098D01*
Y43414D01*
X118068D01*
Y43535D01*
X118038D01*
Y43656D01*
X118007D01*
Y43777D01*
X117977D01*
Y43898D01*
X117947D01*
Y44019D01*
X117917D01*
Y44139D01*
X117887D01*
Y44260D01*
X117856D01*
Y44381D01*
X117826D01*
Y44502D01*
X117796D01*
Y44623D01*
X117766D01*
Y44744D01*
X117736D01*
Y44865D01*
X117705D01*
Y44985D01*
X117675D01*
Y45106D01*
X117645D01*
Y45227D01*
X117615D01*
Y45348D01*
X117584D01*
Y45469D01*
X117554D01*
Y45590D01*
X117524D01*
Y45710D01*
X117494D01*
Y45831D01*
X117464D01*
Y45952D01*
X117433D01*
Y46073D01*
X117403D01*
Y46194D01*
X117373D01*
Y46315D01*
X117343D01*
Y46435D01*
X117312D01*
Y46526D01*
X117282D01*
Y46647D01*
X117252D01*
Y46768D01*
X117222D01*
Y46889D01*
X117192D01*
Y47010D01*
X117162D01*
Y47130D01*
X117131D01*
Y47251D01*
X117101D01*
Y47372D01*
X117071D01*
Y47493D01*
X117041D01*
Y47614D01*
X117010D01*
Y47735D01*
X116980D01*
Y47856D01*
X116950D01*
Y47976D01*
X116920D01*
Y48097D01*
X116890D01*
Y48218D01*
X116859D01*
Y48339D01*
X116829D01*
Y48460D01*
X116799D01*
Y48581D01*
X116769D01*
Y48702D01*
X116739D01*
Y48822D01*
X116708D01*
Y48943D01*
X116678D01*
Y49064D01*
X116648D01*
Y49185D01*
X116618D01*
Y49306D01*
X116587D01*
Y49427D01*
X116557D01*
Y49548D01*
X116527D01*
Y49668D01*
X116497D01*
Y49789D01*
X116467D01*
Y49910D01*
X116436D01*
Y50031D01*
X116406D01*
Y50152D01*
X120394D01*
Y50122D01*
D02*
G37*
G36*
X108158Y46677D02*
X108188D01*
Y46587D01*
X108218D01*
Y46466D01*
X108248D01*
Y46345D01*
X108279D01*
Y46224D01*
X108309D01*
Y46103D01*
X108339D01*
Y45982D01*
X108369D01*
Y45862D01*
X108399D01*
Y45741D01*
X108430D01*
Y45620D01*
X108460D01*
Y45499D01*
X108490D01*
Y45378D01*
X108520D01*
Y45257D01*
X108551D01*
Y45136D01*
X108581D01*
Y45016D01*
X108611D01*
Y44895D01*
X108641D01*
Y44774D01*
X108671D01*
Y44653D01*
X108702D01*
Y44532D01*
X108732D01*
Y44411D01*
X108762D01*
Y44290D01*
X108792D01*
Y44170D01*
X108822D01*
Y44049D01*
X108853D01*
Y43928D01*
X108883D01*
Y43807D01*
X108913D01*
Y43686D01*
X108943D01*
Y43565D01*
X108974D01*
Y43444D01*
X109004D01*
Y43323D01*
X109034D01*
Y43203D01*
X109064D01*
Y43082D01*
X109094D01*
Y42961D01*
X109125D01*
Y42840D01*
X109155D01*
Y42719D01*
X109185D01*
Y42598D01*
X109215D01*
Y42477D01*
X109246D01*
Y42357D01*
X109276D01*
Y42236D01*
X109306D01*
Y42115D01*
X109336D01*
Y41994D01*
X109366D01*
Y41873D01*
X109396D01*
Y41752D01*
X109427D01*
Y41631D01*
X109457D01*
Y41511D01*
X109487D01*
Y41390D01*
X109517D01*
Y41269D01*
X109548D01*
Y41148D01*
X109578D01*
Y41027D01*
X109608D01*
Y40906D01*
X109638D01*
Y40786D01*
X109668D01*
Y40665D01*
X109699D01*
Y40544D01*
X109729D01*
Y40423D01*
X109759D01*
Y40302D01*
X109789D01*
Y40181D01*
X109819D01*
Y40060D01*
X109850D01*
Y39940D01*
X109880D01*
Y39819D01*
X109910D01*
Y39698D01*
X109940D01*
Y39577D01*
X109971D01*
Y39456D01*
X110001D01*
Y39335D01*
X110031D01*
Y39214D01*
X110061D01*
Y39094D01*
X110091D01*
Y38973D01*
X110122D01*
Y38852D01*
X110152D01*
Y38731D01*
X110182D01*
Y38610D01*
X110212D01*
Y38489D01*
X110243D01*
Y38368D01*
X110273D01*
Y38248D01*
X110303D01*
Y38127D01*
X110333D01*
Y38006D01*
X110363D01*
Y37885D01*
X110394D01*
Y37764D01*
X110424D01*
Y37643D01*
X110454D01*
Y37522D01*
X110484D01*
Y37402D01*
X110514D01*
Y37281D01*
X110545D01*
Y37160D01*
X110575D01*
Y37039D01*
X110605D01*
Y36918D01*
X110635D01*
Y36797D01*
X110666D01*
Y36676D01*
X110696D01*
Y36556D01*
X110726D01*
Y36435D01*
X110756D01*
Y36314D01*
X110786D01*
Y36193D01*
X110817D01*
Y36072D01*
X110847D01*
Y35951D01*
X110877D01*
Y35921D01*
X106859D01*
Y35982D01*
X106828D01*
Y36102D01*
X106798D01*
Y36223D01*
X106768D01*
Y36344D01*
X106738D01*
Y36465D01*
X106707D01*
Y36586D01*
X106677D01*
Y36707D01*
X106647D01*
Y36827D01*
X106617D01*
Y36948D01*
X106587D01*
Y37069D01*
X106556D01*
Y37190D01*
X106526D01*
Y37311D01*
X106496D01*
Y37432D01*
X106466D01*
Y37553D01*
X106436D01*
Y37673D01*
X106405D01*
Y37794D01*
X106375D01*
Y37915D01*
X106345D01*
Y38036D01*
X106315D01*
Y38157D01*
X106285D01*
Y38278D01*
X106254D01*
Y38399D01*
X106224D01*
Y38519D01*
X106194D01*
Y38640D01*
X106164D01*
Y38761D01*
X106133D01*
Y38852D01*
X106103D01*
Y38973D01*
X106073D01*
Y39094D01*
X106043D01*
Y39214D01*
X106012D01*
Y39335D01*
X105982D01*
Y39456D01*
X105952D01*
Y39577D01*
X105922D01*
Y39698D01*
X105892D01*
Y39819D01*
X105862D01*
Y39940D01*
X105831D01*
Y40060D01*
X105801D01*
Y40181D01*
X105771D01*
Y40302D01*
X105741D01*
Y40423D01*
X105710D01*
Y40544D01*
X105680D01*
Y40665D01*
X105650D01*
Y40786D01*
X105620D01*
Y40906D01*
X105590D01*
Y41027D01*
X105559D01*
Y41148D01*
X105529D01*
Y41269D01*
X105499D01*
Y41390D01*
X105469D01*
Y41511D01*
X105438D01*
Y41631D01*
X105408D01*
Y41752D01*
X105378D01*
Y41873D01*
X105348D01*
Y41994D01*
X105318D01*
Y42115D01*
X105287D01*
Y42236D01*
X105257D01*
Y42357D01*
X105227D01*
Y42477D01*
X105197D01*
Y42598D01*
X105167D01*
Y42719D01*
X105136D01*
Y42840D01*
X105106D01*
Y42961D01*
X105076D01*
Y43082D01*
X105046D01*
Y43203D01*
X105015D01*
Y43323D01*
X104985D01*
Y43444D01*
X104955D01*
Y43565D01*
X104925D01*
Y43686D01*
X104895D01*
Y43807D01*
X104864D01*
Y43837D01*
Y43928D01*
X104834D01*
Y44049D01*
X104804D01*
Y44170D01*
X104774D01*
Y44290D01*
X104744D01*
Y44411D01*
X104713D01*
Y44532D01*
X104683D01*
Y44653D01*
X104653D01*
Y44774D01*
X104623D01*
Y44895D01*
X104593D01*
Y45016D01*
X104562D01*
Y45136D01*
X104532D01*
Y45257D01*
X104502D01*
Y45378D01*
X104472D01*
Y45499D01*
X104441D01*
Y45620D01*
X104411D01*
Y45741D01*
X104381D01*
Y45862D01*
X104351D01*
Y45982D01*
X104321D01*
Y46103D01*
X104290D01*
Y46224D01*
X104260D01*
Y46345D01*
X104230D01*
Y46466D01*
X104200D01*
Y46587D01*
X104170D01*
Y46708D01*
X108158D01*
Y46677D01*
D02*
G37*
G36*
X114503Y49910D02*
X114533D01*
Y49789D01*
X114563D01*
Y49668D01*
X114593D01*
Y49548D01*
X114623D01*
Y49427D01*
X114654D01*
Y49306D01*
X114684D01*
Y49185D01*
X114714D01*
Y49064D01*
X114744D01*
Y48943D01*
X114775D01*
Y48822D01*
X114805D01*
Y48702D01*
X114835D01*
Y48581D01*
X114865D01*
Y48460D01*
X114895D01*
Y48339D01*
X114926D01*
Y48248D01*
X114956D01*
Y48127D01*
X114986D01*
Y48007D01*
X115016D01*
Y47886D01*
X115047D01*
Y47765D01*
X115077D01*
Y47644D01*
X115107D01*
Y47523D01*
X115137D01*
Y47402D01*
X115167D01*
Y47281D01*
X115198D01*
Y47161D01*
X115228D01*
Y47040D01*
X115258D01*
Y46919D01*
X115288D01*
Y46798D01*
X115318D01*
Y46677D01*
X115349D01*
Y46556D01*
X115379D01*
Y46435D01*
X115409D01*
Y46315D01*
X115439D01*
Y46194D01*
X115470D01*
Y46073D01*
X115500D01*
Y45952D01*
X115530D01*
Y45831D01*
X115560D01*
Y45710D01*
X115590D01*
Y45590D01*
X115621D01*
Y45469D01*
X115651D01*
Y45348D01*
X115681D01*
Y45227D01*
X115711D01*
Y45136D01*
X115741D01*
Y45016D01*
X115772D01*
Y44895D01*
X115802D01*
Y44774D01*
X115832D01*
Y44653D01*
X115862D01*
Y44532D01*
X115892D01*
Y44411D01*
X115923D01*
Y44290D01*
X115953D01*
Y44170D01*
X115983D01*
Y44049D01*
X116013D01*
Y43928D01*
X116044D01*
Y43807D01*
X116074D01*
Y43686D01*
X116104D01*
Y43565D01*
X116134D01*
Y43444D01*
X116164D01*
Y43323D01*
X116195D01*
Y43203D01*
X116225D01*
Y43082D01*
X116255D01*
Y42961D01*
X116285D01*
Y42840D01*
X116315D01*
Y42719D01*
X116346D01*
Y42598D01*
X116376D01*
Y42477D01*
X116406D01*
Y42357D01*
X116436D01*
Y42236D01*
X116467D01*
Y42115D01*
X116497D01*
Y42024D01*
X116527D01*
Y41904D01*
X116557D01*
Y41783D01*
X116587D01*
Y41662D01*
X116618D01*
Y41541D01*
X116648D01*
Y41420D01*
X116678D01*
Y41299D01*
X116708D01*
Y41178D01*
X116739D01*
Y41058D01*
X116769D01*
Y40937D01*
X116799D01*
Y40816D01*
X116829D01*
Y40695D01*
X116859D01*
Y40574D01*
X116890D01*
Y40453D01*
X116920D01*
Y40332D01*
X116950D01*
Y40212D01*
X116980D01*
Y40091D01*
X117010D01*
Y39970D01*
X117041D01*
Y39849D01*
X117071D01*
Y39728D01*
X117101D01*
Y39607D01*
X117131D01*
Y39486D01*
X117162D01*
Y39365D01*
X117192D01*
Y39245D01*
X117222D01*
Y39124D01*
X117252D01*
Y39003D01*
X117282D01*
Y38912D01*
X117312D01*
Y38791D01*
X117343D01*
Y38671D01*
X117373D01*
Y38550D01*
X117403D01*
Y38429D01*
X117433D01*
Y38308D01*
X117464D01*
Y38157D01*
X117494D01*
Y38006D01*
X117524D01*
Y37794D01*
X117554D01*
Y37009D01*
X117524D01*
Y36888D01*
X117494D01*
Y36767D01*
X117464D01*
Y36707D01*
X117433D01*
Y36646D01*
X117403D01*
Y36586D01*
X117373D01*
Y36525D01*
X117343D01*
Y36495D01*
X117312D01*
Y36465D01*
X117282D01*
Y36405D01*
X117222D01*
Y36374D01*
X117192D01*
Y36344D01*
X117162D01*
Y36314D01*
X117131D01*
Y36284D01*
X117101D01*
Y36253D01*
X117041D01*
Y36223D01*
X117010D01*
Y36193D01*
X116950D01*
Y36163D01*
X116890D01*
Y36133D01*
X116829D01*
Y36102D01*
X116769D01*
Y36072D01*
X116678D01*
Y36042D01*
X116618D01*
Y36012D01*
X116527D01*
Y35982D01*
X116406D01*
Y35951D01*
X116285D01*
Y35921D01*
X116134D01*
Y35891D01*
X115953D01*
Y35861D01*
X115741D01*
Y35831D01*
X115258D01*
Y35800D01*
X113898D01*
Y35831D01*
X113234D01*
Y35861D01*
X112750D01*
Y35891D01*
X112358D01*
Y35951D01*
X112327D01*
Y36072D01*
X112297D01*
Y36193D01*
X112267D01*
Y36314D01*
X112237D01*
Y36435D01*
X112206D01*
Y36556D01*
X112176D01*
Y36676D01*
X112146D01*
Y36737D01*
Y36767D01*
Y36797D01*
X112116D01*
Y36918D01*
X112086D01*
Y37039D01*
X112055D01*
Y37160D01*
X112025D01*
Y37281D01*
X111995D01*
Y37402D01*
X111965D01*
Y37522D01*
X111934D01*
Y37643D01*
X111904D01*
Y37764D01*
X111874D01*
Y37885D01*
X111844D01*
Y38006D01*
X111814D01*
Y38127D01*
X111783D01*
Y38248D01*
X111753D01*
Y38308D01*
X112720D01*
Y38338D01*
X112871D01*
Y38368D01*
X112931D01*
Y38399D01*
X112992D01*
Y38429D01*
X113052D01*
Y38459D01*
X113083D01*
Y38489D01*
X113113D01*
Y38519D01*
X113143D01*
Y38550D01*
X113173D01*
Y38610D01*
X113203D01*
Y38671D01*
X113234D01*
Y38791D01*
X113264D01*
Y38973D01*
X113234D01*
Y39154D01*
X113203D01*
Y39275D01*
X113173D01*
Y39396D01*
X113143D01*
Y39517D01*
X113113D01*
Y39637D01*
X113083D01*
Y39758D01*
X113052D01*
Y39879D01*
X113022D01*
Y40000D01*
X112992D01*
Y40121D01*
X112962D01*
Y40242D01*
X112931D01*
Y40363D01*
X112901D01*
Y40483D01*
X112871D01*
Y40604D01*
X112841D01*
Y40725D01*
X112811D01*
Y40846D01*
X112781D01*
Y40967D01*
X112750D01*
Y41088D01*
X112720D01*
Y41209D01*
X112690D01*
Y41329D01*
X112660D01*
Y41450D01*
X112629D01*
Y41571D01*
X112599D01*
Y41692D01*
X112569D01*
Y41813D01*
X112539D01*
Y41934D01*
X112508D01*
Y42055D01*
X112478D01*
Y42175D01*
X112448D01*
Y42296D01*
X112418D01*
Y42417D01*
X112388D01*
Y42538D01*
X112358D01*
Y42659D01*
X112327D01*
Y42780D01*
X112297D01*
Y42901D01*
X112267D01*
Y43021D01*
X112237D01*
Y43142D01*
X112206D01*
Y43263D01*
X112176D01*
Y43384D01*
X112146D01*
Y43505D01*
X112116D01*
Y43626D01*
X112086D01*
Y43747D01*
X112055D01*
Y43867D01*
X112025D01*
Y43988D01*
X111995D01*
Y44109D01*
X111965D01*
Y44230D01*
X111934D01*
Y44290D01*
X110243D01*
Y44411D01*
X110212D01*
Y44532D01*
X110182D01*
Y44653D01*
X110152D01*
Y44774D01*
X110122D01*
Y44895D01*
X110091D01*
Y45016D01*
X110061D01*
Y45136D01*
X110031D01*
Y45257D01*
X110001D01*
Y45378D01*
X109971D01*
Y45499D01*
X109940D01*
Y45620D01*
X109910D01*
Y45741D01*
X109880D01*
Y45862D01*
X109850D01*
Y45982D01*
X109819D01*
Y46103D01*
X109789D01*
Y46224D01*
X109759D01*
Y46375D01*
X109729D01*
Y46496D01*
X109699D01*
Y46617D01*
X109668D01*
Y46708D01*
X111330D01*
Y46768D01*
X111300D01*
Y46889D01*
X111270D01*
Y47010D01*
X111240D01*
Y47130D01*
X111209D01*
Y47221D01*
X111179D01*
Y47342D01*
X111149D01*
Y47463D01*
X111119D01*
Y47584D01*
X111088D01*
Y47705D01*
X111058D01*
Y47825D01*
X111028D01*
Y47946D01*
X110998D01*
Y48037D01*
X110968D01*
Y48158D01*
X110937D01*
Y48279D01*
X110907D01*
Y48399D01*
X110877D01*
Y48520D01*
X110847D01*
Y48641D01*
X110817D01*
Y48762D01*
X110786D01*
Y48853D01*
X110756D01*
Y48973D01*
X110726D01*
Y49094D01*
X110696D01*
Y49215D01*
X110666D01*
Y49336D01*
X110635D01*
Y49457D01*
X110605D01*
Y49578D01*
X110575D01*
Y49668D01*
X110545D01*
Y49789D01*
X110514D01*
Y49910D01*
X110484D01*
Y50001D01*
X114503D01*
Y49910D01*
D02*
G37*
G36*
X151652Y358370D02*
X151763D01*
X151874Y358343D01*
X151957D01*
X152290Y358287D01*
X152596Y358259D01*
X152734Y358232D01*
X152818D01*
X152873Y358204D01*
X152901D01*
X153262Y358148D01*
X153567Y358065D01*
X153678Y358037D01*
X153789D01*
X153845Y358009D01*
X153872D01*
X154206Y357926D01*
X154483Y357843D01*
X154594Y357815D01*
X154678Y357787D01*
X154733Y357760D01*
X154761D01*
Y355872D01*
X154400Y355983D01*
X154039Y356066D01*
X153734Y356149D01*
X153456Y356233D01*
X153234Y356288D01*
X153040Y356316D01*
X152929Y356344D01*
X152901D01*
X152262Y356455D01*
X151957Y356483D01*
X151707D01*
X151485Y356510D01*
X151180D01*
X150624Y356483D01*
X150152Y356427D01*
X149736Y356316D01*
X149403Y356205D01*
X149153Y356094D01*
X148959Y355983D01*
X148848Y355927D01*
X148820Y355900D01*
X148542Y355650D01*
X148348Y355344D01*
X148209Y355039D01*
X148126Y354706D01*
X148042Y354428D01*
X148015Y354206D01*
Y354039D01*
Y354012D01*
Y353984D01*
X148042Y353512D01*
X148098Y353290D01*
X148126Y353123D01*
X148181Y352957D01*
X148237Y352846D01*
X148265Y352790D01*
Y352762D01*
X148459Y352402D01*
X148681Y352124D01*
X148764Y352013D01*
X148848Y351930D01*
X148903Y351902D01*
X148931Y351874D01*
X149264Y351624D01*
X149597Y351457D01*
X149736Y351402D01*
X149847Y351347D01*
X149930Y351319D01*
X149958D01*
X150430Y351208D01*
X150652Y351180D01*
X150874Y351152D01*
X151041Y351124D01*
X153206D01*
Y349348D01*
X151346D01*
X150708Y349320D01*
X150430Y349292D01*
X150180Y349264D01*
X149986Y349209D01*
X149847Y349181D01*
X149736Y349153D01*
X149708D01*
X149431Y349098D01*
X149181Y349015D01*
X148959Y348931D01*
X148764Y348848D01*
X148598Y348765D01*
X148487Y348709D01*
X148431Y348681D01*
X148403Y348654D01*
X148042Y348376D01*
X147765Y348126D01*
X147682Y347987D01*
X147598Y347904D01*
X147543Y347849D01*
Y347821D01*
X147432Y347626D01*
X147376Y347432D01*
X147265Y347043D01*
Y346904D01*
X147237Y346766D01*
Y346682D01*
Y346655D01*
X147293Y346127D01*
X147321Y345905D01*
X147376Y345711D01*
X147432Y345544D01*
X147459Y345433D01*
X147515Y345350D01*
Y345322D01*
X147626Y345100D01*
X147737Y344933D01*
X148015Y344600D01*
X148126Y344489D01*
X148237Y344406D01*
X148292Y344350D01*
X148320Y344323D01*
X148542Y344184D01*
X148764Y344045D01*
X149236Y343851D01*
X149431Y343767D01*
X149597Y343740D01*
X149708Y343684D01*
X149736D01*
X150069Y343629D01*
X150430Y343573D01*
X150763Y343545D01*
X151096Y343518D01*
X151374Y343490D01*
X152457D01*
X152762Y343518D01*
X153262D01*
X153428Y343545D01*
X153595D01*
X154206Y343629D01*
X154483Y343656D01*
X154733Y343684D01*
X154928Y343712D01*
X155066Y343740D01*
X155177Y343767D01*
X155205D01*
Y341824D01*
X154705Y341768D01*
X154455Y341741D01*
X154233Y341713D01*
X154039D01*
X153900Y341685D01*
X153762D01*
X153151Y341630D01*
X152873D01*
X152596Y341602D01*
X152013D01*
X151374Y341630D01*
X150791Y341657D01*
X150264Y341713D01*
X149819Y341796D01*
X149431Y341880D01*
X149153Y341935D01*
X149070Y341963D01*
X148986D01*
X148959Y341991D01*
X148931D01*
X148459Y342157D01*
X148015Y342351D01*
X147654Y342518D01*
X147321Y342712D01*
X147071Y342851D01*
X146904Y342990D01*
X146765Y343073D01*
X146738Y343101D01*
X146432Y343379D01*
X146155Y343656D01*
X145933Y343934D01*
X145738Y344184D01*
X145599Y344406D01*
X145488Y344572D01*
X145433Y344711D01*
X145405Y344739D01*
X145266Y345100D01*
X145155Y345461D01*
X145072Y345794D01*
X145016Y346099D01*
X144989Y346377D01*
X144961Y346571D01*
Y346710D01*
Y346766D01*
Y347043D01*
X145016Y347321D01*
X145072Y347543D01*
X145127Y347765D01*
X145183Y347932D01*
X145239Y348071D01*
X145266Y348154D01*
X145294Y348182D01*
X145544Y348626D01*
X145683Y348820D01*
X145822Y348987D01*
X145933Y349098D01*
X146016Y349209D01*
X146071Y349264D01*
X146099Y349292D01*
X146460Y349598D01*
X146821Y349847D01*
X146987Y349931D01*
X147099Y349986D01*
X147182Y350042D01*
X147210D01*
X147654Y350236D01*
X147876Y350319D01*
X148070Y350375D01*
X148237Y350403D01*
X148348Y350430D01*
X148431Y350458D01*
X148459D01*
X148015Y350680D01*
X147598Y350930D01*
X147265Y351180D01*
X146987Y351430D01*
X146765Y351624D01*
X146599Y351791D01*
X146488Y351930D01*
X146460Y351957D01*
X146210Y352346D01*
X146044Y352735D01*
X145905Y353123D01*
X145822Y353512D01*
X145766Y353817D01*
X145738Y354095D01*
Y354262D01*
Y354289D01*
Y354317D01*
X145766Y354650D01*
X145794Y354983D01*
X145849Y355261D01*
X145905Y355511D01*
X145988Y355733D01*
X146044Y355872D01*
X146071Y355983D01*
X146099Y356011D01*
X146238Y356288D01*
X146404Y356538D01*
X146571Y356732D01*
X146710Y356927D01*
X146876Y357093D01*
X146987Y357204D01*
X147071Y357260D01*
X147099Y357288D01*
X147348Y357482D01*
X147626Y357649D01*
X147904Y357787D01*
X148181Y357898D01*
X148403Y357982D01*
X148598Y358037D01*
X148709Y358093D01*
X148764D01*
X149153Y358204D01*
X149542Y358259D01*
X149902Y358315D01*
X150264Y358370D01*
X150569D01*
X150819Y358398D01*
X151346D01*
X151652Y358370D01*
D02*
G37*
G36*
X123501D02*
X123612D01*
X123723Y358343D01*
X123806D01*
X124139Y358287D01*
X124445Y358259D01*
X124583Y358232D01*
X124667D01*
X124722Y358204D01*
X124750D01*
X125111Y358148D01*
X125416Y358065D01*
X125527Y358037D01*
X125638D01*
X125694Y358009D01*
X125722D01*
X126055Y357926D01*
X126332Y357843D01*
X126444Y357815D01*
X126527Y357787D01*
X126582Y357760D01*
X126610D01*
Y355872D01*
X126249Y355983D01*
X125888Y356066D01*
X125583Y356149D01*
X125305Y356233D01*
X125083Y356288D01*
X124889Y356316D01*
X124778Y356344D01*
X124750D01*
X124111Y356455D01*
X123806Y356483D01*
X123556D01*
X123334Y356510D01*
X123029D01*
X122473Y356483D01*
X122001Y356427D01*
X121585Y356316D01*
X121252Y356205D01*
X121002Y356094D01*
X120808Y355983D01*
X120697Y355927D01*
X120669Y355900D01*
X120391Y355650D01*
X120197Y355344D01*
X120058Y355039D01*
X119975Y354706D01*
X119892Y354428D01*
X119864Y354206D01*
Y354039D01*
Y354012D01*
Y353984D01*
X119892Y353512D01*
X119947Y353290D01*
X119975Y353123D01*
X120030Y352957D01*
X120086Y352846D01*
X120114Y352790D01*
Y352762D01*
X120308Y352402D01*
X120530Y352124D01*
X120613Y352013D01*
X120697Y351930D01*
X120752Y351902D01*
X120780Y351874D01*
X121113Y351624D01*
X121446Y351457D01*
X121585Y351402D01*
X121696Y351347D01*
X121779Y351319D01*
X121807D01*
X122279Y351208D01*
X122501Y351180D01*
X122723Y351152D01*
X122890Y351124D01*
X125055D01*
Y349348D01*
X123195D01*
X122557Y349320D01*
X122279Y349292D01*
X122029Y349264D01*
X121835Y349209D01*
X121696Y349181D01*
X121585Y349153D01*
X121557D01*
X121280Y349098D01*
X121030Y349015D01*
X120808Y348931D01*
X120613Y348848D01*
X120447Y348765D01*
X120336Y348709D01*
X120280Y348681D01*
X120253Y348654D01*
X119892Y348376D01*
X119614Y348126D01*
X119531Y347987D01*
X119447Y347904D01*
X119392Y347849D01*
Y347821D01*
X119281Y347626D01*
X119225Y347432D01*
X119114Y347043D01*
Y346904D01*
X119087Y346766D01*
Y346682D01*
Y346655D01*
X119142Y346127D01*
X119170Y345905D01*
X119225Y345711D01*
X119281Y345544D01*
X119309Y345433D01*
X119364Y345350D01*
Y345322D01*
X119475Y345100D01*
X119586Y344933D01*
X119864Y344600D01*
X119975Y344489D01*
X120086Y344406D01*
X120141Y344350D01*
X120169Y344323D01*
X120391Y344184D01*
X120613Y344045D01*
X121085Y343851D01*
X121280Y343767D01*
X121446Y343740D01*
X121557Y343684D01*
X121585D01*
X121918Y343629D01*
X122279Y343573D01*
X122612Y343545D01*
X122945Y343518D01*
X123223Y343490D01*
X124306D01*
X124611Y343518D01*
X125111D01*
X125278Y343545D01*
X125444D01*
X126055Y343629D01*
X126332Y343656D01*
X126582Y343684D01*
X126777Y343712D01*
X126915Y343740D01*
X127027Y343767D01*
X127054D01*
Y341824D01*
X126554Y341768D01*
X126305Y341741D01*
X126083Y341713D01*
X125888D01*
X125749Y341685D01*
X125611D01*
X125000Y341630D01*
X124722D01*
X124445Y341602D01*
X123862D01*
X123223Y341630D01*
X122640Y341657D01*
X122113Y341713D01*
X121668Y341796D01*
X121280Y341880D01*
X121002Y341935D01*
X120919Y341963D01*
X120836D01*
X120808Y341991D01*
X120780D01*
X120308Y342157D01*
X119864Y342351D01*
X119503Y342518D01*
X119170Y342712D01*
X118920Y342851D01*
X118753Y342990D01*
X118615Y343073D01*
X118587Y343101D01*
X118281Y343379D01*
X118004Y343656D01*
X117782Y343934D01*
X117587Y344184D01*
X117449Y344406D01*
X117338Y344572D01*
X117282Y344711D01*
X117254Y344739D01*
X117115Y345100D01*
X117004Y345461D01*
X116921Y345794D01*
X116866Y346099D01*
X116838Y346377D01*
X116810Y346571D01*
Y346710D01*
Y346766D01*
Y347043D01*
X116866Y347321D01*
X116921Y347543D01*
X116977Y347765D01*
X117032Y347932D01*
X117088Y348071D01*
X117115Y348154D01*
X117143Y348182D01*
X117393Y348626D01*
X117532Y348820D01*
X117671Y348987D01*
X117782Y349098D01*
X117865Y349209D01*
X117921Y349264D01*
X117948Y349292D01*
X118309Y349598D01*
X118670Y349847D01*
X118837Y349931D01*
X118948Y349986D01*
X119031Y350042D01*
X119059D01*
X119503Y350236D01*
X119725Y350319D01*
X119919Y350375D01*
X120086Y350403D01*
X120197Y350430D01*
X120280Y350458D01*
X120308D01*
X119864Y350680D01*
X119447Y350930D01*
X119114Y351180D01*
X118837Y351430D01*
X118615Y351624D01*
X118448Y351791D01*
X118337Y351930D01*
X118309Y351957D01*
X118059Y352346D01*
X117893Y352735D01*
X117754Y353123D01*
X117671Y353512D01*
X117615Y353817D01*
X117587Y354095D01*
Y354262D01*
Y354289D01*
Y354317D01*
X117615Y354650D01*
X117643Y354983D01*
X117698Y355261D01*
X117754Y355511D01*
X117837Y355733D01*
X117893Y355872D01*
X117921Y355983D01*
X117948Y356011D01*
X118087Y356288D01*
X118254Y356538D01*
X118420Y356732D01*
X118559Y356927D01*
X118726Y357093D01*
X118837Y357204D01*
X118920Y357260D01*
X118948Y357288D01*
X119198Y357482D01*
X119475Y357649D01*
X119753Y357787D01*
X120030Y357898D01*
X120253Y357982D01*
X120447Y358037D01*
X120558Y358093D01*
X120613D01*
X121002Y358204D01*
X121391Y358259D01*
X121752Y358315D01*
X122113Y358370D01*
X122418D01*
X122668Y358398D01*
X123195D01*
X123501Y358370D01*
D02*
G37*
G36*
X67199D02*
X67310D01*
X67421Y358343D01*
X67504D01*
X67838Y358287D01*
X68143Y358259D01*
X68282Y358232D01*
X68365D01*
X68421Y358204D01*
X68448D01*
X68809Y358148D01*
X69114Y358065D01*
X69226Y358037D01*
X69337D01*
X69392Y358009D01*
X69420D01*
X69753Y357926D01*
X70031Y357843D01*
X70142Y357815D01*
X70225Y357787D01*
X70281Y357760D01*
X70308D01*
Y355872D01*
X69947Y355983D01*
X69587Y356066D01*
X69281Y356149D01*
X69004Y356233D01*
X68781Y356288D01*
X68587Y356316D01*
X68476Y356344D01*
X68448D01*
X67810Y356455D01*
X67504Y356483D01*
X67255D01*
X67032Y356510D01*
X66727D01*
X66172Y356483D01*
X65700Y356427D01*
X65283Y356316D01*
X64950Y356205D01*
X64700Y356094D01*
X64506Y355983D01*
X64395Y355927D01*
X64367Y355900D01*
X64090Y355650D01*
X63895Y355344D01*
X63756Y355039D01*
X63673Y354706D01*
X63590Y354428D01*
X63562Y354206D01*
Y354039D01*
Y354012D01*
Y353984D01*
X63590Y353512D01*
X63645Y353290D01*
X63673Y353123D01*
X63729Y352957D01*
X63784Y352846D01*
X63812Y352790D01*
Y352762D01*
X64006Y352402D01*
X64228Y352124D01*
X64312Y352013D01*
X64395Y351930D01*
X64450Y351902D01*
X64478Y351874D01*
X64811Y351624D01*
X65145Y351457D01*
X65283Y351402D01*
X65394Y351347D01*
X65478Y351319D01*
X65505D01*
X65977Y351208D01*
X66199Y351180D01*
X66422Y351152D01*
X66588Y351124D01*
X68754D01*
Y349348D01*
X66894D01*
X66255Y349320D01*
X65977Y349292D01*
X65728Y349264D01*
X65533Y349209D01*
X65394Y349181D01*
X65283Y349153D01*
X65256D01*
X64978Y349098D01*
X64728Y349015D01*
X64506Y348931D01*
X64312Y348848D01*
X64145Y348765D01*
X64034Y348709D01*
X63979Y348681D01*
X63951Y348654D01*
X63590Y348376D01*
X63312Y348126D01*
X63229Y347987D01*
X63146Y347904D01*
X63090Y347849D01*
Y347821D01*
X62979Y347626D01*
X62924Y347432D01*
X62812Y347043D01*
Y346904D01*
X62785Y346766D01*
Y346682D01*
Y346655D01*
X62840Y346127D01*
X62868Y345905D01*
X62924Y345711D01*
X62979Y345544D01*
X63007Y345433D01*
X63062Y345350D01*
Y345322D01*
X63173Y345100D01*
X63285Y344933D01*
X63562Y344600D01*
X63673Y344489D01*
X63784Y344406D01*
X63840Y344350D01*
X63868Y344323D01*
X64090Y344184D01*
X64312Y344045D01*
X64784Y343851D01*
X64978Y343767D01*
X65145Y343740D01*
X65256Y343684D01*
X65283D01*
X65616Y343629D01*
X65977Y343573D01*
X66311Y343545D01*
X66644Y343518D01*
X66921Y343490D01*
X68004D01*
X68309Y343518D01*
X68809D01*
X68976Y343545D01*
X69142D01*
X69753Y343629D01*
X70031Y343656D01*
X70281Y343684D01*
X70475Y343712D01*
X70614Y343740D01*
X70725Y343767D01*
X70753D01*
Y341824D01*
X70253Y341768D01*
X70003Y341741D01*
X69781Y341713D01*
X69587D01*
X69448Y341685D01*
X69309D01*
X68698Y341630D01*
X68421D01*
X68143Y341602D01*
X67560D01*
X66921Y341630D01*
X66338Y341657D01*
X65811Y341713D01*
X65367Y341796D01*
X64978Y341880D01*
X64700Y341935D01*
X64617Y341963D01*
X64534D01*
X64506Y341991D01*
X64478D01*
X64006Y342157D01*
X63562Y342351D01*
X63201Y342518D01*
X62868Y342712D01*
X62618Y342851D01*
X62452Y342990D01*
X62313Y343073D01*
X62285Y343101D01*
X61980Y343379D01*
X61702Y343656D01*
X61480Y343934D01*
X61286Y344184D01*
X61147Y344406D01*
X61036Y344572D01*
X60980Y344711D01*
X60953Y344739D01*
X60814Y345100D01*
X60703Y345461D01*
X60619Y345794D01*
X60564Y346099D01*
X60536Y346377D01*
X60508Y346571D01*
Y346710D01*
Y346766D01*
Y347043D01*
X60564Y347321D01*
X60619Y347543D01*
X60675Y347765D01*
X60730Y347932D01*
X60786Y348071D01*
X60814Y348154D01*
X60841Y348182D01*
X61091Y348626D01*
X61230Y348820D01*
X61369Y348987D01*
X61480Y349098D01*
X61563Y349209D01*
X61619Y349264D01*
X61646Y349292D01*
X62007Y349598D01*
X62368Y349847D01*
X62535Y349931D01*
X62646Y349986D01*
X62729Y350042D01*
X62757D01*
X63201Y350236D01*
X63423Y350319D01*
X63618Y350375D01*
X63784Y350403D01*
X63895Y350430D01*
X63979Y350458D01*
X64006D01*
X63562Y350680D01*
X63146Y350930D01*
X62812Y351180D01*
X62535Y351430D01*
X62313Y351624D01*
X62146Y351791D01*
X62035Y351930D01*
X62007Y351957D01*
X61758Y352346D01*
X61591Y352735D01*
X61452Y353123D01*
X61369Y353512D01*
X61313Y353817D01*
X61286Y354095D01*
Y354262D01*
Y354289D01*
Y354317D01*
X61313Y354650D01*
X61341Y354983D01*
X61397Y355261D01*
X61452Y355511D01*
X61536Y355733D01*
X61591Y355872D01*
X61619Y355983D01*
X61646Y356011D01*
X61785Y356288D01*
X61952Y356538D01*
X62119Y356732D01*
X62257Y356927D01*
X62424Y357093D01*
X62535Y357204D01*
X62618Y357260D01*
X62646Y357288D01*
X62896Y357482D01*
X63173Y357649D01*
X63451Y357787D01*
X63729Y357898D01*
X63951Y357982D01*
X64145Y358037D01*
X64256Y358093D01*
X64312D01*
X64700Y358204D01*
X65089Y358259D01*
X65450Y358315D01*
X65811Y358370D01*
X66116D01*
X66366Y358398D01*
X66894D01*
X67199Y358370D01*
D02*
G37*
G36*
X97654Y347599D02*
X90186D01*
Y349653D01*
X97654D01*
Y347599D01*
D02*
G37*
G36*
X137715Y341824D02*
X134717D01*
X129164Y358148D01*
X131552D01*
X135077Y347127D01*
X136105Y343906D01*
X137104Y347127D01*
X140602Y358148D01*
X143129D01*
X137715Y341824D01*
D02*
G37*
G36*
X58620D02*
X56316D01*
X55178Y345378D01*
X48348D01*
X47210Y341824D01*
X44795D01*
X50153Y358148D01*
X53207D01*
X58620Y341824D01*
D02*
G37*
G36*
X334157Y424787D02*
X334120Y424436D01*
X334101Y424121D01*
X334064Y423843D01*
X334027Y423621D01*
X334009Y423454D01*
X333972Y423343D01*
Y423306D01*
X333898Y423010D01*
X333805Y422732D01*
X333713Y422491D01*
X333620Y422288D01*
X333546Y422121D01*
X333472Y421991D01*
X333435Y421899D01*
X333416Y421880D01*
X333287Y421658D01*
X333139Y421455D01*
X332990Y421269D01*
X332861Y421121D01*
X332750Y420992D01*
X332639Y420899D01*
X332583Y420843D01*
X332565Y420825D01*
X332176Y420529D01*
X331972Y420418D01*
X331805Y420325D01*
X331657Y420251D01*
X331546Y420195D01*
X331454Y420158D01*
X331435Y420140D01*
X330972Y419973D01*
X330750Y419899D01*
X330546Y419843D01*
X330361Y419807D01*
X330231Y419769D01*
X330139Y419751D01*
X330102D01*
X329565Y419677D01*
X329306Y419658D01*
X329083Y419640D01*
X328880Y419621D01*
X328732D01*
X328639D01*
X328602D01*
X328102Y419640D01*
X327658Y419677D01*
X327232Y419732D01*
X326824Y419825D01*
X326473Y419918D01*
X326139Y420010D01*
X325843Y420140D01*
X325584Y420251D01*
X325343Y420362D01*
X325139Y420473D01*
X324973Y420584D01*
X324825Y420677D01*
X324714Y420769D01*
X324639Y420825D01*
X324602Y420862D01*
X324584Y420880D01*
X324343Y421121D01*
X324158Y421399D01*
X323973Y421695D01*
X323825Y422010D01*
X323695Y422325D01*
X323584Y422640D01*
X323510Y422954D01*
X323436Y423251D01*
X323380Y423547D01*
X323343Y423825D01*
X323306Y424065D01*
X323288Y424269D01*
X323269Y424454D01*
Y427491D01*
X334157D01*
Y424787D01*
D02*
G37*
G36*
X329324Y418233D02*
X329787Y418195D01*
X330213Y418140D01*
X330620Y418066D01*
X330972Y417973D01*
X331305Y417862D01*
X331620Y417751D01*
X331879Y417640D01*
X332120Y417529D01*
X332342Y417418D01*
X332509Y417307D01*
X332657Y417214D01*
X332768Y417140D01*
X332842Y417085D01*
X332898Y417048D01*
X332916Y417029D01*
X333157Y416788D01*
X333361Y416511D01*
X333546Y416233D01*
X333713Y415955D01*
X333842Y415659D01*
X333953Y415363D01*
X334046Y415066D01*
X334120Y414789D01*
X334175Y414511D01*
X334212Y414270D01*
X334249Y414048D01*
X334268Y413863D01*
Y413696D01*
X334287Y413566D01*
Y413474D01*
X334268Y412937D01*
X334194Y412437D01*
X334120Y411974D01*
X334009Y411548D01*
X333972Y411363D01*
X333916Y411215D01*
X333879Y411067D01*
X333824Y410937D01*
X333805Y410844D01*
X333768Y410770D01*
X333750Y410733D01*
Y410715D01*
X332342D01*
X332546Y411178D01*
X332620Y411381D01*
X332676Y411567D01*
X332731Y411733D01*
X332768Y411863D01*
X332805Y411937D01*
Y411974D01*
X332898Y412455D01*
X332916Y412678D01*
X332935Y412881D01*
X332953Y413048D01*
Y413307D01*
X332935Y413603D01*
X332898Y413900D01*
X332861Y414159D01*
X332787Y414400D01*
X332713Y414622D01*
X332620Y414844D01*
X332509Y415029D01*
X332416Y415196D01*
X332324Y415344D01*
X332213Y415474D01*
X332120Y415585D01*
X332046Y415659D01*
X331972Y415733D01*
X331917Y415788D01*
X331898Y415807D01*
X331879Y415825D01*
X331657Y415974D01*
X331435Y416103D01*
X330935Y416325D01*
X330398Y416474D01*
X329880Y416566D01*
X329639Y416603D01*
X329417Y416640D01*
X329213Y416659D01*
X329046D01*
X328898Y416677D01*
X328787D01*
X328713D01*
X328695D01*
X328324Y416659D01*
X327991Y416640D01*
X327695Y416603D01*
X327435Y416566D01*
X327213Y416529D01*
X327047Y416492D01*
X326954Y416455D01*
X326917D01*
X326639Y416362D01*
X326380Y416251D01*
X326139Y416140D01*
X325954Y416029D01*
X325788Y415937D01*
X325676Y415862D01*
X325602Y415807D01*
X325584Y415788D01*
X325380Y415622D01*
X325213Y415437D01*
X325065Y415251D01*
X324954Y415085D01*
X324862Y414955D01*
X324788Y414826D01*
X324751Y414751D01*
X324732Y414733D01*
X324639Y414492D01*
X324565Y414252D01*
X324510Y414011D01*
X324473Y413807D01*
X324454Y413622D01*
X324436Y413474D01*
Y413066D01*
X324473Y412807D01*
X324491Y412566D01*
X324528Y412363D01*
X324565Y412196D01*
X324584Y412066D01*
X324621Y411992D01*
Y411955D01*
X324769Y411493D01*
X324843Y411289D01*
X324917Y411104D01*
X324991Y410937D01*
X325047Y410826D01*
X325084Y410733D01*
X325102Y410715D01*
X323639D01*
X323473Y411178D01*
X323399Y411381D01*
X323343Y411567D01*
X323306Y411733D01*
X323269Y411863D01*
X323251Y411937D01*
Y411974D01*
X323177Y412474D01*
X323158Y412696D01*
X323140Y412918D01*
X323121Y413103D01*
Y413381D01*
X323140Y413789D01*
X323177Y414177D01*
X323251Y414529D01*
X323325Y414826D01*
X323399Y415066D01*
X323473Y415251D01*
X323491Y415326D01*
X323510Y415381D01*
X323528Y415400D01*
Y415418D01*
X323695Y415733D01*
X323880Y416029D01*
X324065Y416288D01*
X324251Y416511D01*
X324417Y416696D01*
X324547Y416844D01*
X324639Y416918D01*
X324677Y416955D01*
X324954Y417177D01*
X325269Y417362D01*
X325565Y417529D01*
X325843Y417677D01*
X326102Y417770D01*
X326287Y417862D01*
X326362Y417881D01*
X326417Y417899D01*
X326454Y417918D01*
X326473D01*
X326880Y418029D01*
X327287Y418103D01*
X327695Y418177D01*
X328046Y418214D01*
X328361Y418233D01*
X328509D01*
X328620Y418251D01*
X328713D01*
X328787D01*
X328824D01*
X328843D01*
X329324Y418233D01*
D02*
G37*
G36*
X330305Y402438D02*
X328935D01*
Y407419D01*
X330305D01*
Y402438D01*
D02*
G37*
G36*
X334157Y396624D02*
X334120Y396272D01*
X334101Y395957D01*
X334064Y395679D01*
X334027Y395457D01*
X334009Y395290D01*
X333972Y395179D01*
Y395142D01*
X333898Y394846D01*
X333805Y394568D01*
X333713Y394328D01*
X333620Y394124D01*
X333546Y393957D01*
X333472Y393828D01*
X333435Y393735D01*
X333416Y393717D01*
X333287Y393494D01*
X333139Y393291D01*
X332990Y393106D01*
X332861Y392957D01*
X332750Y392828D01*
X332639Y392735D01*
X332583Y392680D01*
X332565Y392661D01*
X332176Y392365D01*
X331972Y392254D01*
X331805Y392161D01*
X331657Y392087D01*
X331546Y392032D01*
X331454Y391995D01*
X331435Y391976D01*
X330972Y391809D01*
X330750Y391735D01*
X330546Y391680D01*
X330361Y391643D01*
X330231Y391606D01*
X330139Y391587D01*
X330102D01*
X329565Y391513D01*
X329306Y391495D01*
X329083Y391476D01*
X328880Y391458D01*
X328732D01*
X328639D01*
X328602D01*
X328102Y391476D01*
X327658Y391513D01*
X327232Y391569D01*
X326824Y391661D01*
X326473Y391754D01*
X326139Y391846D01*
X325843Y391976D01*
X325584Y392087D01*
X325343Y392198D01*
X325139Y392309D01*
X324973Y392420D01*
X324825Y392513D01*
X324714Y392606D01*
X324639Y392661D01*
X324602Y392698D01*
X324584Y392717D01*
X324343Y392957D01*
X324158Y393235D01*
X323973Y393531D01*
X323825Y393846D01*
X323695Y394161D01*
X323584Y394476D01*
X323510Y394790D01*
X323436Y395087D01*
X323380Y395383D01*
X323343Y395661D01*
X323306Y395901D01*
X323288Y396105D01*
X323269Y396290D01*
Y399327D01*
X334157D01*
Y396624D01*
D02*
G37*
G36*
X329324Y390069D02*
X329787Y390032D01*
X330213Y389976D01*
X330620Y389902D01*
X330972Y389810D01*
X331305Y389698D01*
X331620Y389587D01*
X331879Y389476D01*
X332120Y389365D01*
X332342Y389254D01*
X332509Y389143D01*
X332657Y389050D01*
X332768Y388976D01*
X332842Y388921D01*
X332898Y388884D01*
X332916Y388865D01*
X333157Y388624D01*
X333361Y388347D01*
X333546Y388069D01*
X333713Y387791D01*
X333842Y387495D01*
X333953Y387199D01*
X334046Y386903D01*
X334120Y386625D01*
X334175Y386347D01*
X334212Y386106D01*
X334249Y385884D01*
X334268Y385699D01*
Y385532D01*
X334287Y385403D01*
Y385310D01*
X334268Y384773D01*
X334194Y384273D01*
X334120Y383810D01*
X334009Y383384D01*
X333972Y383199D01*
X333916Y383051D01*
X333879Y382903D01*
X333824Y382773D01*
X333805Y382681D01*
X333768Y382607D01*
X333750Y382570D01*
Y382551D01*
X332342D01*
X332546Y383014D01*
X332620Y383218D01*
X332676Y383403D01*
X332731Y383569D01*
X332768Y383699D01*
X332805Y383773D01*
Y383810D01*
X332898Y384292D01*
X332916Y384514D01*
X332935Y384717D01*
X332953Y384884D01*
Y385143D01*
X332935Y385440D01*
X332898Y385736D01*
X332861Y385995D01*
X332787Y386236D01*
X332713Y386458D01*
X332620Y386680D01*
X332509Y386865D01*
X332416Y387032D01*
X332324Y387180D01*
X332213Y387310D01*
X332120Y387421D01*
X332046Y387495D01*
X331972Y387569D01*
X331917Y387625D01*
X331898Y387643D01*
X331879Y387662D01*
X331657Y387810D01*
X331435Y387939D01*
X330935Y388162D01*
X330398Y388310D01*
X329880Y388402D01*
X329639Y388439D01*
X329417Y388476D01*
X329213Y388495D01*
X329046D01*
X328898Y388513D01*
X328787D01*
X328713D01*
X328695D01*
X328324Y388495D01*
X327991Y388476D01*
X327695Y388439D01*
X327435Y388402D01*
X327213Y388365D01*
X327047Y388328D01*
X326954Y388291D01*
X326917D01*
X326639Y388199D01*
X326380Y388088D01*
X326139Y387976D01*
X325954Y387865D01*
X325788Y387773D01*
X325676Y387699D01*
X325602Y387643D01*
X325584Y387625D01*
X325380Y387458D01*
X325213Y387273D01*
X325065Y387088D01*
X324954Y386921D01*
X324862Y386791D01*
X324788Y386662D01*
X324751Y386588D01*
X324732Y386569D01*
X324639Y386329D01*
X324565Y386088D01*
X324510Y385847D01*
X324473Y385643D01*
X324454Y385458D01*
X324436Y385310D01*
Y384903D01*
X324473Y384644D01*
X324491Y384403D01*
X324528Y384199D01*
X324565Y384032D01*
X324584Y383903D01*
X324621Y383829D01*
Y383792D01*
X324769Y383329D01*
X324843Y383125D01*
X324917Y382940D01*
X324991Y382773D01*
X325047Y382662D01*
X325084Y382570D01*
X325102Y382551D01*
X323639D01*
X323473Y383014D01*
X323399Y383218D01*
X323343Y383403D01*
X323306Y383569D01*
X323269Y383699D01*
X323251Y383773D01*
Y383810D01*
X323177Y384310D01*
X323158Y384532D01*
X323140Y384755D01*
X323121Y384940D01*
Y385218D01*
X323140Y385625D01*
X323177Y386014D01*
X323251Y386366D01*
X323325Y386662D01*
X323399Y386903D01*
X323473Y387088D01*
X323491Y387162D01*
X323510Y387217D01*
X323528Y387236D01*
Y387254D01*
X323695Y387569D01*
X323880Y387865D01*
X324065Y388125D01*
X324251Y388347D01*
X324417Y388532D01*
X324547Y388680D01*
X324639Y388754D01*
X324677Y388791D01*
X324954Y389013D01*
X325269Y389198D01*
X325565Y389365D01*
X325843Y389513D01*
X326102Y389606D01*
X326287Y389698D01*
X326362Y389717D01*
X326417Y389735D01*
X326454Y389754D01*
X326473D01*
X326880Y389865D01*
X327287Y389939D01*
X327695Y390013D01*
X328046Y390050D01*
X328361Y390069D01*
X328509D01*
X328620Y390087D01*
X328713D01*
X328787D01*
X328824D01*
X328843D01*
X329324Y390069D01*
D02*
G37*
G36*
X334157Y370460D02*
X331787Y369701D01*
Y365145D01*
X334157Y364386D01*
Y362775D01*
X323269Y366349D01*
Y368386D01*
X334157Y371997D01*
Y370460D01*
D02*
G37*
G36*
X334101Y360664D02*
X334138Y360442D01*
X334175Y360220D01*
X334194Y360053D01*
X334212Y359905D01*
X334231Y359831D01*
Y359794D01*
X334268Y359239D01*
X334287Y358979D01*
Y358739D01*
X334305Y358535D01*
Y358220D01*
X334287Y357924D01*
X334268Y357683D01*
X334249Y357572D01*
Y357498D01*
X334231Y357443D01*
Y357424D01*
X334175Y357128D01*
X334157Y356980D01*
X334120Y356869D01*
X334101Y356776D01*
X334083Y356683D01*
X334064Y356646D01*
Y356628D01*
X333972Y356350D01*
X333879Y356128D01*
X333824Y356035D01*
X333805Y355961D01*
X333768Y355924D01*
Y355906D01*
X333601Y355665D01*
X333453Y355461D01*
X333398Y355387D01*
X333342Y355332D01*
X333324Y355313D01*
X333305Y355295D01*
X333083Y355128D01*
X332879Y354998D01*
X332805Y354943D01*
X332731Y354906D01*
X332694Y354887D01*
X332676D01*
X332398Y354795D01*
X332139Y354739D01*
X332046Y354721D01*
X331954D01*
X331898D01*
X331879D01*
X331546Y354739D01*
X331417Y354758D01*
X331287Y354795D01*
X331194Y354813D01*
X331102Y354850D01*
X331065Y354869D01*
X331046D01*
X330917Y354924D01*
X330787Y354998D01*
X330583Y355146D01*
X330509Y355221D01*
X330454Y355276D01*
X330417Y355313D01*
X330398Y355332D01*
X330194Y355591D01*
X330009Y355850D01*
X329954Y355980D01*
X329898Y356054D01*
X329880Y356128D01*
X329861Y356146D01*
X329768Y356350D01*
X329695Y356554D01*
X329602Y356758D01*
X329546Y356961D01*
X329472Y357146D01*
X329435Y357276D01*
X329417Y357369D01*
X329398Y357406D01*
X329324Y357646D01*
X329269Y357850D01*
X329213Y358035D01*
X329157Y358202D01*
X329102Y358331D01*
X329083Y358424D01*
X329046Y358479D01*
Y358498D01*
X328972Y358646D01*
X328917Y358776D01*
X328861Y358887D01*
X328806Y358998D01*
X328750Y359072D01*
X328732Y359128D01*
X328695Y359146D01*
Y359165D01*
X328565Y359313D01*
X328454Y359424D01*
X328380Y359479D01*
X328343Y359498D01*
X328195Y359535D01*
X328065Y359553D01*
X327972Y359572D01*
X327954D01*
X327935D01*
X327769Y359553D01*
X327639Y359516D01*
X327547Y359498D01*
X327509Y359479D01*
X327380Y359387D01*
X327269Y359294D01*
X327195Y359202D01*
X327176Y359165D01*
X327084Y358961D01*
X326991Y358776D01*
X326973Y358683D01*
X326954Y358609D01*
X326936Y358572D01*
Y358554D01*
X326880Y358257D01*
X326861Y357961D01*
X326843Y357831D01*
Y357646D01*
X326861Y357276D01*
X326880Y357109D01*
Y356943D01*
X326898Y356795D01*
X326917Y356683D01*
X326936Y356591D01*
Y356572D01*
X327010Y356109D01*
X327047Y355887D01*
X327084Y355702D01*
X327121Y355517D01*
X327139Y355387D01*
X327176Y355313D01*
Y355276D01*
X325880D01*
X325843Y355517D01*
X325788Y355758D01*
X325769Y355961D01*
X325732Y356146D01*
X325713Y356313D01*
Y356424D01*
X325695Y356517D01*
Y356535D01*
X325658Y356961D01*
Y357146D01*
X325639Y357294D01*
Y357628D01*
X325658Y357980D01*
X325676Y358313D01*
X325713Y358591D01*
X325750Y358831D01*
X325806Y359035D01*
X325843Y359165D01*
X325862Y359257D01*
X325880Y359294D01*
X325973Y359535D01*
X326084Y359739D01*
X326176Y359924D01*
X326269Y360072D01*
X326362Y360183D01*
X326436Y360276D01*
X326473Y360331D01*
X326491Y360350D01*
X326621Y360479D01*
X326769Y360609D01*
X326898Y360701D01*
X327010Y360776D01*
X327121Y360831D01*
X327195Y360868D01*
X327250Y360905D01*
X327269D01*
X327565Y360998D01*
X327695Y361016D01*
X327806Y361035D01*
X327898Y361053D01*
X327972D01*
X328009D01*
X328028D01*
X328213D01*
X328398Y361016D01*
X328565Y360998D01*
X328695Y360961D01*
X328806Y360924D01*
X328880Y360905D01*
X328935Y360868D01*
X328954D01*
X329231Y360701D01*
X329435Y360516D01*
X329528Y360442D01*
X329583Y360368D01*
X329620Y360331D01*
X329639Y360313D01*
X329843Y360035D01*
X329991Y359757D01*
X330046Y359646D01*
X330102Y359553D01*
X330120Y359498D01*
X330139Y359479D01*
X330287Y359109D01*
X330342Y358942D01*
X330398Y358776D01*
X330454Y358646D01*
X330472Y358535D01*
X330509Y358461D01*
Y358442D01*
X330583Y358165D01*
X330657Y357943D01*
X330731Y357739D01*
X330787Y357572D01*
X330843Y357424D01*
X330880Y357332D01*
X330917Y357276D01*
Y357257D01*
X330972Y357109D01*
X331046Y356961D01*
X331102Y356850D01*
X331139Y356758D01*
X331194Y356702D01*
X331213Y356646D01*
X331250Y356609D01*
X331380Y356461D01*
X331491Y356369D01*
X331565Y356332D01*
X331602Y356313D01*
X331731Y356258D01*
X331861Y356239D01*
X331954Y356221D01*
X331972D01*
X331991D01*
X332176Y356239D01*
X332342Y356295D01*
X332491Y356387D01*
X332602Y356480D01*
X332694Y356572D01*
X332750Y356665D01*
X332787Y356720D01*
X332805Y356739D01*
X332898Y356943D01*
X332972Y357183D01*
X333009Y357443D01*
X333046Y357702D01*
X333064Y357924D01*
X333083Y358109D01*
Y358276D01*
X333064Y358813D01*
X333046Y359053D01*
X333027Y359276D01*
Y359461D01*
X333009Y359590D01*
X332990Y359683D01*
Y359720D01*
X332898Y360257D01*
X332842Y360498D01*
X332787Y360720D01*
X332731Y360905D01*
X332694Y361035D01*
X332657Y361127D01*
Y361164D01*
X333990D01*
X334101Y360664D01*
D02*
G37*
G36*
X337601Y352665D02*
Y352443D01*
X337620Y352295D01*
Y352036D01*
X337601Y351740D01*
X337583Y351443D01*
X337546Y351203D01*
X337490Y350980D01*
X337434Y350795D01*
X337397Y350647D01*
X337379Y350573D01*
X337360Y350536D01*
X337249Y350295D01*
X337138Y350054D01*
X337009Y349851D01*
X336879Y349666D01*
X336768Y349518D01*
X336675Y349406D01*
X336601Y349332D01*
X336583Y349314D01*
X336360Y349110D01*
X336138Y348925D01*
X335916Y348740D01*
X335694Y348592D01*
X335509Y348462D01*
X335342Y348369D01*
X335249Y348314D01*
X335212Y348295D01*
X334898Y348110D01*
X334564Y347944D01*
X334231Y347795D01*
X333935Y347647D01*
X333675Y347536D01*
X333453Y347444D01*
X333379Y347407D01*
X333324Y347388D01*
X333287Y347369D01*
X333268D01*
X325788Y344518D01*
Y346110D01*
X331305Y348073D01*
X332639Y348555D01*
X331342Y348980D01*
X325788Y351091D01*
Y352739D01*
X334157Y349406D01*
X334361Y349499D01*
X334546Y349610D01*
X334731Y349703D01*
X334879Y349777D01*
X334990Y349851D01*
X335083Y349906D01*
X335138Y349943D01*
X335157Y349962D01*
X335435Y350165D01*
X335564Y350277D01*
X335657Y350369D01*
X335731Y350443D01*
X335786Y350499D01*
X335824Y350536D01*
X335842Y350554D01*
X336009Y350777D01*
X336120Y350980D01*
X336157Y351073D01*
X336194Y351147D01*
X336212Y351184D01*
Y351203D01*
X336286Y351462D01*
X336323Y351721D01*
X336342Y351814D01*
Y352128D01*
X336323Y352276D01*
X336305Y352388D01*
Y352425D01*
X336286Y352573D01*
Y352702D01*
X336268Y352776D01*
Y352813D01*
X337583D01*
X337601Y352665D01*
D02*
G37*
G36*
X334157Y341129D02*
X328620D01*
X328435Y340981D01*
X328287Y340852D01*
X328139Y340741D01*
X328009Y340630D01*
X327917Y340537D01*
X327843Y340481D01*
X327806Y340444D01*
X327787Y340426D01*
X327565Y340185D01*
X327398Y340000D01*
X327343Y339926D01*
X327306Y339870D01*
X327269Y339833D01*
Y339815D01*
X327139Y339611D01*
X327047Y339444D01*
X327010Y339333D01*
X326991Y339315D01*
Y339296D01*
X326936Y339111D01*
X326917Y338926D01*
X326898Y338852D01*
Y338759D01*
X326917Y338500D01*
X326973Y338278D01*
X327047Y338093D01*
X327139Y337945D01*
X327232Y337815D01*
X327306Y337741D01*
X327361Y337685D01*
X327380Y337667D01*
X327565Y337537D01*
X327806Y337445D01*
X328046Y337389D01*
X328269Y337333D01*
X328491Y337315D01*
X328657Y337296D01*
X328732D01*
X328787D01*
X328806D01*
X328824D01*
X334157D01*
Y335852D01*
X328713D01*
X328176Y335889D01*
X327713Y335963D01*
X327306Y336056D01*
X326991Y336185D01*
X326732Y336315D01*
X326565Y336408D01*
X326454Y336482D01*
X326417Y336519D01*
X326158Y336797D01*
X325973Y337111D01*
X325825Y337426D01*
X325732Y337741D01*
X325676Y338037D01*
X325658Y338167D01*
Y338259D01*
X325639Y338352D01*
Y338482D01*
X325658Y338741D01*
X325676Y338982D01*
X325695Y339074D01*
Y339148D01*
X325713Y339185D01*
Y339204D01*
X325788Y339444D01*
X325862Y339667D01*
X325917Y339741D01*
X325936Y339815D01*
X325973Y339852D01*
Y339870D01*
X326121Y340111D01*
X326269Y340315D01*
X326324Y340407D01*
X326380Y340481D01*
X326417Y340518D01*
X326436Y340537D01*
X326658Y340778D01*
X326898Y341018D01*
X326991Y341111D01*
X327065Y341185D01*
X327121Y341222D01*
X327139Y341241D01*
X325788Y341296D01*
Y342574D01*
X334157D01*
Y341129D01*
D02*
G37*
G36*
X330435Y333186D02*
X330787Y333167D01*
X331120Y333112D01*
X331417Y333038D01*
X331694Y332964D01*
X331954Y332871D01*
X332194Y332779D01*
X332398Y332667D01*
X332583Y332575D01*
X332750Y332482D01*
X332879Y332390D01*
X332990Y332315D01*
X333083Y332242D01*
X333139Y332186D01*
X333176Y332167D01*
X333194Y332149D01*
X333379Y331945D01*
X333546Y331704D01*
X333694Y331464D01*
X333805Y331223D01*
X333916Y330964D01*
X334009Y330705D01*
X334138Y330223D01*
X334175Y329982D01*
X334212Y329779D01*
X334231Y329594D01*
X334249Y329427D01*
X334268Y329279D01*
Y329094D01*
X334249Y328631D01*
X334231Y328409D01*
X334212Y328223D01*
X334194Y328075D01*
X334175Y327964D01*
X334157Y327872D01*
Y327853D01*
X334064Y327427D01*
X334009Y327224D01*
X333972Y327038D01*
X333916Y326890D01*
X333879Y326779D01*
X333842Y326705D01*
Y326687D01*
X332491D01*
X332676Y327075D01*
X332750Y327261D01*
X332805Y327409D01*
X332842Y327557D01*
X332879Y327668D01*
X332898Y327742D01*
Y327761D01*
X332972Y328168D01*
X332990Y328372D01*
X333009Y328538D01*
X333027Y328686D01*
Y328909D01*
X332990Y329371D01*
X332916Y329779D01*
X332787Y330131D01*
X332657Y330427D01*
X332528Y330668D01*
X332398Y330834D01*
X332324Y330927D01*
X332287Y330964D01*
X331972Y331204D01*
X331620Y331390D01*
X331231Y331501D01*
X330880Y331593D01*
X330546Y331649D01*
X330398Y331668D01*
X330269D01*
X330176Y331686D01*
X330102D01*
X330046D01*
X330028D01*
X329750Y331668D01*
X329509Y331649D01*
X329287Y331612D01*
X329083Y331575D01*
X328935Y331538D01*
X328806Y331519D01*
X328732Y331482D01*
X328713D01*
X328509Y331390D01*
X328324Y331297D01*
X328158Y331204D01*
X328009Y331093D01*
X327898Y331019D01*
X327824Y330945D01*
X327769Y330908D01*
X327750Y330890D01*
X327602Y330742D01*
X327491Y330593D01*
X327380Y330445D01*
X327287Y330316D01*
X327232Y330205D01*
X327176Y330093D01*
X327139Y330038D01*
Y330019D01*
X327065Y329834D01*
X327010Y329649D01*
X326973Y329464D01*
X326936Y329297D01*
Y329168D01*
X326917Y329057D01*
Y328964D01*
X326936Y328520D01*
X326954Y328335D01*
X326973Y328149D01*
X327010Y328001D01*
X327028Y327890D01*
X327047Y327816D01*
Y327798D01*
X327158Y327390D01*
X327232Y327205D01*
X327306Y327038D01*
X327361Y326890D01*
X327417Y326779D01*
X327435Y326705D01*
X327454Y326687D01*
X326065D01*
X325936Y327075D01*
X325880Y327261D01*
X325843Y327427D01*
X325806Y327575D01*
X325788Y327686D01*
X325769Y327761D01*
Y327779D01*
X325713Y328205D01*
X325695Y328409D01*
Y328612D01*
X325676Y328760D01*
Y329001D01*
X325695Y329334D01*
X325732Y329649D01*
X325769Y329945D01*
X325825Y330205D01*
X325899Y330408D01*
X325936Y330575D01*
X325973Y330668D01*
X325991Y330705D01*
X326121Y330982D01*
X326269Y331242D01*
X326417Y331464D01*
X326547Y331668D01*
X326676Y331816D01*
X326787Y331945D01*
X326861Y332019D01*
X326880Y332038D01*
X327102Y332242D01*
X327343Y332408D01*
X327565Y332556D01*
X327787Y332686D01*
X327972Y332779D01*
X328139Y332853D01*
X328232Y332890D01*
X328250Y332908D01*
X328269D01*
X328565Y333001D01*
X328880Y333075D01*
X329194Y333130D01*
X329472Y333167D01*
X329713Y333186D01*
X329898Y333204D01*
X329972D01*
X330028D01*
X330046D01*
X330065D01*
X330435Y333186D01*
D02*
G37*
G36*
X334157Y322354D02*
X328620D01*
X328435Y322206D01*
X328287Y322057D01*
X328139Y321928D01*
X328009Y321817D01*
X327917Y321743D01*
X327843Y321669D01*
X327806Y321632D01*
X327787Y321613D01*
X327565Y321372D01*
X327398Y321187D01*
X327343Y321113D01*
X327306Y321057D01*
X327269Y321039D01*
Y321020D01*
X327139Y320817D01*
X327047Y320650D01*
X327028Y320576D01*
X327010Y320521D01*
X326991Y320502D01*
Y320483D01*
X326936Y320280D01*
X326917Y320113D01*
X326898Y320039D01*
Y319928D01*
X326917Y319687D01*
X326973Y319484D01*
X327047Y319298D01*
X327139Y319150D01*
X327232Y319039D01*
X327306Y318965D01*
X327361Y318909D01*
X327380Y318891D01*
X327584Y318761D01*
X327806Y318669D01*
X328046Y318613D01*
X328287Y318558D01*
X328491Y318539D01*
X328657Y318521D01*
X328787D01*
X328806D01*
X328824D01*
X334157D01*
Y317076D01*
X328713D01*
X328176Y317113D01*
X327713Y317188D01*
X327306Y317299D01*
X326991Y317410D01*
X326732Y317539D01*
X326565Y317650D01*
X326454Y317724D01*
X326417Y317761D01*
X326158Y318039D01*
X325973Y318354D01*
X325825Y318669D01*
X325732Y318984D01*
X325676Y319280D01*
X325658Y319391D01*
Y319502D01*
X325639Y319576D01*
Y319706D01*
X325658Y319965D01*
X325676Y320206D01*
X325695Y320298D01*
X325713Y320372D01*
X325732Y320409D01*
Y320428D01*
X325806Y320669D01*
X325880Y320891D01*
X325917Y320965D01*
X325936Y321039D01*
X325973Y321076D01*
Y321095D01*
X326121Y321335D01*
X326269Y321539D01*
X326324Y321613D01*
X326380Y321687D01*
X326417Y321724D01*
X326436Y321743D01*
X326658Y321983D01*
X326880Y322206D01*
X326973Y322280D01*
X327047Y322354D01*
X327102Y322391D01*
X327121Y322409D01*
X325806Y322354D01*
X322380D01*
Y323798D01*
X334157D01*
Y322354D01*
D02*
G37*
G36*
Y312614D02*
X328787D01*
X328602Y312466D01*
X328435Y312336D01*
X328306Y312206D01*
X328176Y312095D01*
X328065Y312003D01*
X327991Y311929D01*
X327954Y311892D01*
X327935Y311873D01*
X327695Y311614D01*
X327491Y311410D01*
X327435Y311318D01*
X327380Y311262D01*
X327361Y311225D01*
X327343Y311207D01*
X327195Y310984D01*
X327084Y310781D01*
X327047Y310707D01*
X327028Y310651D01*
X327010Y310614D01*
Y310596D01*
X326936Y310373D01*
X326917Y310188D01*
X326898Y310133D01*
Y310022D01*
X326917Y309781D01*
X326973Y309577D01*
X327065Y309410D01*
X327139Y309262D01*
X327232Y309151D01*
X327324Y309059D01*
X327380Y309022D01*
X327398Y309003D01*
X327602Y308892D01*
X327861Y308799D01*
X328121Y308744D01*
X328380Y308707D01*
X328602Y308688D01*
X328787Y308670D01*
X328861D01*
X328917D01*
X328954D01*
X328972D01*
Y307207D01*
X328676D01*
X328398Y307225D01*
X328139Y307244D01*
X327880Y307281D01*
X327658Y307337D01*
X327454Y307392D01*
X327287Y307448D01*
X327121Y307503D01*
X326973Y307559D01*
X326843Y307633D01*
X326732Y307689D01*
X326639Y307726D01*
X326584Y307781D01*
X326528Y307800D01*
X326491Y307837D01*
X326343Y307966D01*
X326213Y308114D01*
X325991Y308429D01*
X325843Y308744D01*
X325750Y309059D01*
X325676Y309355D01*
X325658Y309485D01*
Y309577D01*
X325639Y309670D01*
Y309799D01*
X325658Y310077D01*
X325695Y310336D01*
X325769Y310596D01*
X325843Y310799D01*
X325917Y311003D01*
X325991Y311133D01*
X326028Y311225D01*
X326047Y311262D01*
X326213Y311540D01*
X326417Y311799D01*
X326639Y312040D01*
X326843Y312262D01*
X327047Y312447D01*
X327195Y312595D01*
X327306Y312688D01*
X327324Y312725D01*
X327343D01*
X325788Y312762D01*
Y314077D01*
X334157D01*
Y312614D01*
D02*
G37*
G36*
X330398Y305578D02*
X330750Y305559D01*
X331065Y305522D01*
X331342Y305466D01*
X331565Y305411D01*
X331731Y305374D01*
X331842Y305355D01*
X331861Y305337D01*
X331879D01*
X332157Y305226D01*
X332416Y305115D01*
X332657Y304985D01*
X332842Y304874D01*
X333009Y304763D01*
X333120Y304670D01*
X333194Y304615D01*
X333213Y304596D01*
X333398Y304393D01*
X333564Y304189D01*
X333713Y304004D01*
X333824Y303800D01*
X333916Y303633D01*
X333972Y303504D01*
X334009Y303430D01*
X334027Y303393D01*
X334120Y303115D01*
X334194Y302837D01*
X334231Y302559D01*
X334268Y302300D01*
X334287Y302096D01*
X334305Y301911D01*
Y301763D01*
X334287Y301411D01*
X334249Y301097D01*
X334212Y300819D01*
X334138Y300560D01*
X334083Y300356D01*
X334046Y300208D01*
X334009Y300115D01*
X333990Y300078D01*
X333861Y299819D01*
X333713Y299560D01*
X333564Y299356D01*
X333435Y299171D01*
X333305Y299023D01*
X333194Y298912D01*
X333120Y298838D01*
X333102Y298819D01*
X332879Y298634D01*
X332639Y298467D01*
X332398Y298338D01*
X332176Y298227D01*
X331991Y298134D01*
X331842Y298078D01*
X331750Y298041D01*
X331713Y298023D01*
X331398Y297930D01*
X331083Y297856D01*
X330787Y297819D01*
X330509Y297782D01*
X330269Y297764D01*
X330083Y297745D01*
X330009D01*
X329954D01*
X329935D01*
X329917D01*
X329546Y297764D01*
X329194Y297782D01*
X328880Y297838D01*
X328602Y297875D01*
X328398Y297930D01*
X328232Y297986D01*
X328121Y298004D01*
X328083Y298023D01*
X327806Y298134D01*
X327547Y298245D01*
X327306Y298375D01*
X327121Y298504D01*
X326954Y298615D01*
X326843Y298708D01*
X326769Y298764D01*
X326750Y298782D01*
X326565Y298967D01*
X326399Y299171D01*
X326250Y299375D01*
X326139Y299560D01*
X326047Y299726D01*
X325991Y299856D01*
X325954Y299949D01*
X325936Y299986D01*
X325843Y300263D01*
X325769Y300541D01*
X325713Y300800D01*
X325676Y301059D01*
X325658Y301263D01*
X325639Y301448D01*
Y301597D01*
X325658Y301948D01*
X325695Y302263D01*
X325750Y302541D01*
X325806Y302800D01*
X325862Y303004D01*
X325917Y303152D01*
X325954Y303244D01*
X325973Y303281D01*
X326102Y303541D01*
X326250Y303782D01*
X326399Y304004D01*
X326547Y304189D01*
X326676Y304337D01*
X326787Y304448D01*
X326861Y304522D01*
X326880Y304541D01*
X327102Y304726D01*
X327343Y304874D01*
X327565Y305022D01*
X327787Y305133D01*
X327972Y305226D01*
X328139Y305281D01*
X328232Y305318D01*
X328250Y305337D01*
X328269D01*
X328565Y305429D01*
X328880Y305485D01*
X329176Y305541D01*
X329454Y305559D01*
X329676Y305578D01*
X329861Y305596D01*
X329935D01*
X329991D01*
X330009D01*
X330028D01*
X330398Y305578D01*
D02*
G37*
G36*
X334157Y294190D02*
X328620D01*
X328435Y294042D01*
X328287Y293912D01*
X328139Y293801D01*
X328009Y293690D01*
X327917Y293597D01*
X327843Y293542D01*
X327806Y293505D01*
X327787Y293486D01*
X327565Y293246D01*
X327398Y293060D01*
X327343Y292986D01*
X327306Y292931D01*
X327269Y292894D01*
Y292875D01*
X327139Y292672D01*
X327047Y292505D01*
X327010Y292394D01*
X326991Y292375D01*
Y292357D01*
X326936Y292172D01*
X326917Y291986D01*
X326898Y291912D01*
Y291820D01*
X326917Y291560D01*
X326973Y291338D01*
X327047Y291153D01*
X327139Y291005D01*
X327232Y290875D01*
X327306Y290801D01*
X327361Y290746D01*
X327380Y290727D01*
X327565Y290598D01*
X327806Y290505D01*
X328046Y290450D01*
X328269Y290394D01*
X328491Y290375D01*
X328657Y290357D01*
X328732D01*
X328787D01*
X328806D01*
X328824D01*
X334157D01*
Y288913D01*
X328713D01*
X328176Y288950D01*
X327713Y289024D01*
X327306Y289116D01*
X326991Y289246D01*
X326732Y289375D01*
X326565Y289468D01*
X326454Y289542D01*
X326417Y289579D01*
X326158Y289857D01*
X325973Y290172D01*
X325825Y290487D01*
X325732Y290801D01*
X325676Y291098D01*
X325658Y291227D01*
Y291320D01*
X325639Y291412D01*
Y291542D01*
X325658Y291801D01*
X325676Y292042D01*
X325695Y292134D01*
Y292209D01*
X325713Y292246D01*
Y292264D01*
X325788Y292505D01*
X325862Y292727D01*
X325917Y292801D01*
X325936Y292875D01*
X325973Y292912D01*
Y292931D01*
X326121Y293171D01*
X326269Y293375D01*
X326324Y293468D01*
X326380Y293542D01*
X326417Y293579D01*
X326436Y293597D01*
X326658Y293838D01*
X326898Y294079D01*
X326991Y294171D01*
X327065Y294245D01*
X327121Y294282D01*
X327139Y294301D01*
X325788Y294356D01*
Y295634D01*
X334157D01*
Y294190D01*
D02*
G37*
G36*
X330398Y286802D02*
X330750Y286783D01*
X331065Y286746D01*
X331342Y286691D01*
X331565Y286635D01*
X331731Y286598D01*
X331842Y286579D01*
X331861Y286561D01*
X331879D01*
X332157Y286450D01*
X332416Y286339D01*
X332657Y286209D01*
X332842Y286098D01*
X333009Y285987D01*
X333120Y285894D01*
X333194Y285839D01*
X333213Y285820D01*
X333398Y285617D01*
X333564Y285413D01*
X333713Y285228D01*
X333824Y285024D01*
X333916Y284858D01*
X333972Y284728D01*
X334009Y284654D01*
X334027Y284617D01*
X334120Y284339D01*
X334194Y284061D01*
X334231Y283783D01*
X334268Y283524D01*
X334287Y283321D01*
X334305Y283136D01*
Y282987D01*
X334287Y282635D01*
X334249Y282321D01*
X334212Y282043D01*
X334138Y281784D01*
X334083Y281580D01*
X334046Y281432D01*
X334009Y281339D01*
X333990Y281302D01*
X333861Y281043D01*
X333713Y280784D01*
X333564Y280580D01*
X333435Y280395D01*
X333305Y280247D01*
X333194Y280136D01*
X333120Y280062D01*
X333102Y280043D01*
X332879Y279858D01*
X332639Y279691D01*
X332398Y279562D01*
X332176Y279451D01*
X331991Y279358D01*
X331842Y279303D01*
X331750Y279265D01*
X331713Y279247D01*
X331398Y279154D01*
X331083Y279080D01*
X330787Y279043D01*
X330509Y279006D01*
X330269Y278988D01*
X330083Y278969D01*
X330009D01*
X329954D01*
X329935D01*
X329917D01*
X329546Y278988D01*
X329194Y279006D01*
X328880Y279062D01*
X328602Y279099D01*
X328398Y279154D01*
X328232Y279210D01*
X328121Y279228D01*
X328083Y279247D01*
X327806Y279358D01*
X327547Y279469D01*
X327306Y279599D01*
X327121Y279728D01*
X326954Y279839D01*
X326843Y279932D01*
X326769Y279988D01*
X326750Y280006D01*
X326565Y280191D01*
X326399Y280395D01*
X326250Y280599D01*
X326139Y280784D01*
X326047Y280951D01*
X325991Y281080D01*
X325954Y281173D01*
X325936Y281210D01*
X325843Y281488D01*
X325769Y281765D01*
X325713Y282024D01*
X325676Y282284D01*
X325658Y282487D01*
X325639Y282673D01*
Y282821D01*
X325658Y283172D01*
X325695Y283487D01*
X325750Y283765D01*
X325806Y284024D01*
X325862Y284228D01*
X325917Y284376D01*
X325954Y284469D01*
X325973Y284506D01*
X326102Y284765D01*
X326250Y285006D01*
X326399Y285228D01*
X326547Y285413D01*
X326676Y285561D01*
X326787Y285672D01*
X326861Y285746D01*
X326880Y285765D01*
X327102Y285950D01*
X327343Y286098D01*
X327565Y286246D01*
X327787Y286357D01*
X327972Y286450D01*
X328139Y286506D01*
X328232Y286542D01*
X328250Y286561D01*
X328269D01*
X328565Y286654D01*
X328880Y286709D01*
X329176Y286765D01*
X329454Y286783D01*
X329676Y286802D01*
X329861Y286820D01*
X329935D01*
X329991D01*
X330009D01*
X330028D01*
X330398Y286802D01*
D02*
G37*
G36*
X331805Y276821D02*
X332268Y276747D01*
X332676Y276655D01*
X332990Y276525D01*
X333250Y276414D01*
X333416Y276303D01*
X333527Y276229D01*
X333564Y276210D01*
X333805Y275933D01*
X333990Y275618D01*
X334120Y275303D01*
X334212Y274988D01*
X334268Y274710D01*
X334287Y274581D01*
Y274470D01*
X334305Y274396D01*
Y274266D01*
X334287Y273988D01*
X334268Y273766D01*
X334249Y273673D01*
Y273599D01*
X334231Y273562D01*
Y273544D01*
X334157Y273303D01*
X334083Y273081D01*
X334046Y273007D01*
X334009Y272933D01*
X333990Y272896D01*
Y272877D01*
X333842Y272637D01*
X333713Y272414D01*
X333638Y272340D01*
X333583Y272266D01*
X333564Y272229D01*
X333546Y272211D01*
X333305Y271951D01*
X333064Y271711D01*
X332972Y271618D01*
X332898Y271544D01*
X332842Y271507D01*
X332824Y271488D01*
X334157Y271433D01*
Y270137D01*
X325788D01*
Y271581D01*
X331342D01*
X331528Y271729D01*
X331694Y271859D01*
X331842Y271989D01*
X331954Y272100D01*
X332065Y272192D01*
X332139Y272266D01*
X332176Y272303D01*
X332194Y272322D01*
X332416Y272544D01*
X332583Y272729D01*
X332657Y272803D01*
X332694Y272859D01*
X332713Y272896D01*
X332731Y272914D01*
X332842Y273118D01*
X332935Y273285D01*
X332953Y273359D01*
X332972Y273414D01*
X332990Y273433D01*
Y273451D01*
X333027Y273636D01*
X333046Y273803D01*
X333064Y273933D01*
Y273970D01*
X333046Y274229D01*
X332990Y274451D01*
X332879Y274636D01*
X332768Y274803D01*
X332620Y274951D01*
X332453Y275062D01*
X332287Y275155D01*
X332102Y275229D01*
X331768Y275340D01*
X331602Y275377D01*
X331454Y275396D01*
X331324D01*
X331231Y275414D01*
X331176D01*
X331157D01*
X325788D01*
Y276858D01*
X331268D01*
X331805Y276821D01*
D02*
G37*
G36*
X334101Y266785D02*
X334138Y266563D01*
X334175Y266341D01*
X334194Y266174D01*
X334212Y266026D01*
X334231Y265952D01*
Y265915D01*
X334268Y265359D01*
X334287Y265100D01*
Y264860D01*
X334305Y264656D01*
Y264341D01*
X334287Y264045D01*
X334268Y263804D01*
X334249Y263693D01*
Y263619D01*
X334231Y263563D01*
Y263545D01*
X334175Y263249D01*
X334157Y263100D01*
X334120Y262989D01*
X334101Y262897D01*
X334083Y262804D01*
X334064Y262767D01*
Y262749D01*
X333972Y262471D01*
X333879Y262249D01*
X333824Y262156D01*
X333805Y262082D01*
X333768Y262045D01*
Y262027D01*
X333601Y261786D01*
X333453Y261582D01*
X333398Y261508D01*
X333342Y261453D01*
X333324Y261434D01*
X333305Y261416D01*
X333083Y261249D01*
X332879Y261119D01*
X332805Y261064D01*
X332731Y261027D01*
X332694Y261008D01*
X332676D01*
X332398Y260916D01*
X332139Y260860D01*
X332046Y260842D01*
X331954D01*
X331898D01*
X331879D01*
X331546Y260860D01*
X331417Y260879D01*
X331287Y260916D01*
X331194Y260934D01*
X331102Y260971D01*
X331065Y260990D01*
X331046D01*
X330917Y261045D01*
X330787Y261119D01*
X330583Y261267D01*
X330509Y261341D01*
X330454Y261397D01*
X330417Y261434D01*
X330398Y261453D01*
X330194Y261712D01*
X330009Y261971D01*
X329954Y262101D01*
X329898Y262175D01*
X329880Y262249D01*
X329861Y262267D01*
X329768Y262471D01*
X329695Y262675D01*
X329602Y262878D01*
X329546Y263082D01*
X329472Y263267D01*
X329435Y263397D01*
X329417Y263489D01*
X329398Y263526D01*
X329324Y263767D01*
X329269Y263971D01*
X329213Y264156D01*
X329157Y264323D01*
X329102Y264452D01*
X329083Y264545D01*
X329046Y264600D01*
Y264619D01*
X328972Y264767D01*
X328917Y264897D01*
X328861Y265008D01*
X328806Y265119D01*
X328750Y265193D01*
X328732Y265248D01*
X328695Y265267D01*
Y265285D01*
X328565Y265434D01*
X328454Y265545D01*
X328380Y265600D01*
X328343Y265619D01*
X328195Y265656D01*
X328065Y265674D01*
X327972Y265693D01*
X327954D01*
X327935D01*
X327769Y265674D01*
X327639Y265637D01*
X327547Y265619D01*
X327509Y265600D01*
X327380Y265508D01*
X327269Y265415D01*
X327195Y265322D01*
X327176Y265285D01*
X327084Y265082D01*
X326991Y264897D01*
X326973Y264804D01*
X326954Y264730D01*
X326936Y264693D01*
Y264674D01*
X326880Y264378D01*
X326861Y264082D01*
X326843Y263952D01*
Y263767D01*
X326861Y263397D01*
X326880Y263230D01*
Y263064D01*
X326898Y262915D01*
X326917Y262804D01*
X326936Y262712D01*
Y262693D01*
X327010Y262230D01*
X327047Y262008D01*
X327084Y261823D01*
X327121Y261638D01*
X327139Y261508D01*
X327176Y261434D01*
Y261397D01*
X325880D01*
X325843Y261638D01*
X325788Y261878D01*
X325769Y262082D01*
X325732Y262267D01*
X325713Y262434D01*
Y262545D01*
X325695Y262638D01*
Y262656D01*
X325658Y263082D01*
Y263267D01*
X325639Y263415D01*
Y263749D01*
X325658Y264100D01*
X325676Y264434D01*
X325713Y264711D01*
X325750Y264952D01*
X325806Y265156D01*
X325843Y265285D01*
X325862Y265378D01*
X325880Y265415D01*
X325973Y265656D01*
X326084Y265860D01*
X326176Y266045D01*
X326269Y266193D01*
X326362Y266304D01*
X326436Y266396D01*
X326473Y266452D01*
X326491Y266471D01*
X326621Y266600D01*
X326769Y266730D01*
X326898Y266822D01*
X327010Y266896D01*
X327121Y266952D01*
X327195Y266989D01*
X327250Y267026D01*
X327269D01*
X327565Y267119D01*
X327695Y267137D01*
X327806Y267156D01*
X327898Y267174D01*
X327972D01*
X328009D01*
X328028D01*
X328213D01*
X328398Y267137D01*
X328565Y267119D01*
X328695Y267082D01*
X328806Y267045D01*
X328880Y267026D01*
X328935Y266989D01*
X328954D01*
X329231Y266822D01*
X329435Y266637D01*
X329528Y266563D01*
X329583Y266489D01*
X329620Y266452D01*
X329639Y266434D01*
X329843Y266156D01*
X329991Y265878D01*
X330046Y265767D01*
X330102Y265674D01*
X330120Y265619D01*
X330139Y265600D01*
X330287Y265230D01*
X330342Y265063D01*
X330398Y264897D01*
X330454Y264767D01*
X330472Y264656D01*
X330509Y264582D01*
Y264563D01*
X330583Y264286D01*
X330657Y264063D01*
X330731Y263860D01*
X330787Y263693D01*
X330843Y263545D01*
X330880Y263452D01*
X330917Y263397D01*
Y263378D01*
X330972Y263230D01*
X331046Y263082D01*
X331102Y262971D01*
X331139Y262878D01*
X331194Y262823D01*
X331213Y262767D01*
X331250Y262730D01*
X331380Y262582D01*
X331491Y262489D01*
X331565Y262452D01*
X331602Y262434D01*
X331731Y262378D01*
X331861Y262360D01*
X331954Y262341D01*
X331972D01*
X331991D01*
X332176Y262360D01*
X332342Y262415D01*
X332491Y262508D01*
X332602Y262600D01*
X332694Y262693D01*
X332750Y262786D01*
X332787Y262841D01*
X332805Y262860D01*
X332898Y263064D01*
X332972Y263304D01*
X333009Y263563D01*
X333046Y263823D01*
X333064Y264045D01*
X333083Y264230D01*
Y264397D01*
X333064Y264934D01*
X333046Y265174D01*
X333027Y265396D01*
Y265582D01*
X333009Y265711D01*
X332990Y265804D01*
Y265841D01*
X332898Y266378D01*
X332842Y266619D01*
X332787Y266841D01*
X332731Y267026D01*
X332694Y267156D01*
X332657Y267248D01*
Y267285D01*
X333990D01*
X334101Y266785D01*
D02*
G37*
G36*
X333972Y248880D02*
X334027Y248676D01*
X334046Y248602D01*
X334064Y248528D01*
X334083Y248491D01*
Y248472D01*
X334120Y248213D01*
X334157Y247972D01*
Y247880D01*
X334175Y247806D01*
Y247732D01*
X334212Y247435D01*
X334249Y247176D01*
Y247065D01*
X334268Y246991D01*
Y246917D01*
X334287Y246584D01*
Y246454D01*
X334305Y246306D01*
Y245695D01*
X334268Y245362D01*
X334249Y245065D01*
X334212Y244806D01*
X334175Y244584D01*
X334157Y244417D01*
X334120Y244325D01*
Y244288D01*
X334046Y243991D01*
X333953Y243732D01*
X333861Y243510D01*
X333768Y243306D01*
X333675Y243158D01*
X333601Y243029D01*
X333564Y242954D01*
X333546Y242936D01*
X333398Y242732D01*
X333231Y242547D01*
X333064Y242399D01*
X332916Y242269D01*
X332787Y242177D01*
X332676Y242103D01*
X332602Y242066D01*
X332583Y242047D01*
X332361Y241936D01*
X332120Y241862D01*
X331879Y241788D01*
X331676Y241751D01*
X331491Y241732D01*
X331342Y241714D01*
X331250D01*
X331213D01*
X330972Y241732D01*
X330768Y241751D01*
X330565Y241788D01*
X330398Y241843D01*
X330269Y241899D01*
X330176Y241936D01*
X330102Y241954D01*
X330083Y241973D01*
X329750Y242177D01*
X329602Y242288D01*
X329491Y242380D01*
X329380Y242473D01*
X329306Y242547D01*
X329269Y242603D01*
X329250Y242621D01*
X329009Y242917D01*
X328806Y243214D01*
X328732Y243343D01*
X328676Y243436D01*
X328657Y243510D01*
X328639Y243528D01*
X328454Y243917D01*
X328380Y244084D01*
X328306Y244251D01*
X328250Y244380D01*
X328213Y244491D01*
X328176Y244565D01*
Y244584D01*
X328009Y244973D01*
X327935Y245139D01*
X327880Y245287D01*
X327824Y245436D01*
X327787Y245528D01*
X327750Y245602D01*
Y245621D01*
X327602Y245991D01*
X327528Y246139D01*
X327454Y246269D01*
X327398Y246399D01*
X327343Y246473D01*
X327324Y246528D01*
X327306Y246547D01*
X327102Y246806D01*
X326917Y247010D01*
X326843Y247084D01*
X326787Y247139D01*
X326750Y247158D01*
X326732Y247176D01*
X326602Y247250D01*
X326473Y247306D01*
X326232Y247380D01*
X326121Y247398D01*
X326047Y247417D01*
X325991D01*
X325973D01*
X325713Y247398D01*
X325491Y247324D01*
X325288Y247232D01*
X325121Y247121D01*
X324991Y247010D01*
X324899Y246917D01*
X324843Y246843D01*
X324825Y246824D01*
X324677Y246565D01*
X324565Y246287D01*
X324491Y245973D01*
X324436Y245658D01*
X324399Y245380D01*
X324380Y245158D01*
Y244954D01*
X324399Y244510D01*
X324417Y244288D01*
X324436Y244102D01*
X324454Y243936D01*
X324473Y243825D01*
X324491Y243732D01*
Y243714D01*
X324565Y243232D01*
X324621Y243010D01*
X324658Y242825D01*
X324695Y242658D01*
X324714Y242528D01*
X324751Y242454D01*
Y242417D01*
X323417D01*
X323380Y242621D01*
X323343Y242825D01*
X323325Y242899D01*
X323306Y242973D01*
Y243029D01*
X323269Y243269D01*
X323232Y243473D01*
Y243547D01*
X323214Y243621D01*
Y243677D01*
X323177Y243917D01*
X323158Y244121D01*
X323140Y244214D01*
Y244325D01*
X323121Y244547D01*
X323103Y244732D01*
Y244917D01*
X323121Y245306D01*
X323140Y245658D01*
X323177Y245973D01*
X323232Y246250D01*
X323288Y246473D01*
X323325Y246621D01*
X323343Y246732D01*
X323362Y246769D01*
X323473Y247047D01*
X323584Y247287D01*
X323695Y247509D01*
X323806Y247676D01*
X323899Y247824D01*
X323973Y247935D01*
X324028Y248009D01*
X324047Y248028D01*
X324214Y248195D01*
X324380Y248343D01*
X324547Y248472D01*
X324695Y248565D01*
X324825Y248639D01*
X324917Y248713D01*
X324991Y248732D01*
X325010Y248750D01*
X325213Y248824D01*
X325417Y248880D01*
X325602Y248917D01*
X325769Y248935D01*
X325917Y248954D01*
X326028Y248972D01*
X326102D01*
X326121D01*
X326343Y248954D01*
X326565Y248935D01*
X326750Y248898D01*
X326917Y248843D01*
X327047Y248806D01*
X327139Y248769D01*
X327213Y248750D01*
X327232Y248732D01*
X327547Y248528D01*
X327695Y248417D01*
X327806Y248324D01*
X327917Y248232D01*
X327991Y248158D01*
X328028Y248121D01*
X328046Y248102D01*
X328287Y247787D01*
X328380Y247621D01*
X328472Y247491D01*
X328546Y247361D01*
X328583Y247269D01*
X328620Y247195D01*
X328639Y247176D01*
X328824Y246787D01*
X328898Y246621D01*
X328972Y246454D01*
X329028Y246325D01*
X329083Y246232D01*
X329102Y246158D01*
X329120Y246139D01*
X329269Y245750D01*
X329343Y245565D01*
X329398Y245417D01*
X329454Y245269D01*
X329491Y245176D01*
X329509Y245102D01*
X329528Y245084D01*
X329695Y244713D01*
X329768Y244565D01*
X329843Y244436D01*
X329898Y244325D01*
X329954Y244251D01*
X329972Y244195D01*
X329991Y244177D01*
X330176Y243899D01*
X330269Y243788D01*
X330361Y243695D01*
X330435Y243621D01*
X330491Y243566D01*
X330528Y243547D01*
X330546Y243528D01*
X330676Y243436D01*
X330787Y243380D01*
X331028Y243306D01*
X331139Y243288D01*
X331213Y243269D01*
X331268D01*
X331287D01*
X331565Y243288D01*
X331694Y243306D01*
X331805Y243343D01*
X331898Y243362D01*
X331972Y243399D01*
X332009Y243417D01*
X332028D01*
X332250Y243547D01*
X332416Y243714D01*
X332472Y243788D01*
X332528Y243843D01*
X332546Y243880D01*
X332565Y243899D01*
X332694Y244158D01*
X332805Y244417D01*
X332824Y244547D01*
X332861Y244621D01*
X332879Y244695D01*
Y244713D01*
X332916Y244917D01*
X332935Y245121D01*
X332972Y245325D01*
Y245510D01*
X332990Y245676D01*
Y246306D01*
X332972Y246639D01*
X332953Y246936D01*
X332916Y247195D01*
X332898Y247417D01*
X332879Y247584D01*
X332861Y247676D01*
Y247713D01*
X332805Y247991D01*
X332750Y248250D01*
X332694Y248491D01*
X332620Y248695D01*
X332565Y248861D01*
X332528Y248991D01*
X332509Y249065D01*
X332491Y249102D01*
X333916D01*
X333972Y248880D01*
D02*
G37*
G36*
X327010Y237788D02*
X331380D01*
X331898Y237751D01*
X332342Y237659D01*
X332713Y237548D01*
X333027Y237399D01*
X333268Y237251D01*
X333435Y237140D01*
X333527Y237048D01*
X333564Y237011D01*
X333694Y236863D01*
X333805Y236677D01*
X333972Y236307D01*
X334101Y235918D01*
X334175Y235548D01*
X334231Y235196D01*
X334249Y235048D01*
Y234918D01*
X334268Y234807D01*
Y234659D01*
X334249Y234270D01*
Y234085D01*
X334231Y233937D01*
Y233789D01*
X334212Y233696D01*
Y233603D01*
X334157Y233215D01*
X334138Y233048D01*
X334101Y232881D01*
X334083Y232752D01*
X334064Y232659D01*
X334046Y232585D01*
Y232567D01*
X332787D01*
X332879Y232937D01*
X332916Y233104D01*
X332935Y233252D01*
X332972Y233381D01*
Y233474D01*
X332990Y233548D01*
Y233566D01*
X333027Y233900D01*
Y234067D01*
X333046Y234196D01*
Y234455D01*
X333027Y234789D01*
X332972Y235066D01*
X332898Y235307D01*
X332824Y235511D01*
X332750Y235659D01*
X332676Y235770D01*
X332620Y235844D01*
X332602Y235863D01*
X332416Y236029D01*
X332213Y236140D01*
X331991Y236233D01*
X331768Y236289D01*
X331565Y236325D01*
X331417Y236344D01*
X331305D01*
X331287D01*
X331268D01*
X327010D01*
Y232567D01*
X325788D01*
Y236344D01*
X323103D01*
X323491Y237788D01*
X325788D01*
Y240121D01*
X327010D01*
Y237788D01*
D02*
G37*
G36*
X330361Y230252D02*
X330713Y230233D01*
X331009Y230196D01*
X331287Y230159D01*
X331509Y230122D01*
X331676Y230085D01*
X331787Y230048D01*
X331805D01*
X331824D01*
X332102Y229956D01*
X332379Y229826D01*
X332602Y229715D01*
X332805Y229585D01*
X332953Y229474D01*
X333083Y229382D01*
X333157Y229326D01*
X333176Y229308D01*
X333379Y229104D01*
X333546Y228900D01*
X333694Y228678D01*
X333805Y228474D01*
X333898Y228308D01*
X333972Y228160D01*
X334009Y228067D01*
X334027Y228030D01*
X334120Y227734D01*
X334194Y227419D01*
X334231Y227104D01*
X334268Y226808D01*
X334287Y226567D01*
X334305Y226364D01*
Y225882D01*
X334287Y225604D01*
X334268Y225345D01*
X334249Y225104D01*
X334231Y224919D01*
X334212Y224771D01*
X334194Y224678D01*
Y224641D01*
X334157Y224364D01*
X334120Y224104D01*
X334064Y223882D01*
X334027Y223679D01*
X333990Y223512D01*
X333953Y223401D01*
X333935Y223308D01*
Y223290D01*
X332750D01*
X332805Y223493D01*
X332842Y223697D01*
X332861Y223771D01*
X332879Y223827D01*
X332898Y223864D01*
Y223882D01*
X332935Y224123D01*
X332972Y224327D01*
X332990Y224419D01*
Y224493D01*
X333009Y224530D01*
Y224549D01*
X333027Y224790D01*
X333064Y225030D01*
Y225123D01*
X333083Y225197D01*
Y225253D01*
X333102Y225512D01*
Y225975D01*
X333064Y226456D01*
X332990Y226863D01*
X332879Y227215D01*
X332750Y227512D01*
X332639Y227752D01*
X332528Y227919D01*
X332453Y228011D01*
X332416Y228049D01*
X332139Y228289D01*
X331824Y228456D01*
X331491Y228585D01*
X331176Y228660D01*
X330880Y228715D01*
X330750Y228734D01*
X330639D01*
X330565Y228752D01*
X330491D01*
X330454D01*
X330435D01*
Y222882D01*
X330305Y222864D01*
X330194D01*
X330102D01*
X330065D01*
X329880Y222845D01*
X329713D01*
X329639D01*
X329583D01*
X329546D01*
X329528D01*
X329194Y222864D01*
X328898Y222882D01*
X328639Y222920D01*
X328398Y222957D01*
X328213Y223012D01*
X328065Y223049D01*
X327972Y223068D01*
X327935Y223086D01*
X327676Y223179D01*
X327435Y223290D01*
X327232Y223419D01*
X327047Y223531D01*
X326917Y223623D01*
X326806Y223716D01*
X326732Y223771D01*
X326713Y223790D01*
X326528Y223975D01*
X326362Y224160D01*
X326232Y224364D01*
X326121Y224530D01*
X326028Y224697D01*
X325973Y224827D01*
X325936Y224901D01*
X325917Y224938D01*
X325825Y225197D01*
X325750Y225456D01*
X325713Y225716D01*
X325676Y225956D01*
X325658Y226160D01*
X325639Y226327D01*
Y226475D01*
X325658Y226808D01*
X325695Y227104D01*
X325750Y227382D01*
X325806Y227623D01*
X325880Y227808D01*
X325936Y227956D01*
X325973Y228049D01*
X325991Y228086D01*
X326139Y228345D01*
X326287Y228567D01*
X326454Y228771D01*
X326602Y228956D01*
X326750Y229086D01*
X326861Y229197D01*
X326936Y229271D01*
X326954Y229289D01*
X327176Y229456D01*
X327417Y229604D01*
X327658Y229734D01*
X327861Y229845D01*
X328065Y229919D01*
X328213Y229974D01*
X328306Y230011D01*
X328324Y230030D01*
X328343D01*
X328639Y230104D01*
X328935Y230159D01*
X329213Y230215D01*
X329454Y230233D01*
X329676Y230252D01*
X329843Y230271D01*
X329954D01*
X329972D01*
X329991D01*
X330361Y230252D01*
D02*
G37*
G36*
X337583Y219086D02*
X334083D01*
X334138Y218790D01*
X334157Y218661D01*
Y218531D01*
X334175Y218438D01*
X334194Y218364D01*
Y218290D01*
X334231Y217994D01*
X334249Y217753D01*
Y217494D01*
X334231Y217179D01*
X334212Y216883D01*
X334175Y216605D01*
X334120Y216365D01*
X334064Y216161D01*
X334027Y216013D01*
X334009Y215920D01*
X333990Y215883D01*
X333879Y215605D01*
X333750Y215365D01*
X333601Y215124D01*
X333472Y214939D01*
X333342Y214791D01*
X333250Y214661D01*
X333176Y214587D01*
X333157Y214569D01*
X332935Y214365D01*
X332713Y214198D01*
X332472Y214050D01*
X332268Y213920D01*
X332065Y213828D01*
X331917Y213754D01*
X331824Y213717D01*
X331787Y213698D01*
X331454Y213587D01*
X331120Y213513D01*
X330806Y213458D01*
X330491Y213421D01*
X330231Y213402D01*
X330009Y213383D01*
X329935D01*
X329880D01*
X329843D01*
X329824D01*
X329472D01*
X329157Y213421D01*
X328861Y213439D01*
X328620Y213476D01*
X328417Y213513D01*
X328250Y213532D01*
X328158Y213569D01*
X328121D01*
X327843Y213643D01*
X327584Y213735D01*
X327361Y213828D01*
X327176Y213920D01*
X327010Y213995D01*
X326898Y214069D01*
X326824Y214106D01*
X326806Y214124D01*
X326602Y214272D01*
X326436Y214420D01*
X326287Y214569D01*
X326176Y214717D01*
X326084Y214846D01*
X326010Y214939D01*
X325973Y215013D01*
X325954Y215031D01*
X325843Y215235D01*
X325769Y215457D01*
X325713Y215661D01*
X325676Y215865D01*
X325658Y216031D01*
X325639Y216161D01*
Y216290D01*
X325658Y216587D01*
X325695Y216883D01*
X325750Y217142D01*
X325806Y217365D01*
X325880Y217568D01*
X325936Y217698D01*
X325973Y217790D01*
X325991Y217827D01*
X326139Y218087D01*
X326324Y218327D01*
X326528Y218550D01*
X326732Y218753D01*
X326898Y218920D01*
X327047Y219049D01*
X327158Y219124D01*
X327176Y219161D01*
X327195D01*
X325788Y219253D01*
Y220531D01*
X337583D01*
Y219086D01*
D02*
G37*
G36*
X330305Y205292D02*
X328935D01*
Y210273D01*
X330305D01*
Y205292D01*
D02*
G37*
G36*
X334157Y199478D02*
X334120Y199126D01*
X334101Y198811D01*
X334064Y198533D01*
X334027Y198311D01*
X334009Y198144D01*
X333972Y198033D01*
Y197996D01*
X333898Y197700D01*
X333805Y197422D01*
X333713Y197181D01*
X333620Y196978D01*
X333546Y196811D01*
X333472Y196681D01*
X333435Y196589D01*
X333416Y196570D01*
X333287Y196348D01*
X333139Y196145D01*
X332990Y195959D01*
X332861Y195811D01*
X332750Y195681D01*
X332639Y195589D01*
X332583Y195533D01*
X332565Y195515D01*
X332176Y195219D01*
X331972Y195107D01*
X331805Y195015D01*
X331657Y194941D01*
X331546Y194885D01*
X331454Y194848D01*
X331435Y194830D01*
X330972Y194663D01*
X330750Y194589D01*
X330546Y194534D01*
X330361Y194496D01*
X330231Y194459D01*
X330139Y194441D01*
X330102D01*
X329565Y194367D01*
X329306Y194348D01*
X329083Y194330D01*
X328880Y194311D01*
X328732D01*
X328639D01*
X328602D01*
X328102Y194330D01*
X327658Y194367D01*
X327232Y194422D01*
X326824Y194515D01*
X326473Y194608D01*
X326139Y194700D01*
X325843Y194830D01*
X325584Y194941D01*
X325343Y195052D01*
X325139Y195163D01*
X324973Y195274D01*
X324825Y195367D01*
X324714Y195459D01*
X324639Y195515D01*
X324602Y195552D01*
X324584Y195570D01*
X324343Y195811D01*
X324158Y196089D01*
X323973Y196385D01*
X323825Y196700D01*
X323695Y197015D01*
X323584Y197330D01*
X323510Y197644D01*
X323436Y197941D01*
X323380Y198237D01*
X323343Y198515D01*
X323306Y198755D01*
X323288Y198959D01*
X323269Y199144D01*
Y202181D01*
X334157D01*
Y199478D01*
D02*
G37*
G36*
X330398Y192923D02*
X330750Y192904D01*
X331065Y192867D01*
X331342Y192812D01*
X331565Y192756D01*
X331731Y192719D01*
X331842Y192700D01*
X331861Y192682D01*
X331879D01*
X332157Y192571D01*
X332416Y192460D01*
X332657Y192330D01*
X332842Y192219D01*
X333009Y192108D01*
X333120Y192015D01*
X333194Y191960D01*
X333213Y191941D01*
X333398Y191737D01*
X333564Y191534D01*
X333713Y191349D01*
X333824Y191145D01*
X333916Y190978D01*
X333972Y190849D01*
X334009Y190775D01*
X334027Y190738D01*
X334120Y190460D01*
X334194Y190182D01*
X334231Y189904D01*
X334268Y189645D01*
X334287Y189442D01*
X334305Y189256D01*
Y189108D01*
X334287Y188756D01*
X334249Y188442D01*
X334212Y188164D01*
X334138Y187905D01*
X334083Y187701D01*
X334046Y187553D01*
X334009Y187460D01*
X333990Y187423D01*
X333861Y187164D01*
X333713Y186905D01*
X333564Y186701D01*
X333435Y186516D01*
X333305Y186368D01*
X333194Y186257D01*
X333120Y186182D01*
X333102Y186164D01*
X332879Y185979D01*
X332639Y185812D01*
X332398Y185683D01*
X332176Y185571D01*
X331991Y185479D01*
X331842Y185423D01*
X331750Y185386D01*
X331713Y185368D01*
X331398Y185275D01*
X331083Y185201D01*
X330787Y185164D01*
X330509Y185127D01*
X330269Y185109D01*
X330083Y185090D01*
X330009D01*
X329954D01*
X329935D01*
X329917D01*
X329546Y185109D01*
X329194Y185127D01*
X328880Y185183D01*
X328602Y185220D01*
X328398Y185275D01*
X328232Y185331D01*
X328121Y185349D01*
X328083Y185368D01*
X327806Y185479D01*
X327547Y185590D01*
X327306Y185720D01*
X327121Y185849D01*
X326954Y185960D01*
X326843Y186053D01*
X326769Y186108D01*
X326750Y186127D01*
X326565Y186312D01*
X326399Y186516D01*
X326250Y186719D01*
X326139Y186905D01*
X326047Y187071D01*
X325991Y187201D01*
X325954Y187293D01*
X325936Y187331D01*
X325843Y187608D01*
X325769Y187886D01*
X325713Y188145D01*
X325676Y188405D01*
X325658Y188608D01*
X325639Y188793D01*
Y188941D01*
X325658Y189293D01*
X325695Y189608D01*
X325750Y189886D01*
X325806Y190145D01*
X325862Y190349D01*
X325917Y190497D01*
X325954Y190590D01*
X325973Y190627D01*
X326102Y190886D01*
X326250Y191126D01*
X326399Y191349D01*
X326547Y191534D01*
X326676Y191682D01*
X326787Y191793D01*
X326861Y191867D01*
X326880Y191886D01*
X327102Y192071D01*
X327343Y192219D01*
X327565Y192367D01*
X327787Y192478D01*
X327972Y192571D01*
X328139Y192626D01*
X328232Y192663D01*
X328250Y192682D01*
X328269D01*
X328565Y192774D01*
X328880Y192830D01*
X329176Y192885D01*
X329454Y192904D01*
X329676Y192923D01*
X329861Y192941D01*
X329935D01*
X329991D01*
X330009D01*
X330028D01*
X330398Y192923D01*
D02*
G37*
G36*
X334157Y182812D02*
Y181109D01*
X330713Y179942D01*
X329806Y179665D01*
X330657Y179424D01*
X334157Y178202D01*
Y176443D01*
X325788Y175239D01*
Y176665D01*
X331528Y177313D01*
X332694Y177443D01*
X331602Y177813D01*
X327880Y179128D01*
Y180165D01*
X331657Y181405D01*
X332750Y181757D01*
X331491Y181905D01*
X325788Y182590D01*
Y184016D01*
X334157Y182812D01*
D02*
G37*
G36*
Y172147D02*
X328620D01*
X328435Y171999D01*
X328287Y171869D01*
X328139Y171758D01*
X328009Y171647D01*
X327917Y171554D01*
X327843Y171499D01*
X327806Y171462D01*
X327787Y171443D01*
X327565Y171203D01*
X327398Y171017D01*
X327343Y170943D01*
X327306Y170888D01*
X327269Y170851D01*
Y170832D01*
X327139Y170629D01*
X327047Y170462D01*
X327010Y170351D01*
X326991Y170332D01*
Y170314D01*
X326936Y170129D01*
X326917Y169944D01*
X326898Y169869D01*
Y169777D01*
X326917Y169518D01*
X326973Y169295D01*
X327047Y169110D01*
X327139Y168962D01*
X327232Y168832D01*
X327306Y168758D01*
X327361Y168703D01*
X327380Y168684D01*
X327565Y168555D01*
X327806Y168462D01*
X328046Y168407D01*
X328269Y168351D01*
X328491Y168333D01*
X328657Y168314D01*
X328732D01*
X328787D01*
X328806D01*
X328824D01*
X334157D01*
Y166870D01*
X328713D01*
X328176Y166907D01*
X327713Y166981D01*
X327306Y167073D01*
X326991Y167203D01*
X326732Y167333D01*
X326565Y167425D01*
X326454Y167499D01*
X326417Y167536D01*
X326158Y167814D01*
X325973Y168129D01*
X325825Y168444D01*
X325732Y168758D01*
X325676Y169055D01*
X325658Y169184D01*
Y169277D01*
X325639Y169370D01*
Y169499D01*
X325658Y169758D01*
X325676Y169999D01*
X325695Y170092D01*
Y170166D01*
X325713Y170203D01*
Y170221D01*
X325788Y170462D01*
X325862Y170684D01*
X325917Y170758D01*
X325936Y170832D01*
X325973Y170869D01*
Y170888D01*
X326121Y171129D01*
X326269Y171332D01*
X326324Y171425D01*
X326380Y171499D01*
X326417Y171536D01*
X326436Y171554D01*
X326658Y171795D01*
X326898Y172036D01*
X326991Y172128D01*
X327065Y172202D01*
X327121Y172239D01*
X327139Y172258D01*
X325788Y172314D01*
Y173591D01*
X334157D01*
Y172147D01*
D02*
G37*
G36*
X329324Y155371D02*
X329787Y155334D01*
X330213Y155278D01*
X330620Y155204D01*
X330972Y155112D01*
X331305Y155001D01*
X331620Y154889D01*
X331879Y154778D01*
X332120Y154667D01*
X332342Y154556D01*
X332509Y154445D01*
X332657Y154353D01*
X332768Y154278D01*
X332842Y154223D01*
X332898Y154186D01*
X332916Y154167D01*
X333157Y153927D01*
X333361Y153649D01*
X333546Y153371D01*
X333713Y153093D01*
X333842Y152797D01*
X333953Y152501D01*
X334046Y152205D01*
X334120Y151927D01*
X334175Y151649D01*
X334212Y151408D01*
X334249Y151186D01*
X334268Y151001D01*
Y150834D01*
X334287Y150705D01*
Y150612D01*
X334268Y150075D01*
X334194Y149575D01*
X334120Y149112D01*
X334009Y148686D01*
X333972Y148501D01*
X333916Y148353D01*
X333879Y148205D01*
X333824Y148075D01*
X333805Y147983D01*
X333768Y147909D01*
X333750Y147872D01*
Y147853D01*
X332342D01*
X332546Y148316D01*
X332620Y148520D01*
X332676Y148705D01*
X332731Y148872D01*
X332768Y149001D01*
X332805Y149075D01*
Y149112D01*
X332898Y149594D01*
X332916Y149816D01*
X332935Y150020D01*
X332953Y150186D01*
Y150445D01*
X332935Y150742D01*
X332898Y151038D01*
X332861Y151297D01*
X332787Y151538D01*
X332713Y151760D01*
X332620Y151982D01*
X332509Y152168D01*
X332416Y152334D01*
X332324Y152482D01*
X332213Y152612D01*
X332120Y152723D01*
X332046Y152797D01*
X331972Y152871D01*
X331917Y152927D01*
X331898Y152945D01*
X331879Y152964D01*
X331657Y153112D01*
X331435Y153242D01*
X330935Y153464D01*
X330398Y153612D01*
X329880Y153704D01*
X329639Y153742D01*
X329417Y153778D01*
X329213Y153797D01*
X329046D01*
X328898Y153815D01*
X328787D01*
X328713D01*
X328695D01*
X328324Y153797D01*
X327991Y153778D01*
X327695Y153742D01*
X327435Y153704D01*
X327213Y153667D01*
X327047Y153630D01*
X326954Y153593D01*
X326917D01*
X326639Y153501D01*
X326380Y153390D01*
X326139Y153279D01*
X325954Y153167D01*
X325788Y153075D01*
X325676Y153001D01*
X325602Y152945D01*
X325584Y152927D01*
X325380Y152760D01*
X325213Y152575D01*
X325065Y152390D01*
X324954Y152223D01*
X324862Y152093D01*
X324788Y151964D01*
X324751Y151890D01*
X324732Y151871D01*
X324639Y151631D01*
X324565Y151390D01*
X324510Y151149D01*
X324473Y150945D01*
X324454Y150760D01*
X324436Y150612D01*
Y150205D01*
X324473Y149945D01*
X324491Y149705D01*
X324528Y149501D01*
X324565Y149334D01*
X324584Y149205D01*
X324621Y149131D01*
Y149094D01*
X324769Y148631D01*
X324843Y148427D01*
X324917Y148242D01*
X324991Y148075D01*
X325047Y147964D01*
X325084Y147872D01*
X325102Y147853D01*
X323639D01*
X323473Y148316D01*
X323399Y148520D01*
X323343Y148705D01*
X323306Y148872D01*
X323269Y149001D01*
X323251Y149075D01*
Y149112D01*
X323177Y149612D01*
X323158Y149834D01*
X323140Y150057D01*
X323121Y150242D01*
Y150520D01*
X323140Y150927D01*
X323177Y151316D01*
X323251Y151668D01*
X323325Y151964D01*
X323399Y152205D01*
X323473Y152390D01*
X323491Y152464D01*
X323510Y152519D01*
X323528Y152538D01*
Y152556D01*
X323695Y152871D01*
X323880Y153167D01*
X324065Y153427D01*
X324251Y153649D01*
X324417Y153834D01*
X324547Y153982D01*
X324639Y154056D01*
X324677Y154093D01*
X324954Y154316D01*
X325269Y154501D01*
X325565Y154667D01*
X325843Y154815D01*
X326102Y154908D01*
X326287Y155001D01*
X326362Y155019D01*
X326417Y155038D01*
X326454Y155056D01*
X326473D01*
X326880Y155167D01*
X327287Y155241D01*
X327695Y155315D01*
X328046Y155352D01*
X328361Y155371D01*
X328509D01*
X328620Y155389D01*
X328713D01*
X328787D01*
X328824D01*
X328843D01*
X329324Y155371D01*
D02*
G37*
G36*
X330398Y145983D02*
X330750Y145964D01*
X331065Y145927D01*
X331342Y145872D01*
X331565Y145816D01*
X331731Y145779D01*
X331842Y145761D01*
X331861Y145742D01*
X331879D01*
X332157Y145631D01*
X332416Y145520D01*
X332657Y145391D01*
X332842Y145279D01*
X333009Y145168D01*
X333120Y145076D01*
X333194Y145020D01*
X333213Y145002D01*
X333398Y144798D01*
X333564Y144594D01*
X333713Y144409D01*
X333824Y144205D01*
X333916Y144039D01*
X333972Y143909D01*
X334009Y143835D01*
X334027Y143798D01*
X334120Y143520D01*
X334194Y143243D01*
X334231Y142965D01*
X334268Y142706D01*
X334287Y142502D01*
X334305Y142317D01*
Y142169D01*
X334287Y141817D01*
X334249Y141502D01*
X334212Y141224D01*
X334138Y140965D01*
X334083Y140761D01*
X334046Y140613D01*
X334009Y140521D01*
X333990Y140484D01*
X333861Y140224D01*
X333713Y139965D01*
X333564Y139761D01*
X333435Y139576D01*
X333305Y139428D01*
X333194Y139317D01*
X333120Y139243D01*
X333102Y139224D01*
X332879Y139039D01*
X332639Y138873D01*
X332398Y138743D01*
X332176Y138632D01*
X331991Y138539D01*
X331842Y138484D01*
X331750Y138447D01*
X331713Y138428D01*
X331398Y138336D01*
X331083Y138262D01*
X330787Y138224D01*
X330509Y138188D01*
X330269Y138169D01*
X330083Y138151D01*
X330009D01*
X329954D01*
X329935D01*
X329917D01*
X329546Y138169D01*
X329194Y138188D01*
X328880Y138243D01*
X328602Y138280D01*
X328398Y138336D01*
X328232Y138391D01*
X328121Y138410D01*
X328083Y138428D01*
X327806Y138539D01*
X327547Y138650D01*
X327306Y138780D01*
X327121Y138910D01*
X326954Y139021D01*
X326843Y139113D01*
X326769Y139169D01*
X326750Y139187D01*
X326565Y139373D01*
X326399Y139576D01*
X326250Y139780D01*
X326139Y139965D01*
X326047Y140132D01*
X325991Y140261D01*
X325954Y140354D01*
X325936Y140391D01*
X325843Y140669D01*
X325769Y140947D01*
X325713Y141206D01*
X325676Y141465D01*
X325658Y141669D01*
X325639Y141854D01*
Y142002D01*
X325658Y142354D01*
X325695Y142669D01*
X325750Y142946D01*
X325806Y143205D01*
X325862Y143409D01*
X325917Y143557D01*
X325954Y143650D01*
X325973Y143687D01*
X326102Y143946D01*
X326250Y144187D01*
X326399Y144409D01*
X326547Y144594D01*
X326676Y144742D01*
X326787Y144853D01*
X326861Y144928D01*
X326880Y144946D01*
X327102Y145131D01*
X327343Y145279D01*
X327565Y145428D01*
X327787Y145539D01*
X327972Y145631D01*
X328139Y145687D01*
X328232Y145724D01*
X328250Y145742D01*
X328269D01*
X328565Y145835D01*
X328880Y145890D01*
X329176Y145946D01*
X329454Y145964D01*
X329676Y145983D01*
X329861Y146002D01*
X329935D01*
X329991D01*
X330009D01*
X330028D01*
X330398Y145983D01*
D02*
G37*
G36*
X334157Y134595D02*
X328620D01*
X328435Y134447D01*
X328287Y134318D01*
X328139Y134206D01*
X328009Y134095D01*
X327917Y134003D01*
X327843Y133947D01*
X327806Y133910D01*
X327787Y133892D01*
X327565Y133651D01*
X327398Y133466D01*
X327343Y133392D01*
X327306Y133336D01*
X327269Y133299D01*
Y133281D01*
X327139Y133077D01*
X327047Y132910D01*
X327010Y132799D01*
X326991Y132781D01*
Y132762D01*
X326936Y132577D01*
X326917Y132392D01*
X326898Y132318D01*
Y132225D01*
X326917Y131966D01*
X326973Y131744D01*
X327047Y131559D01*
X327139Y131410D01*
X327232Y131281D01*
X327306Y131207D01*
X327361Y131151D01*
X327380Y131133D01*
X327565Y131003D01*
X327806Y130911D01*
X328046Y130855D01*
X328269Y130799D01*
X328491Y130781D01*
X328658Y130762D01*
X328732D01*
X328787D01*
X328806D01*
X328824D01*
X334157D01*
Y129318D01*
X328713D01*
X328176Y129355D01*
X327713Y129429D01*
X327306Y129522D01*
X326991Y129651D01*
X326732Y129781D01*
X326565Y129874D01*
X326454Y129948D01*
X326417Y129985D01*
X326158Y130262D01*
X325973Y130577D01*
X325825Y130892D01*
X325732Y131207D01*
X325676Y131503D01*
X325658Y131633D01*
Y131725D01*
X325639Y131818D01*
Y131947D01*
X325658Y132207D01*
X325676Y132447D01*
X325695Y132540D01*
Y132614D01*
X325713Y132651D01*
Y132670D01*
X325788Y132910D01*
X325862Y133132D01*
X325917Y133207D01*
X325936Y133281D01*
X325973Y133318D01*
Y133336D01*
X326121Y133577D01*
X326269Y133781D01*
X326325Y133873D01*
X326380Y133947D01*
X326417Y133984D01*
X326436Y134003D01*
X326658Y134243D01*
X326898Y134484D01*
X326991Y134577D01*
X327065Y134651D01*
X327121Y134688D01*
X327139Y134706D01*
X325788Y134762D01*
Y136040D01*
X334157D01*
Y134595D01*
D02*
G37*
G36*
Y124170D02*
Y122504D01*
X325788Y119208D01*
Y120800D01*
X331305Y122837D01*
X332694Y123300D01*
X331343Y123745D01*
X325788Y125800D01*
Y127448D01*
X334157Y124170D01*
D02*
G37*
G36*
X330361Y117597D02*
X330713Y117578D01*
X331009Y117542D01*
X331287Y117505D01*
X331509Y117467D01*
X331676Y117430D01*
X331787Y117393D01*
X331805D01*
X331824D01*
X332102Y117301D01*
X332379Y117171D01*
X332602Y117060D01*
X332805Y116930D01*
X332953Y116819D01*
X333083Y116727D01*
X333157Y116671D01*
X333176Y116653D01*
X333379Y116449D01*
X333546Y116245D01*
X333694Y116023D01*
X333805Y115820D01*
X333898Y115653D01*
X333972Y115505D01*
X334009Y115412D01*
X334027Y115375D01*
X334120Y115079D01*
X334194Y114764D01*
X334231Y114449D01*
X334268Y114153D01*
X334287Y113912D01*
X334305Y113709D01*
Y113227D01*
X334287Y112949D01*
X334268Y112690D01*
X334250Y112449D01*
X334231Y112264D01*
X334212Y112116D01*
X334194Y112024D01*
Y111987D01*
X334157Y111709D01*
X334120Y111449D01*
X334064Y111227D01*
X334027Y111024D01*
X333990Y110857D01*
X333953Y110746D01*
X333935Y110653D01*
Y110635D01*
X332750D01*
X332805Y110838D01*
X332842Y111042D01*
X332861Y111116D01*
X332879Y111172D01*
X332898Y111209D01*
Y111227D01*
X332935Y111468D01*
X332972Y111672D01*
X332990Y111764D01*
Y111838D01*
X333009Y111875D01*
Y111894D01*
X333027Y112135D01*
X333064Y112375D01*
Y112468D01*
X333083Y112542D01*
Y112598D01*
X333102Y112857D01*
Y113320D01*
X333064Y113801D01*
X332990Y114208D01*
X332879Y114560D01*
X332750Y114857D01*
X332639Y115097D01*
X332528Y115264D01*
X332453Y115357D01*
X332416Y115394D01*
X332139Y115634D01*
X331824Y115801D01*
X331491Y115931D01*
X331176Y116005D01*
X330880Y116060D01*
X330750Y116079D01*
X330639D01*
X330565Y116097D01*
X330491D01*
X330454D01*
X330435D01*
Y110227D01*
X330305Y110209D01*
X330194D01*
X330102D01*
X330065D01*
X329880Y110190D01*
X329713D01*
X329639D01*
X329583D01*
X329546D01*
X329528D01*
X329194Y110209D01*
X328898Y110227D01*
X328639Y110265D01*
X328398Y110302D01*
X328213Y110357D01*
X328065Y110394D01*
X327972Y110413D01*
X327935Y110431D01*
X327676Y110524D01*
X327435Y110635D01*
X327232Y110764D01*
X327047Y110876D01*
X326917Y110968D01*
X326806Y111061D01*
X326732Y111116D01*
X326713Y111135D01*
X326528Y111320D01*
X326362Y111505D01*
X326232Y111709D01*
X326121Y111875D01*
X326028Y112042D01*
X325973Y112172D01*
X325936Y112246D01*
X325917Y112283D01*
X325825Y112542D01*
X325751Y112801D01*
X325713Y113061D01*
X325676Y113301D01*
X325658Y113505D01*
X325639Y113672D01*
Y113820D01*
X325658Y114153D01*
X325695Y114449D01*
X325751Y114727D01*
X325806Y114968D01*
X325880Y115153D01*
X325936Y115301D01*
X325973Y115394D01*
X325991Y115431D01*
X326139Y115690D01*
X326287Y115912D01*
X326454Y116116D01*
X326602Y116301D01*
X326750Y116431D01*
X326861Y116542D01*
X326936Y116616D01*
X326954Y116634D01*
X327176Y116801D01*
X327417Y116949D01*
X327658Y117079D01*
X327861Y117190D01*
X328065Y117264D01*
X328213Y117319D01*
X328306Y117356D01*
X328324Y117375D01*
X328343D01*
X328639Y117449D01*
X328935Y117505D01*
X329213Y117560D01*
X329454Y117578D01*
X329676Y117597D01*
X329843Y117616D01*
X329954D01*
X329972D01*
X329991D01*
X330361Y117597D01*
D02*
G37*
G36*
X334157Y106080D02*
X328787D01*
X328602Y105932D01*
X328435Y105802D01*
X328306Y105672D01*
X328176Y105561D01*
X328065Y105469D01*
X327991Y105395D01*
X327954Y105358D01*
X327935Y105339D01*
X327695Y105080D01*
X327491Y104876D01*
X327435Y104784D01*
X327380Y104728D01*
X327361Y104691D01*
X327343Y104672D01*
X327195Y104450D01*
X327084Y104247D01*
X327047Y104172D01*
X327028Y104117D01*
X327010Y104080D01*
Y104061D01*
X326936Y103839D01*
X326917Y103654D01*
X326898Y103598D01*
Y103487D01*
X326917Y103247D01*
X326973Y103043D01*
X327065Y102876D01*
X327139Y102728D01*
X327232Y102617D01*
X327324Y102524D01*
X327380Y102487D01*
X327398Y102469D01*
X327602Y102358D01*
X327861Y102265D01*
X328121Y102210D01*
X328380Y102173D01*
X328602Y102154D01*
X328787Y102136D01*
X328861D01*
X328917D01*
X328954D01*
X328972D01*
Y100673D01*
X328676D01*
X328398Y100691D01*
X328139Y100710D01*
X327880Y100747D01*
X327658Y100802D01*
X327454Y100858D01*
X327287Y100914D01*
X327121Y100969D01*
X326973Y101025D01*
X326843Y101099D01*
X326732Y101154D01*
X326639Y101191D01*
X326584Y101247D01*
X326528Y101265D01*
X326491Y101302D01*
X326343Y101432D01*
X326213Y101580D01*
X325991Y101895D01*
X325843Y102210D01*
X325751Y102524D01*
X325676Y102821D01*
X325658Y102950D01*
Y103043D01*
X325639Y103136D01*
Y103265D01*
X325658Y103543D01*
X325695Y103802D01*
X325769Y104061D01*
X325843Y104265D01*
X325917Y104469D01*
X325991Y104598D01*
X326028Y104691D01*
X326047Y104728D01*
X326213Y105006D01*
X326417Y105265D01*
X326639Y105506D01*
X326843Y105728D01*
X327047Y105913D01*
X327195Y106061D01*
X327306Y106154D01*
X327324Y106191D01*
X327343D01*
X325788Y106228D01*
Y107542D01*
X334157D01*
Y106080D01*
D02*
G37*
G36*
X327010Y96970D02*
X331380D01*
X331898Y96932D01*
X332342Y96840D01*
X332713Y96729D01*
X333027Y96581D01*
X333268Y96433D01*
X333435Y96321D01*
X333527Y96229D01*
X333564Y96192D01*
X333694Y96044D01*
X333805Y95859D01*
X333972Y95488D01*
X334101Y95099D01*
X334175Y94729D01*
X334231Y94377D01*
X334250Y94229D01*
Y94100D01*
X334268Y93988D01*
Y93840D01*
X334250Y93451D01*
Y93266D01*
X334231Y93118D01*
Y92970D01*
X334212Y92877D01*
Y92785D01*
X334157Y92396D01*
X334138Y92229D01*
X334101Y92063D01*
X334083Y91933D01*
X334064Y91840D01*
X334046Y91766D01*
Y91748D01*
X332787D01*
X332879Y92118D01*
X332916Y92285D01*
X332935Y92433D01*
X332972Y92563D01*
Y92655D01*
X332990Y92729D01*
Y92748D01*
X333027Y93081D01*
Y93248D01*
X333046Y93377D01*
Y93637D01*
X333027Y93970D01*
X332972Y94248D01*
X332898Y94488D01*
X332824Y94692D01*
X332750Y94840D01*
X332676Y94951D01*
X332620Y95025D01*
X332602Y95044D01*
X332416Y95211D01*
X332213Y95322D01*
X331991Y95414D01*
X331768Y95470D01*
X331565Y95507D01*
X331417Y95525D01*
X331305D01*
X331287D01*
X331268D01*
X327010D01*
Y91748D01*
X325788D01*
Y95525D01*
X323103D01*
X323491Y96970D01*
X325788D01*
Y99303D01*
X327010D01*
Y96970D01*
D02*
G37*
G36*
X330361Y89433D02*
X330713Y89415D01*
X331009Y89378D01*
X331287Y89341D01*
X331509Y89304D01*
X331676Y89267D01*
X331787Y89230D01*
X331805D01*
X331824D01*
X332102Y89137D01*
X332379Y89007D01*
X332602Y88896D01*
X332805Y88767D01*
X332953Y88656D01*
X333083Y88563D01*
X333157Y88507D01*
X333176Y88489D01*
X333379Y88285D01*
X333546Y88082D01*
X333694Y87859D01*
X333805Y87656D01*
X333898Y87489D01*
X333972Y87341D01*
X334009Y87248D01*
X334027Y87211D01*
X334120Y86915D01*
X334194Y86600D01*
X334231Y86285D01*
X334268Y85989D01*
X334287Y85749D01*
X334305Y85545D01*
Y85063D01*
X334287Y84786D01*
X334268Y84526D01*
X334250Y84286D01*
X334231Y84101D01*
X334212Y83952D01*
X334194Y83860D01*
Y83823D01*
X334157Y83545D01*
X334120Y83286D01*
X334064Y83064D01*
X334027Y82860D01*
X333990Y82693D01*
X333953Y82582D01*
X333935Y82490D01*
Y82471D01*
X332750D01*
X332805Y82675D01*
X332842Y82878D01*
X332861Y82952D01*
X332879Y83008D01*
X332898Y83045D01*
Y83064D01*
X332935Y83304D01*
X332972Y83508D01*
X332990Y83601D01*
Y83675D01*
X333009Y83712D01*
Y83730D01*
X333027Y83971D01*
X333064Y84212D01*
Y84304D01*
X333083Y84378D01*
Y84434D01*
X333102Y84693D01*
Y85156D01*
X333064Y85637D01*
X332990Y86045D01*
X332879Y86397D01*
X332750Y86693D01*
X332639Y86934D01*
X332528Y87100D01*
X332453Y87193D01*
X332416Y87230D01*
X332139Y87471D01*
X331824Y87637D01*
X331491Y87767D01*
X331176Y87841D01*
X330880Y87896D01*
X330750Y87915D01*
X330639D01*
X330565Y87934D01*
X330491D01*
X330454D01*
X330435D01*
Y82064D01*
X330305Y82045D01*
X330194D01*
X330102D01*
X330065D01*
X329880Y82027D01*
X329713D01*
X329639D01*
X329583D01*
X329546D01*
X329528D01*
X329194Y82045D01*
X328898Y82064D01*
X328639Y82101D01*
X328398Y82138D01*
X328213Y82193D01*
X328065Y82230D01*
X327972Y82249D01*
X327935Y82267D01*
X327676Y82360D01*
X327435Y82471D01*
X327232Y82601D01*
X327047Y82712D01*
X326917Y82804D01*
X326806Y82897D01*
X326732Y82952D01*
X326713Y82971D01*
X326528Y83156D01*
X326362Y83341D01*
X326232Y83545D01*
X326121Y83712D01*
X326028Y83878D01*
X325973Y84008D01*
X325936Y84082D01*
X325917Y84119D01*
X325825Y84378D01*
X325751Y84637D01*
X325713Y84897D01*
X325676Y85137D01*
X325658Y85341D01*
X325639Y85508D01*
Y85656D01*
X325658Y85989D01*
X325695Y86285D01*
X325751Y86563D01*
X325806Y86804D01*
X325880Y86989D01*
X325936Y87137D01*
X325973Y87230D01*
X325991Y87267D01*
X326139Y87526D01*
X326287Y87748D01*
X326454Y87952D01*
X326602Y88137D01*
X326750Y88267D01*
X326861Y88378D01*
X326936Y88452D01*
X326954Y88470D01*
X327176Y88637D01*
X327417Y88785D01*
X327658Y88915D01*
X327861Y89026D01*
X328065Y89100D01*
X328213Y89156D01*
X328306Y89193D01*
X328324Y89211D01*
X328343D01*
X328639Y89285D01*
X328935Y89341D01*
X329213Y89396D01*
X329454Y89415D01*
X329676Y89433D01*
X329843Y89452D01*
X329954D01*
X329972D01*
X329991D01*
X330361Y89433D01*
D02*
G37*
G36*
X334157Y77916D02*
X328787D01*
X328602Y77768D01*
X328435Y77638D01*
X328306Y77509D01*
X328176Y77397D01*
X328065Y77305D01*
X327991Y77231D01*
X327954Y77194D01*
X327935Y77175D01*
X327695Y76916D01*
X327491Y76712D01*
X327435Y76620D01*
X327380Y76564D01*
X327361Y76527D01*
X327343Y76509D01*
X327195Y76287D01*
X327084Y76083D01*
X327047Y76009D01*
X327028Y75953D01*
X327010Y75916D01*
Y75898D01*
X326936Y75676D01*
X326917Y75490D01*
X326898Y75435D01*
Y75324D01*
X326917Y75083D01*
X326973Y74879D01*
X327065Y74713D01*
X327139Y74564D01*
X327232Y74453D01*
X327324Y74361D01*
X327380Y74324D01*
X327398Y74305D01*
X327602Y74194D01*
X327861Y74102D01*
X328121Y74046D01*
X328380Y74009D01*
X328602Y73991D01*
X328787Y73972D01*
X328861D01*
X328917D01*
X328954D01*
X328972D01*
Y72509D01*
X328676D01*
X328398Y72528D01*
X328139Y72546D01*
X327880Y72583D01*
X327658Y72639D01*
X327454Y72694D01*
X327287Y72750D01*
X327121Y72805D01*
X326973Y72861D01*
X326843Y72935D01*
X326732Y72991D01*
X326639Y73028D01*
X326584Y73083D01*
X326528Y73102D01*
X326491Y73139D01*
X326343Y73268D01*
X326213Y73416D01*
X325991Y73731D01*
X325843Y74046D01*
X325751Y74361D01*
X325676Y74657D01*
X325658Y74787D01*
Y74879D01*
X325639Y74972D01*
Y75101D01*
X325658Y75379D01*
X325695Y75638D01*
X325769Y75898D01*
X325843Y76101D01*
X325917Y76305D01*
X325991Y76435D01*
X326028Y76527D01*
X326047Y76564D01*
X326213Y76842D01*
X326417Y77101D01*
X326639Y77342D01*
X326843Y77564D01*
X327047Y77749D01*
X327195Y77898D01*
X327306Y77990D01*
X327324Y78027D01*
X327343D01*
X325788Y78064D01*
Y79379D01*
X334157D01*
Y77916D01*
D02*
G37*
G36*
X143376Y108370D02*
X143904Y108315D01*
X144375Y108204D01*
X144792Y108093D01*
X145125Y107982D01*
X145375Y107871D01*
X145541Y107815D01*
X145569Y107787D01*
X145597D01*
X146041Y107565D01*
X146430Y107288D01*
X146791Y107038D01*
X147096Y106788D01*
X147346Y106566D01*
X147540Y106399D01*
X147651Y106288D01*
X147707Y106233D01*
X146513Y104817D01*
X146236Y105067D01*
X145986Y105316D01*
X145708Y105511D01*
X145486Y105677D01*
X145264Y105816D01*
X145097Y105927D01*
X144986Y105983D01*
X144958Y106011D01*
X144625Y106177D01*
X144292Y106288D01*
X143987Y106371D01*
X143681Y106427D01*
X143432Y106455D01*
X143237Y106482D01*
X142793D01*
X142543Y106455D01*
X142349Y106399D01*
X142155Y106371D01*
X141988Y106316D01*
X141877Y106260D01*
X141821Y106233D01*
X141794D01*
X141433Y106011D01*
X141127Y105816D01*
X141044Y105705D01*
X140961Y105650D01*
X140933Y105594D01*
X140905Y105566D01*
X140683Y105233D01*
X140517Y104928D01*
X140461Y104789D01*
X140433Y104678D01*
X140406Y104622D01*
Y104595D01*
X140294Y104206D01*
X140267Y103817D01*
X140239Y103679D01*
Y103567D01*
Y103484D01*
Y103456D01*
X140267Y103012D01*
X140294Y102790D01*
Y102624D01*
X140322Y102485D01*
X140350Y102374D01*
X140378Y102290D01*
Y102263D01*
X140489Y101846D01*
X140655Y101485D01*
X140739Y101319D01*
X140822Y101208D01*
X140850Y101124D01*
X140877Y101097D01*
X141183Y100625D01*
X141349Y100403D01*
X141516Y100181D01*
X141655Y100014D01*
X141766Y99875D01*
X141849Y99764D01*
X141877Y99736D01*
X142127Y99459D01*
X142404Y99153D01*
X142682Y98848D01*
X142960Y98570D01*
X143209Y98320D01*
X143404Y98126D01*
X143515Y98015D01*
X143570Y97959D01*
X147762Y93767D01*
Y91824D01*
X136991D01*
Y93906D01*
X144931D01*
X141988Y96793D01*
X141599Y97154D01*
X141266Y97515D01*
X140961Y97821D01*
X140683Y98098D01*
X140489Y98320D01*
X140322Y98487D01*
X140211Y98598D01*
X140183Y98626D01*
X139906Y98931D01*
X139656Y99237D01*
X139434Y99514D01*
X139240Y99764D01*
X139101Y99986D01*
X138990Y100125D01*
X138934Y100236D01*
X138906Y100264D01*
X138573Y100847D01*
X138434Y101124D01*
X138323Y101374D01*
X138240Y101569D01*
X138184Y101735D01*
X138129Y101846D01*
Y101874D01*
X137990Y102485D01*
X137935Y102790D01*
X137907Y103040D01*
X137879Y103290D01*
Y103456D01*
Y103595D01*
Y103623D01*
X137907Y104039D01*
X137935Y104400D01*
X137990Y104733D01*
X138046Y105039D01*
X138129Y105289D01*
X138184Y105455D01*
X138212Y105594D01*
X138240Y105622D01*
X138379Y105955D01*
X138545Y106233D01*
X138712Y106482D01*
X138879Y106705D01*
X139045Y106871D01*
X139156Y107010D01*
X139240Y107093D01*
X139267Y107121D01*
X139767Y107537D01*
X140017Y107676D01*
X140267Y107815D01*
X140489Y107926D01*
X140655Y108009D01*
X140766Y108037D01*
X140794Y108065D01*
X141127Y108176D01*
X141488Y108259D01*
X141821Y108315D01*
X142127Y108370D01*
X142404D01*
X142599Y108398D01*
X142793D01*
X143376Y108370D01*
D02*
G37*
G36*
X214503Y91824D02*
X211504D01*
X205952Y108148D01*
X208340D01*
X211865Y97127D01*
X212893Y93906D01*
X213892Y97127D01*
X217390Y108148D01*
X219916D01*
X214503Y91824D01*
D02*
G37*
G36*
X115975D02*
X112976D01*
X107424Y108148D01*
X109811D01*
X113337Y97127D01*
X114365Y93906D01*
X115364Y97127D01*
X118862Y108148D01*
X121388D01*
X115975Y91824D01*
D02*
G37*
G36*
X187546Y107815D02*
Y104373D01*
X191044D01*
Y102540D01*
X187546D01*
Y95988D01*
X187490Y95211D01*
X187351Y94545D01*
X187185Y93989D01*
X186963Y93518D01*
X186741Y93157D01*
X186574Y92907D01*
X186435Y92768D01*
X186380Y92712D01*
X186158Y92518D01*
X185880Y92352D01*
X185325Y92102D01*
X184742Y91907D01*
X184186Y91796D01*
X183659Y91713D01*
X183437Y91685D01*
X183243D01*
X183076Y91657D01*
X182854D01*
X182271Y91685D01*
X181993D01*
X181771Y91713D01*
X181549D01*
X181410Y91741D01*
X181271D01*
X180688Y91824D01*
X180439Y91852D01*
X180189Y91907D01*
X179994Y91935D01*
X179856Y91963D01*
X179744Y91991D01*
X179717D01*
Y93878D01*
X180272Y93740D01*
X180522Y93684D01*
X180744Y93656D01*
X180938Y93601D01*
X181077D01*
X181188Y93573D01*
X181216D01*
X181716Y93518D01*
X181966D01*
X182160Y93490D01*
X182549D01*
X183048Y93518D01*
X183465Y93601D01*
X183826Y93712D01*
X184131Y93823D01*
X184353Y93934D01*
X184520Y94045D01*
X184631Y94128D01*
X184658Y94156D01*
X184908Y94434D01*
X185075Y94739D01*
X185214Y95072D01*
X185297Y95405D01*
X185352Y95711D01*
X185380Y95933D01*
Y96099D01*
Y96127D01*
Y96155D01*
Y102540D01*
X179717D01*
Y104373D01*
X185380D01*
Y108398D01*
X187546Y107815D01*
D02*
G37*
G36*
X232576Y106122D02*
X223775D01*
X230882Y91824D01*
X228384D01*
X221527Y106122D01*
Y108148D01*
X232576D01*
Y106122D01*
D02*
G37*
G36*
X171138Y104567D02*
X171610Y104511D01*
X172027Y104428D01*
X172415Y104345D01*
X172721Y104262D01*
X172943Y104178D01*
X173082Y104123D01*
X173137Y104095D01*
X173526Y103901D01*
X173887Y103679D01*
X174220Y103456D01*
X174498Y103234D01*
X174720Y103040D01*
X174886Y102873D01*
X174997Y102762D01*
X175025Y102735D01*
X175303Y102401D01*
X175525Y102041D01*
X175747Y101707D01*
X175913Y101374D01*
X176052Y101097D01*
X176135Y100847D01*
X176191Y100708D01*
X176219Y100680D01*
Y100652D01*
X176357Y100208D01*
X176441Y99736D01*
X176524Y99292D01*
X176552Y98876D01*
X176580Y98542D01*
X176607Y98265D01*
Y98154D01*
Y98070D01*
Y98043D01*
Y98015D01*
X176580Y97460D01*
X176552Y96932D01*
X176496Y96460D01*
X176413Y96044D01*
X176330Y95711D01*
X176274Y95461D01*
X176246Y95294D01*
X176219Y95267D01*
Y95239D01*
X176052Y94822D01*
X175886Y94434D01*
X175691Y94073D01*
X175525Y93795D01*
X175358Y93545D01*
X175219Y93379D01*
X175136Y93268D01*
X175108Y93240D01*
X174803Y92962D01*
X174498Y92712D01*
X174220Y92490D01*
X173915Y92324D01*
X173665Y92185D01*
X173470Y92102D01*
X173359Y92046D01*
X173304Y92018D01*
X172887Y91880D01*
X172471Y91769D01*
X172054Y91713D01*
X171666Y91657D01*
X171360Y91630D01*
X171083Y91602D01*
X170861D01*
X170333Y91630D01*
X169861Y91685D01*
X169445Y91741D01*
X169056Y91852D01*
X168751Y91935D01*
X168529Y91991D01*
X168390Y92046D01*
X168334Y92074D01*
X167946Y92268D01*
X167557Y92490D01*
X167251Y92712D01*
X166974Y92907D01*
X166752Y93101D01*
X166585Y93268D01*
X166474Y93379D01*
X166446Y93406D01*
X166169Y93740D01*
X165919Y94101D01*
X165725Y94461D01*
X165558Y94795D01*
X165419Y95072D01*
X165336Y95294D01*
X165280Y95433D01*
X165253Y95489D01*
X165114Y95961D01*
X165003Y96433D01*
X164947Y96877D01*
X164892Y97293D01*
X164864Y97654D01*
X164836Y97932D01*
Y98043D01*
Y98126D01*
Y98154D01*
Y98182D01*
X164864Y98737D01*
X164892Y99264D01*
X164975Y99736D01*
X165031Y100153D01*
X165114Y100458D01*
X165197Y100708D01*
X165225Y100875D01*
X165253Y100930D01*
X165419Y101347D01*
X165586Y101735D01*
X165780Y102096D01*
X165975Y102374D01*
X166141Y102624D01*
X166280Y102790D01*
X166363Y102901D01*
X166391Y102929D01*
X166668Y103207D01*
X166974Y103456D01*
X167279Y103679D01*
X167557Y103845D01*
X167807Y103984D01*
X168001Y104067D01*
X168140Y104123D01*
X168195Y104150D01*
X168612Y104289D01*
X169028Y104400D01*
X169417Y104484D01*
X169806Y104539D01*
X170111Y104567D01*
X170389Y104595D01*
X170611D01*
X171138Y104567D01*
D02*
G37*
G36*
X133021Y99820D02*
X129939D01*
X129217Y99792D01*
X128579Y99708D01*
X128024Y99598D01*
X127579Y99459D01*
X127218Y99320D01*
X126969Y99209D01*
X126830Y99125D01*
X126774Y99098D01*
X126413Y98792D01*
X126136Y98459D01*
X125941Y98098D01*
X125803Y97737D01*
X125719Y97404D01*
X125691Y97154D01*
X125664Y97043D01*
Y96960D01*
Y96932D01*
Y96904D01*
Y96599D01*
X125719Y96349D01*
X125747Y96099D01*
X125803Y95877D01*
X125858Y95711D01*
X125914Y95572D01*
X125941Y95489D01*
X125969Y95461D01*
X126247Y95044D01*
X126386Y94850D01*
X126524Y94711D01*
X126663Y94572D01*
X126774Y94489D01*
X126830Y94434D01*
X126858Y94406D01*
X127302Y94101D01*
X127746Y93906D01*
X127940Y93823D01*
X128079Y93767D01*
X128190Y93712D01*
X128218D01*
X128829Y93573D01*
X129134Y93545D01*
X129384Y93518D01*
X129634Y93490D01*
X130633D01*
X130939Y93518D01*
X131438D01*
X131605Y93545D01*
X131771D01*
X132077Y93573D01*
X132382Y93629D01*
X132632Y93656D01*
X132854Y93712D01*
X133048Y93740D01*
X133187Y93767D01*
X133271Y93795D01*
X133298D01*
Y91824D01*
X133048Y91796D01*
X132826D01*
X132660Y91769D01*
X132604D01*
X132327Y91741D01*
X132049Y91713D01*
X131938Y91685D01*
X131799D01*
X131494Y91657D01*
X131216D01*
X131133Y91630D01*
X130966D01*
X130661Y91602D01*
X130189D01*
X129662Y91630D01*
X129162Y91657D01*
X128690Y91713D01*
X128301Y91796D01*
X127968Y91880D01*
X127718Y91935D01*
X127552Y91963D01*
X127496Y91991D01*
X127052Y92157D01*
X126635Y92324D01*
X126274Y92518D01*
X125941Y92685D01*
X125691Y92851D01*
X125497Y92990D01*
X125358Y93073D01*
X125331Y93101D01*
X124998Y93379D01*
X124692Y93684D01*
X124442Y93962D01*
X124248Y94239D01*
X124081Y94461D01*
X123942Y94656D01*
X123887Y94767D01*
X123859Y94822D01*
X123693Y95211D01*
X123554Y95600D01*
X123470Y95961D01*
X123387Y96321D01*
X123359Y96599D01*
X123332Y96849D01*
Y96988D01*
Y97043D01*
X123359Y97543D01*
X123415Y97959D01*
X123498Y98348D01*
X123609Y98681D01*
X123720Y98931D01*
X123804Y99125D01*
X123859Y99264D01*
X123887Y99292D01*
X124109Y99598D01*
X124331Y99903D01*
X124553Y100125D01*
X124775Y100347D01*
X124970Y100486D01*
X125136Y100625D01*
X125247Y100680D01*
X125275Y100708D01*
X125608Y100902D01*
X125941Y101041D01*
X126274Y101180D01*
X126608Y101291D01*
X126858Y101347D01*
X127080Y101402D01*
X127218Y101458D01*
X127274D01*
X128107Y101596D01*
X128468Y101624D01*
X128829Y101652D01*
X129134Y101680D01*
X130966D01*
Y106260D01*
X124220D01*
Y108148D01*
X133021D01*
Y99820D01*
D02*
G37*
G36*
X375814Y145320D02*
X373444Y144561D01*
Y140006D01*
X375814Y139247D01*
Y137636D01*
X364926Y141210D01*
Y143246D01*
X375814Y146857D01*
Y145320D01*
D02*
G37*
G36*
X375759Y135525D02*
X375796Y135303D01*
X375833Y135081D01*
X375851Y134914D01*
X375870Y134766D01*
X375888Y134692D01*
Y134655D01*
X375925Y134099D01*
X375944Y133840D01*
Y133599D01*
X375962Y133396D01*
Y133081D01*
X375944Y132785D01*
X375925Y132544D01*
X375907Y132433D01*
Y132359D01*
X375888Y132303D01*
Y132285D01*
X375833Y131988D01*
X375814Y131840D01*
X375777Y131729D01*
X375759Y131637D01*
X375740Y131544D01*
X375722Y131507D01*
Y131489D01*
X375629Y131211D01*
X375536Y130989D01*
X375481Y130896D01*
X375462Y130822D01*
X375425Y130785D01*
Y130766D01*
X375259Y130526D01*
X375111Y130322D01*
X375055Y130248D01*
X375000Y130192D01*
X374981Y130174D01*
X374962Y130155D01*
X374740Y129989D01*
X374537Y129859D01*
X374463Y129803D01*
X374388Y129766D01*
X374351Y129748D01*
X374333D01*
X374055Y129655D01*
X373796Y129600D01*
X373703Y129581D01*
X373611D01*
X373555D01*
X373537D01*
X373203Y129600D01*
X373074Y129618D01*
X372944Y129655D01*
X372851Y129674D01*
X372759Y129711D01*
X372722Y129729D01*
X372703D01*
X372574Y129785D01*
X372444Y129859D01*
X372240Y130007D01*
X372166Y130081D01*
X372111Y130137D01*
X372074Y130174D01*
X372055Y130192D01*
X371852Y130452D01*
X371666Y130711D01*
X371611Y130840D01*
X371555Y130914D01*
X371537Y130989D01*
X371518Y131007D01*
X371426Y131211D01*
X371352Y131414D01*
X371259Y131618D01*
X371204Y131822D01*
X371129Y132007D01*
X371092Y132137D01*
X371074Y132229D01*
X371055Y132266D01*
X370981Y132507D01*
X370926Y132711D01*
X370870Y132896D01*
X370815Y133062D01*
X370759Y133192D01*
X370741Y133285D01*
X370704Y133340D01*
Y133359D01*
X370630Y133507D01*
X370574Y133636D01*
X370518Y133748D01*
X370463Y133859D01*
X370407Y133933D01*
X370389Y133988D01*
X370352Y134007D01*
Y134025D01*
X370222Y134173D01*
X370111Y134284D01*
X370037Y134340D01*
X370000Y134359D01*
X369852Y134396D01*
X369722Y134414D01*
X369630Y134433D01*
X369611D01*
X369593D01*
X369426Y134414D01*
X369296Y134377D01*
X369204Y134359D01*
X369167Y134340D01*
X369037Y134248D01*
X368926Y134155D01*
X368852Y134062D01*
X368833Y134025D01*
X368741Y133822D01*
X368648Y133636D01*
X368630Y133544D01*
X368611Y133470D01*
X368593Y133433D01*
Y133414D01*
X368537Y133118D01*
X368519Y132822D01*
X368500Y132692D01*
Y132507D01*
X368519Y132137D01*
X368537Y131970D01*
Y131803D01*
X368556Y131655D01*
X368574Y131544D01*
X368593Y131452D01*
Y131433D01*
X368667Y130970D01*
X368704Y130748D01*
X368741Y130563D01*
X368778Y130378D01*
X368796Y130248D01*
X368833Y130174D01*
Y130137D01*
X367537D01*
X367500Y130378D01*
X367445Y130618D01*
X367426Y130822D01*
X367389Y131007D01*
X367371Y131174D01*
Y131285D01*
X367352Y131377D01*
Y131396D01*
X367315Y131822D01*
Y132007D01*
X367296Y132155D01*
Y132488D01*
X367315Y132840D01*
X367334Y133174D01*
X367371Y133451D01*
X367408Y133692D01*
X367463Y133896D01*
X367500Y134025D01*
X367519Y134118D01*
X367537Y134155D01*
X367630Y134396D01*
X367741Y134599D01*
X367834Y134784D01*
X367926Y134933D01*
X368019Y135044D01*
X368093Y135136D01*
X368130Y135192D01*
X368148Y135210D01*
X368278Y135340D01*
X368426Y135470D01*
X368556Y135562D01*
X368667Y135636D01*
X368778Y135692D01*
X368852Y135729D01*
X368908Y135766D01*
X368926D01*
X369222Y135858D01*
X369352Y135877D01*
X369463Y135895D01*
X369556Y135914D01*
X369630D01*
X369667D01*
X369685D01*
X369870D01*
X370056Y135877D01*
X370222Y135858D01*
X370352Y135821D01*
X370463Y135784D01*
X370537Y135766D01*
X370592Y135729D01*
X370611D01*
X370889Y135562D01*
X371092Y135377D01*
X371185Y135303D01*
X371241Y135229D01*
X371278Y135192D01*
X371296Y135173D01*
X371500Y134895D01*
X371648Y134618D01*
X371703Y134507D01*
X371759Y134414D01*
X371778Y134359D01*
X371796Y134340D01*
X371944Y133970D01*
X372000Y133803D01*
X372055Y133636D01*
X372111Y133507D01*
X372129Y133396D01*
X372166Y133322D01*
Y133303D01*
X372240Y133025D01*
X372314Y132803D01*
X372389Y132599D01*
X372444Y132433D01*
X372500Y132285D01*
X372537Y132192D01*
X372574Y132137D01*
Y132118D01*
X372629Y131970D01*
X372703Y131822D01*
X372759Y131711D01*
X372796Y131618D01*
X372851Y131563D01*
X372870Y131507D01*
X372907Y131470D01*
X373037Y131322D01*
X373148Y131229D01*
X373222Y131192D01*
X373259Y131174D01*
X373388Y131118D01*
X373518Y131100D01*
X373611Y131081D01*
X373629D01*
X373648D01*
X373833Y131100D01*
X374000Y131155D01*
X374148Y131248D01*
X374259Y131340D01*
X374351Y131433D01*
X374407Y131525D01*
X374444Y131581D01*
X374463Y131600D01*
X374555Y131803D01*
X374629Y132044D01*
X374666Y132303D01*
X374703Y132562D01*
X374722Y132785D01*
X374740Y132970D01*
Y133137D01*
X374722Y133673D01*
X374703Y133914D01*
X374685Y134136D01*
Y134321D01*
X374666Y134451D01*
X374648Y134544D01*
Y134581D01*
X374555Y135118D01*
X374500Y135358D01*
X374444Y135581D01*
X374388Y135766D01*
X374351Y135895D01*
X374314Y135988D01*
Y136025D01*
X375648D01*
X375759Y135525D01*
D02*
G37*
G36*
X375814Y120027D02*
X374611D01*
Y122527D01*
X364038D01*
Y126452D01*
X365223D01*
Y123989D01*
X374611D01*
Y126730D01*
X375814D01*
Y120027D01*
D02*
G37*
G36*
Y110639D02*
X374611D01*
Y113139D01*
X367445D01*
Y117064D01*
X368648D01*
Y114601D01*
X374611D01*
Y117342D01*
X375814D01*
Y110639D01*
D02*
G37*
G36*
Y106602D02*
X370481D01*
X375814Y102510D01*
Y100658D01*
X370111Y105158D01*
X364926Y100862D01*
Y102603D01*
X370000Y106602D01*
X364926D01*
Y108083D01*
X375814D01*
Y106602D01*
D02*
G37*
G36*
X373463Y98622D02*
X373926Y98547D01*
X374333Y98455D01*
X374648Y98325D01*
X374907Y98214D01*
X375074Y98103D01*
X375185Y98029D01*
X375222Y98011D01*
X375462Y97733D01*
X375648Y97418D01*
X375777Y97103D01*
X375870Y96788D01*
X375925Y96511D01*
X375944Y96381D01*
Y96270D01*
X375962Y96196D01*
Y96066D01*
X375944Y95788D01*
X375925Y95566D01*
X375907Y95474D01*
Y95400D01*
X375888Y95363D01*
Y95344D01*
X375814Y95103D01*
X375740Y94881D01*
X375703Y94807D01*
X375666Y94733D01*
X375648Y94696D01*
Y94677D01*
X375499Y94437D01*
X375370Y94215D01*
X375296Y94141D01*
X375240Y94066D01*
X375222Y94029D01*
X375203Y94011D01*
X374962Y93752D01*
X374722Y93511D01*
X374629Y93418D01*
X374555Y93344D01*
X374500Y93307D01*
X374481Y93289D01*
X375814Y93233D01*
Y91937D01*
X367445D01*
Y93381D01*
X373000D01*
X373185Y93530D01*
X373352Y93659D01*
X373500Y93789D01*
X373611Y93900D01*
X373722Y93992D01*
X373796Y94066D01*
X373833Y94103D01*
X373851Y94122D01*
X374074Y94344D01*
X374240Y94529D01*
X374314Y94603D01*
X374351Y94659D01*
X374370Y94696D01*
X374388Y94714D01*
X374500Y94918D01*
X374592Y95085D01*
X374611Y95159D01*
X374629Y95215D01*
X374648Y95233D01*
Y95252D01*
X374685Y95437D01*
X374703Y95603D01*
X374722Y95733D01*
Y95770D01*
X374703Y96029D01*
X374648Y96251D01*
X374537Y96437D01*
X374425Y96603D01*
X374277Y96751D01*
X374111Y96862D01*
X373944Y96955D01*
X373759Y97029D01*
X373425Y97140D01*
X373259Y97177D01*
X373111Y97196D01*
X372981D01*
X372889Y97214D01*
X372833D01*
X372814D01*
X367445D01*
Y98659D01*
X372926D01*
X373463Y98622D01*
D02*
G37*
G36*
X375814Y87474D02*
X370444D01*
X370259Y87326D01*
X370093Y87197D01*
X369963Y87067D01*
X369833Y86956D01*
X369722Y86863D01*
X369648Y86789D01*
X369611Y86752D01*
X369593Y86734D01*
X369352Y86475D01*
X369148Y86271D01*
X369093Y86178D01*
X369037Y86123D01*
X369019Y86086D01*
X369000Y86067D01*
X368852Y85845D01*
X368741Y85641D01*
X368704Y85567D01*
X368685Y85512D01*
X368667Y85475D01*
Y85456D01*
X368593Y85234D01*
X368574Y85049D01*
X368556Y84993D01*
Y84882D01*
X368574Y84642D01*
X368630Y84438D01*
X368722Y84271D01*
X368796Y84123D01*
X368889Y84012D01*
X368982Y83919D01*
X369037Y83882D01*
X369056Y83864D01*
X369259Y83753D01*
X369519Y83660D01*
X369778Y83605D01*
X370037Y83567D01*
X370259Y83549D01*
X370444Y83531D01*
X370518D01*
X370574D01*
X370611D01*
X370630D01*
Y82068D01*
X370333D01*
X370056Y82086D01*
X369796Y82105D01*
X369537Y82142D01*
X369315Y82197D01*
X369111Y82253D01*
X368945Y82308D01*
X368778Y82364D01*
X368630Y82420D01*
X368500Y82494D01*
X368389Y82549D01*
X368296Y82586D01*
X368241Y82642D01*
X368185Y82660D01*
X368148Y82697D01*
X368000Y82827D01*
X367871Y82975D01*
X367648Y83290D01*
X367500Y83605D01*
X367408Y83919D01*
X367334Y84216D01*
X367315Y84345D01*
Y84438D01*
X367296Y84530D01*
Y84660D01*
X367315Y84938D01*
X367352Y85197D01*
X367426Y85456D01*
X367500Y85660D01*
X367574Y85864D01*
X367648Y85993D01*
X367685Y86086D01*
X367704Y86123D01*
X367871Y86401D01*
X368074Y86660D01*
X368296Y86901D01*
X368500Y87123D01*
X368704Y87308D01*
X368852Y87456D01*
X368963Y87549D01*
X368982Y87586D01*
X369000D01*
X367445Y87623D01*
Y88937D01*
X375814D01*
Y87474D01*
D02*
G37*
G36*
X368667Y78364D02*
X373037D01*
X373555Y78327D01*
X374000Y78235D01*
X374370Y78124D01*
X374685Y77976D01*
X374925Y77827D01*
X375092Y77716D01*
X375185Y77624D01*
X375222Y77587D01*
X375351Y77439D01*
X375462Y77253D01*
X375629Y76883D01*
X375759Y76494D01*
X375833Y76124D01*
X375888Y75772D01*
X375907Y75624D01*
Y75494D01*
X375925Y75383D01*
Y75235D01*
X375907Y74846D01*
Y74661D01*
X375888Y74513D01*
Y74365D01*
X375870Y74272D01*
Y74180D01*
X375814Y73791D01*
X375796Y73624D01*
X375759Y73457D01*
X375740Y73328D01*
X375722Y73235D01*
X375703Y73161D01*
Y73143D01*
X374444D01*
X374537Y73513D01*
X374574Y73680D01*
X374592Y73828D01*
X374629Y73957D01*
Y74050D01*
X374648Y74124D01*
Y74143D01*
X374685Y74476D01*
Y74643D01*
X374703Y74772D01*
Y75031D01*
X374685Y75365D01*
X374629Y75642D01*
X374555Y75883D01*
X374481Y76087D01*
X374407Y76235D01*
X374333Y76346D01*
X374277Y76420D01*
X374259Y76439D01*
X374074Y76605D01*
X373870Y76716D01*
X373648Y76809D01*
X373425Y76865D01*
X373222Y76901D01*
X373074Y76920D01*
X372963D01*
X372944D01*
X372926D01*
X368667D01*
Y73143D01*
X367445D01*
Y76920D01*
X364760D01*
X365149Y78364D01*
X367445D01*
Y80697D01*
X368667D01*
Y78364D01*
D02*
G37*
%LPC*%
G36*
X128884Y47010D02*
X128854D01*
Y46617D01*
X128884D01*
Y46073D01*
X128915D01*
Y45529D01*
X128945D01*
Y44985D01*
X128975D01*
Y44441D01*
X129005D01*
Y43898D01*
X129036D01*
Y43323D01*
X129066D01*
Y42780D01*
X129096D01*
Y42236D01*
X129126D01*
Y41692D01*
X129156D01*
Y41148D01*
X129187D01*
Y41118D01*
X131573D01*
Y41178D01*
X131543D01*
Y41239D01*
X131513D01*
Y41299D01*
X131483D01*
Y41360D01*
X131453D01*
Y41450D01*
X131422D01*
Y41511D01*
X131392D01*
Y41571D01*
X131362D01*
Y41631D01*
X131332D01*
Y41692D01*
X131302D01*
Y41752D01*
X131271D01*
Y41843D01*
X131241D01*
Y41904D01*
X131211D01*
Y41964D01*
X131181D01*
Y42024D01*
X131151D01*
Y42085D01*
X131120D01*
Y42145D01*
X131090D01*
Y42236D01*
X131060D01*
Y42296D01*
X131030D01*
Y42357D01*
X130999D01*
Y42417D01*
X130969D01*
Y42477D01*
X130939D01*
Y42538D01*
X130909D01*
Y42629D01*
X130879D01*
Y42689D01*
X130848D01*
Y42750D01*
X130818D01*
Y42810D01*
X130788D01*
Y42870D01*
X130758D01*
Y42931D01*
X130728D01*
Y43021D01*
X130697D01*
Y43082D01*
X130667D01*
Y43142D01*
X130637D01*
Y43203D01*
X130607D01*
Y43263D01*
X130576D01*
Y43323D01*
X130546D01*
Y43414D01*
X130516D01*
Y43475D01*
X130486D01*
Y43535D01*
X130456D01*
Y43595D01*
X130425D01*
Y43656D01*
X130395D01*
Y43716D01*
X130365D01*
Y43807D01*
X130335D01*
Y43867D01*
X130304D01*
Y43928D01*
X130274D01*
Y43988D01*
X130244D01*
Y44049D01*
X130214D01*
Y44109D01*
X130184D01*
Y44200D01*
X130154D01*
Y44260D01*
X130123D01*
Y44321D01*
X130093D01*
Y44381D01*
X130063D01*
Y44441D01*
X130033D01*
Y44502D01*
X130002D01*
Y44562D01*
X129972D01*
Y44653D01*
X129942D01*
Y44713D01*
X129912D01*
Y44774D01*
X129881D01*
Y44834D01*
X129851D01*
Y44895D01*
X129821D01*
Y44955D01*
X129791D01*
Y45046D01*
X129761D01*
Y45106D01*
X129730D01*
Y45167D01*
X129700D01*
Y45227D01*
X129670D01*
Y45287D01*
X129640D01*
Y45348D01*
X129610D01*
Y45438D01*
X129579D01*
Y45499D01*
X129549D01*
Y45559D01*
X129519D01*
Y45620D01*
X129489D01*
Y45680D01*
X129459D01*
Y45741D01*
X129428D01*
Y45831D01*
X129398D01*
Y45892D01*
X129368D01*
Y45952D01*
X129338D01*
Y46013D01*
X129307D01*
Y46073D01*
X129277D01*
Y46133D01*
X129247D01*
Y46224D01*
X129217D01*
Y46284D01*
X129187D01*
Y46345D01*
X129156D01*
Y46405D01*
X129126D01*
Y46466D01*
X129096D01*
Y46526D01*
X129066D01*
Y46617D01*
X129036D01*
Y46677D01*
X129005D01*
Y46738D01*
X128975D01*
Y46798D01*
X128945D01*
Y46859D01*
X128915D01*
Y46919D01*
X128884D01*
Y47010D01*
D02*
G37*
G36*
X51763Y356094D02*
X48987Y347377D01*
X54539D01*
X51763Y356094D01*
D02*
G37*
G36*
X332879Y426009D02*
X324528D01*
Y424417D01*
X324565Y424121D01*
X324602Y423862D01*
X324639Y423621D01*
X324677Y423436D01*
X324714Y423288D01*
X324732Y423214D01*
X324751Y423176D01*
X324843Y422936D01*
X324954Y422714D01*
X325084Y422528D01*
X325195Y422362D01*
X325306Y422232D01*
X325399Y422140D01*
X325454Y422084D01*
X325473Y422066D01*
X325658Y421917D01*
X325880Y421769D01*
X326102Y421658D01*
X326306Y421566D01*
X326491Y421492D01*
X326639Y421436D01*
X326732Y421417D01*
X326750Y421399D01*
X326769D01*
X327084Y421325D01*
X327417Y421269D01*
X327732Y421232D01*
X328046Y421195D01*
X328306D01*
X328528Y421177D01*
X328602D01*
X328657D01*
X328695D01*
X328713D01*
X329083Y421195D01*
X329454Y421214D01*
X329787Y421269D01*
X330083Y421343D01*
X330380Y421417D01*
X330639Y421529D01*
X330898Y421640D01*
X331120Y421769D01*
X331528Y422047D01*
X331861Y422362D01*
X332139Y422695D01*
X332361Y423047D01*
X332528Y423399D01*
X332657Y423732D01*
X332750Y424047D01*
X332805Y424324D01*
X332842Y424565D01*
X332879Y424750D01*
Y426009D01*
D02*
G37*
G36*
Y397846D02*
X324528D01*
Y396253D01*
X324565Y395957D01*
X324602Y395698D01*
X324639Y395457D01*
X324677Y395272D01*
X324714Y395124D01*
X324732Y395050D01*
X324751Y395013D01*
X324843Y394772D01*
X324954Y394550D01*
X325084Y394365D01*
X325195Y394198D01*
X325306Y394068D01*
X325399Y393976D01*
X325454Y393920D01*
X325473Y393902D01*
X325658Y393754D01*
X325880Y393605D01*
X326102Y393494D01*
X326306Y393402D01*
X326491Y393328D01*
X326639Y393272D01*
X326732Y393254D01*
X326750Y393235D01*
X326769D01*
X327084Y393161D01*
X327417Y393106D01*
X327732Y393069D01*
X328046Y393032D01*
X328306D01*
X328528Y393013D01*
X328602D01*
X328657D01*
X328695D01*
X328713D01*
X329083Y393032D01*
X329454Y393050D01*
X329787Y393106D01*
X330083Y393180D01*
X330380Y393254D01*
X330639Y393365D01*
X330898Y393476D01*
X331120Y393605D01*
X331528Y393883D01*
X331861Y394198D01*
X332139Y394531D01*
X332361Y394883D01*
X332528Y395235D01*
X332657Y395568D01*
X332750Y395883D01*
X332805Y396161D01*
X332842Y396401D01*
X332879Y396587D01*
Y397846D01*
D02*
G37*
G36*
X330454Y369275D02*
X324639Y367423D01*
X330454Y365571D01*
Y369275D01*
D02*
G37*
G36*
X330120Y304115D02*
X330028D01*
X329991D01*
X329546Y304096D01*
X329343Y304078D01*
X329157Y304041D01*
X329009Y304022D01*
X328898Y304004D01*
X328824Y303985D01*
X328806D01*
X328602Y303930D01*
X328417Y303855D01*
X328250Y303800D01*
X328102Y303726D01*
X327991Y303652D01*
X327898Y303615D01*
X327843Y303578D01*
X327824Y303559D01*
X327528Y303319D01*
X327417Y303189D01*
X327324Y303059D01*
X327250Y302967D01*
X327195Y302874D01*
X327158Y302819D01*
X327139Y302800D01*
X327047Y302615D01*
X326991Y302430D01*
X326936Y302245D01*
X326917Y302059D01*
X326898Y301911D01*
X326880Y301782D01*
Y301467D01*
X326917Y301282D01*
X326936Y301115D01*
X326973Y300967D01*
X327010Y300837D01*
X327047Y300745D01*
X327065Y300689D01*
X327084Y300671D01*
X327269Y300356D01*
X327361Y300226D01*
X327454Y300115D01*
X327547Y300023D01*
X327621Y299949D01*
X327658Y299911D01*
X327676Y299893D01*
X327824Y299782D01*
X327991Y299689D01*
X328287Y299541D01*
X328435Y299486D01*
X328546Y299449D01*
X328620Y299412D01*
X328639D01*
X328861Y299356D01*
X329083Y299300D01*
X329324Y299263D01*
X329528Y299245D01*
X329713Y299226D01*
X329861D01*
X329954D01*
X329991D01*
X330435Y299245D01*
X330639Y299263D01*
X330806Y299300D01*
X330954Y299319D01*
X331083Y299356D01*
X331157Y299375D01*
X331176D01*
X331380Y299430D01*
X331565Y299504D01*
X331731Y299560D01*
X331879Y299634D01*
X331991Y299708D01*
X332083Y299745D01*
X332139Y299782D01*
X332157Y299800D01*
X332435Y300041D01*
X332565Y300171D01*
X332657Y300282D01*
X332731Y300393D01*
X332787Y300485D01*
X332824Y300541D01*
X332842Y300560D01*
X332916Y300745D01*
X332972Y300930D01*
X333027Y301115D01*
X333046Y301282D01*
X333064Y301448D01*
X333083Y301560D01*
Y301874D01*
X333046Y302078D01*
X333027Y302245D01*
X332990Y302411D01*
X332953Y302522D01*
X332935Y302633D01*
X332898Y302689D01*
Y302708D01*
X332713Y303004D01*
X332620Y303133D01*
X332528Y303244D01*
X332453Y303337D01*
X332379Y303411D01*
X332342Y303448D01*
X332324Y303467D01*
X332009Y303670D01*
X331694Y303818D01*
X331565Y303874D01*
X331454Y303911D01*
X331380Y303948D01*
X331361D01*
X330898Y304041D01*
X330657Y304078D01*
X330454Y304096D01*
X330269D01*
X330120Y304115D01*
D02*
G37*
G36*
Y285339D02*
X330028D01*
X329991D01*
X329546Y285320D01*
X329343Y285302D01*
X329157Y285265D01*
X329009Y285246D01*
X328898Y285228D01*
X328824Y285209D01*
X328806D01*
X328602Y285154D01*
X328417Y285080D01*
X328250Y285024D01*
X328102Y284950D01*
X327991Y284876D01*
X327898Y284839D01*
X327843Y284802D01*
X327824Y284783D01*
X327528Y284543D01*
X327417Y284413D01*
X327324Y284284D01*
X327250Y284191D01*
X327195Y284098D01*
X327158Y284043D01*
X327139Y284024D01*
X327047Y283839D01*
X326991Y283654D01*
X326936Y283469D01*
X326917Y283284D01*
X326898Y283136D01*
X326880Y283006D01*
Y282691D01*
X326917Y282506D01*
X326936Y282339D01*
X326973Y282191D01*
X327010Y282062D01*
X327047Y281969D01*
X327065Y281913D01*
X327084Y281895D01*
X327269Y281580D01*
X327361Y281450D01*
X327454Y281339D01*
X327547Y281247D01*
X327621Y281173D01*
X327658Y281136D01*
X327676Y281117D01*
X327824Y281006D01*
X327991Y280914D01*
X328287Y280765D01*
X328435Y280710D01*
X328546Y280673D01*
X328620Y280636D01*
X328639D01*
X328861Y280580D01*
X329083Y280525D01*
X329324Y280488D01*
X329528Y280469D01*
X329713Y280450D01*
X329861D01*
X329954D01*
X329991D01*
X330435Y280469D01*
X330639Y280488D01*
X330806Y280525D01*
X330954Y280543D01*
X331083Y280580D01*
X331157Y280599D01*
X331176D01*
X331380Y280654D01*
X331565Y280728D01*
X331731Y280784D01*
X331879Y280858D01*
X331991Y280932D01*
X332083Y280969D01*
X332139Y281006D01*
X332157Y281025D01*
X332435Y281265D01*
X332565Y281395D01*
X332657Y281506D01*
X332731Y281617D01*
X332787Y281710D01*
X332824Y281765D01*
X332842Y281784D01*
X332916Y281969D01*
X332972Y282154D01*
X333027Y282339D01*
X333046Y282506D01*
X333064Y282673D01*
X333083Y282784D01*
Y283098D01*
X333046Y283302D01*
X333027Y283469D01*
X332990Y283635D01*
X332953Y283746D01*
X332935Y283858D01*
X332898Y283913D01*
Y283932D01*
X332713Y284228D01*
X332620Y284357D01*
X332528Y284469D01*
X332453Y284561D01*
X332379Y284635D01*
X332342Y284672D01*
X332324Y284691D01*
X332009Y284895D01*
X331694Y285043D01*
X331565Y285098D01*
X331454Y285135D01*
X331380Y285172D01*
X331361D01*
X330898Y285265D01*
X330657Y285302D01*
X330454Y285320D01*
X330269D01*
X330120Y285339D01*
D02*
G37*
G36*
X329324Y228752D02*
X328935Y228697D01*
X328750Y228678D01*
X328602Y228641D01*
X328472Y228604D01*
X328380Y228567D01*
X328324Y228549D01*
X328306D01*
X327991Y228400D01*
X327843Y228326D01*
X327732Y228252D01*
X327639Y228178D01*
X327565Y228123D01*
X327528Y228104D01*
X327509Y228086D01*
X327287Y227863D01*
X327121Y227641D01*
X327065Y227549D01*
X327028Y227475D01*
X326991Y227437D01*
Y227419D01*
X326880Y227104D01*
X326843Y226956D01*
X326824Y226826D01*
X326806Y226715D01*
Y226345D01*
X326843Y226160D01*
X326861Y225993D01*
X326898Y225864D01*
X326936Y225753D01*
X326973Y225660D01*
X326991Y225604D01*
X327010Y225586D01*
X327176Y225290D01*
X327250Y225179D01*
X327343Y225067D01*
X327417Y224993D01*
X327472Y224938D01*
X327509Y224901D01*
X327528Y224882D01*
X327787Y224697D01*
X328046Y224567D01*
X328158Y224530D01*
X328250Y224493D01*
X328306Y224475D01*
X328324D01*
X328676Y224382D01*
X328843Y224364D01*
X328991Y224345D01*
X329120D01*
X329231D01*
X329306D01*
X329324D01*
Y228752D01*
D02*
G37*
G36*
X332731Y219086D02*
X328676D01*
X328491Y218957D01*
X328343Y218827D01*
X328195Y218698D01*
X328065Y218587D01*
X327972Y218512D01*
X327898Y218438D01*
X327861Y218401D01*
X327843Y218383D01*
X327602Y218124D01*
X327435Y217920D01*
X327361Y217846D01*
X327324Y217790D01*
X327287Y217753D01*
Y217735D01*
X327158Y217513D01*
X327065Y217327D01*
X327028Y217253D01*
X327010Y217198D01*
X326991Y217161D01*
Y217142D01*
X326936Y216939D01*
X326917Y216753D01*
X326898Y216698D01*
Y216420D01*
X326936Y216272D01*
X326973Y216142D01*
X327010Y216031D01*
X327047Y215939D01*
X327084Y215865D01*
X327102Y215828D01*
X327121Y215809D01*
X327306Y215587D01*
X327509Y215420D01*
X327602Y215346D01*
X327676Y215309D01*
X327732Y215272D01*
X327750D01*
X328065Y215142D01*
X328361Y215050D01*
X328491Y215013D01*
X328602Y214994D01*
X328676Y214976D01*
X328695D01*
X329102Y214902D01*
X329306Y214883D01*
X329491D01*
X329657Y214865D01*
X329787D01*
X329861D01*
X329898D01*
X330194D01*
X330454Y214902D01*
X330713Y214920D01*
X330935Y214976D01*
X331157Y215031D01*
X331361Y215087D01*
X331528Y215142D01*
X331694Y215198D01*
X331824Y215272D01*
X331954Y215328D01*
X332046Y215383D01*
X332139Y215439D01*
X332194Y215494D01*
X332250Y215513D01*
X332268Y215550D01*
X332287D01*
X332435Y215679D01*
X332546Y215828D01*
X332750Y216124D01*
X332879Y216420D01*
X332990Y216716D01*
X333046Y216976D01*
X333064Y217198D01*
X333083Y217272D01*
Y217383D01*
X333064Y217698D01*
X333046Y217846D01*
X333027Y217976D01*
Y218087D01*
X333009Y218179D01*
X332990Y218235D01*
Y218253D01*
X332916Y218568D01*
X332861Y218716D01*
X332824Y218827D01*
X332787Y218938D01*
X332750Y219013D01*
X332731Y219068D01*
Y219086D01*
D02*
G37*
G36*
X332879Y200700D02*
X324528D01*
Y199107D01*
X324565Y198811D01*
X324602Y198552D01*
X324639Y198311D01*
X324677Y198126D01*
X324714Y197978D01*
X324732Y197903D01*
X324751Y197866D01*
X324843Y197626D01*
X324954Y197404D01*
X325084Y197218D01*
X325195Y197052D01*
X325306Y196922D01*
X325399Y196830D01*
X325454Y196774D01*
X325473Y196756D01*
X325658Y196607D01*
X325880Y196459D01*
X326102Y196348D01*
X326306Y196256D01*
X326491Y196182D01*
X326639Y196126D01*
X326732Y196107D01*
X326750Y196089D01*
X326769D01*
X327084Y196015D01*
X327417Y195959D01*
X327732Y195922D01*
X328046Y195885D01*
X328306D01*
X328528Y195867D01*
X328602D01*
X328657D01*
X328695D01*
X328713D01*
X329083Y195885D01*
X329454Y195904D01*
X329787Y195959D01*
X330083Y196033D01*
X330380Y196107D01*
X330639Y196218D01*
X330898Y196330D01*
X331120Y196459D01*
X331528Y196737D01*
X331861Y197052D01*
X332139Y197385D01*
X332361Y197737D01*
X332528Y198089D01*
X332657Y198422D01*
X332750Y198737D01*
X332805Y199014D01*
X332842Y199255D01*
X332879Y199440D01*
Y200700D01*
D02*
G37*
G36*
X330120Y191460D02*
X330028D01*
X329991D01*
X329546Y191441D01*
X329343Y191423D01*
X329157Y191386D01*
X329009Y191367D01*
X328898Y191349D01*
X328824Y191330D01*
X328806D01*
X328602Y191275D01*
X328417Y191201D01*
X328250Y191145D01*
X328102Y191071D01*
X327991Y190997D01*
X327898Y190960D01*
X327843Y190923D01*
X327824Y190904D01*
X327528Y190664D01*
X327417Y190534D01*
X327324Y190404D01*
X327250Y190312D01*
X327195Y190219D01*
X327158Y190164D01*
X327139Y190145D01*
X327047Y189960D01*
X326991Y189775D01*
X326936Y189590D01*
X326917Y189404D01*
X326898Y189256D01*
X326880Y189127D01*
Y188812D01*
X326917Y188627D01*
X326936Y188460D01*
X326973Y188312D01*
X327010Y188182D01*
X327047Y188090D01*
X327065Y188034D01*
X327084Y188016D01*
X327269Y187701D01*
X327361Y187571D01*
X327454Y187460D01*
X327547Y187368D01*
X327621Y187293D01*
X327658Y187257D01*
X327676Y187238D01*
X327824Y187127D01*
X327991Y187034D01*
X328287Y186886D01*
X328435Y186831D01*
X328546Y186794D01*
X328620Y186756D01*
X328639D01*
X328861Y186701D01*
X329083Y186645D01*
X329324Y186608D01*
X329528Y186590D01*
X329713Y186571D01*
X329861D01*
X329954D01*
X329991D01*
X330435Y186590D01*
X330639Y186608D01*
X330806Y186645D01*
X330954Y186664D01*
X331083Y186701D01*
X331157Y186719D01*
X331176D01*
X331380Y186775D01*
X331565Y186849D01*
X331731Y186905D01*
X331879Y186979D01*
X331991Y187053D01*
X332083Y187090D01*
X332139Y187127D01*
X332157Y187145D01*
X332435Y187386D01*
X332565Y187516D01*
X332657Y187627D01*
X332731Y187738D01*
X332787Y187831D01*
X332824Y187886D01*
X332842Y187905D01*
X332916Y188090D01*
X332972Y188275D01*
X333027Y188460D01*
X333046Y188627D01*
X333064Y188793D01*
X333083Y188904D01*
Y189219D01*
X333046Y189423D01*
X333027Y189590D01*
X332990Y189756D01*
X332953Y189867D01*
X332935Y189978D01*
X332898Y190034D01*
Y190053D01*
X332713Y190349D01*
X332620Y190478D01*
X332528Y190590D01*
X332453Y190682D01*
X332379Y190756D01*
X332342Y190793D01*
X332324Y190812D01*
X332009Y191015D01*
X331694Y191164D01*
X331565Y191219D01*
X331454Y191256D01*
X331380Y191293D01*
X331361D01*
X330898Y191386D01*
X330657Y191423D01*
X330454Y191441D01*
X330269D01*
X330120Y191460D01*
D02*
G37*
G36*
Y144520D02*
X330028D01*
X329991D01*
X329546Y144502D01*
X329343Y144483D01*
X329157Y144446D01*
X329009Y144428D01*
X328898Y144409D01*
X328824Y144391D01*
X328806D01*
X328602Y144335D01*
X328417Y144261D01*
X328250Y144205D01*
X328102Y144131D01*
X327991Y144057D01*
X327898Y144020D01*
X327843Y143983D01*
X327824Y143965D01*
X327528Y143724D01*
X327417Y143594D01*
X327324Y143465D01*
X327250Y143372D01*
X327195Y143280D01*
X327158Y143224D01*
X327139Y143205D01*
X327047Y143020D01*
X326991Y142835D01*
X326936Y142650D01*
X326917Y142465D01*
X326898Y142317D01*
X326880Y142187D01*
Y141872D01*
X326917Y141687D01*
X326936Y141521D01*
X326973Y141372D01*
X327010Y141243D01*
X327047Y141150D01*
X327065Y141095D01*
X327084Y141076D01*
X327269Y140761D01*
X327361Y140632D01*
X327454Y140521D01*
X327547Y140428D01*
X327621Y140354D01*
X327658Y140317D01*
X327676Y140298D01*
X327824Y140187D01*
X327991Y140095D01*
X328287Y139947D01*
X328435Y139891D01*
X328546Y139854D01*
X328620Y139817D01*
X328639D01*
X328861Y139761D01*
X329083Y139706D01*
X329324Y139669D01*
X329528Y139650D01*
X329713Y139632D01*
X329861D01*
X329954D01*
X329991D01*
X330435Y139650D01*
X330639Y139669D01*
X330806Y139706D01*
X330954Y139724D01*
X331083Y139761D01*
X331157Y139780D01*
X331176D01*
X331380Y139836D01*
X331565Y139909D01*
X331731Y139965D01*
X331879Y140039D01*
X331991Y140113D01*
X332083Y140150D01*
X332139Y140187D01*
X332157Y140206D01*
X332435Y140447D01*
X332565Y140576D01*
X332657Y140687D01*
X332731Y140798D01*
X332787Y140891D01*
X332824Y140947D01*
X332842Y140965D01*
X332916Y141150D01*
X332972Y141335D01*
X333027Y141521D01*
X333046Y141687D01*
X333064Y141854D01*
X333083Y141965D01*
Y142280D01*
X333046Y142483D01*
X333027Y142650D01*
X332990Y142817D01*
X332953Y142928D01*
X332935Y143039D01*
X332898Y143094D01*
Y143113D01*
X332713Y143409D01*
X332620Y143539D01*
X332528Y143650D01*
X332453Y143743D01*
X332379Y143817D01*
X332342Y143854D01*
X332324Y143872D01*
X332009Y144076D01*
X331694Y144224D01*
X331565Y144279D01*
X331454Y144317D01*
X331380Y144354D01*
X331361D01*
X330898Y144446D01*
X330657Y144483D01*
X330454Y144502D01*
X330269D01*
X330120Y144520D01*
D02*
G37*
G36*
X329324Y116097D02*
X328935Y116042D01*
X328750Y116023D01*
X328602Y115986D01*
X328472Y115949D01*
X328380Y115912D01*
X328324Y115893D01*
X328306D01*
X327991Y115745D01*
X327843Y115671D01*
X327732Y115597D01*
X327639Y115523D01*
X327565Y115468D01*
X327528Y115449D01*
X327509Y115431D01*
X327287Y115208D01*
X327121Y114986D01*
X327065Y114894D01*
X327028Y114820D01*
X326991Y114782D01*
Y114764D01*
X326880Y114449D01*
X326843Y114301D01*
X326824Y114171D01*
X326806Y114060D01*
Y113690D01*
X326843Y113505D01*
X326861Y113338D01*
X326898Y113209D01*
X326936Y113097D01*
X326973Y113005D01*
X326991Y112949D01*
X327010Y112931D01*
X327176Y112635D01*
X327250Y112523D01*
X327343Y112412D01*
X327417Y112338D01*
X327472Y112283D01*
X327509Y112246D01*
X327528Y112227D01*
X327787Y112042D01*
X328046Y111912D01*
X328158Y111875D01*
X328250Y111838D01*
X328306Y111820D01*
X328324D01*
X328676Y111727D01*
X328843Y111709D01*
X328991Y111690D01*
X329120D01*
X329232D01*
X329306D01*
X329324D01*
Y116097D01*
D02*
G37*
G36*
Y87934D02*
X328935Y87878D01*
X328750Y87859D01*
X328602Y87822D01*
X328472Y87785D01*
X328380Y87748D01*
X328324Y87730D01*
X328306D01*
X327991Y87582D01*
X327843Y87508D01*
X327732Y87434D01*
X327639Y87359D01*
X327565Y87304D01*
X327528Y87285D01*
X327509Y87267D01*
X327287Y87045D01*
X327121Y86823D01*
X327065Y86730D01*
X327028Y86656D01*
X326991Y86619D01*
Y86600D01*
X326880Y86285D01*
X326843Y86137D01*
X326824Y86008D01*
X326806Y85897D01*
Y85526D01*
X326843Y85341D01*
X326861Y85175D01*
X326898Y85045D01*
X326936Y84934D01*
X326973Y84841D01*
X326991Y84786D01*
X327010Y84767D01*
X327176Y84471D01*
X327250Y84360D01*
X327343Y84249D01*
X327417Y84175D01*
X327472Y84119D01*
X327509Y84082D01*
X327528Y84064D01*
X327787Y83878D01*
X328046Y83749D01*
X328158Y83712D01*
X328250Y83675D01*
X328306Y83656D01*
X328324D01*
X328676Y83563D01*
X328843Y83545D01*
X328991Y83526D01*
X329120D01*
X329232D01*
X329306D01*
X329324D01*
Y87934D01*
D02*
G37*
G36*
X170888Y102735D02*
X170416D01*
X170139Y102679D01*
X169889Y102651D01*
X169667Y102596D01*
X169473Y102540D01*
X169334Y102485D01*
X169250Y102457D01*
X169223Y102429D01*
X168751Y102152D01*
X168556Y102013D01*
X168390Y101874D01*
X168251Y101735D01*
X168140Y101624D01*
X168084Y101569D01*
X168057Y101541D01*
X167890Y101319D01*
X167751Y101069D01*
X167529Y100625D01*
X167446Y100403D01*
X167390Y100236D01*
X167335Y100125D01*
Y100097D01*
X167251Y99764D01*
X167168Y99431D01*
X167113Y99070D01*
X167085Y98765D01*
X167057Y98487D01*
Y98265D01*
Y98126D01*
Y98070D01*
X167085Y97404D01*
X167113Y97099D01*
X167168Y96849D01*
X167196Y96627D01*
X167251Y96433D01*
X167279Y96321D01*
Y96294D01*
X167363Y95988D01*
X167474Y95711D01*
X167557Y95461D01*
X167668Y95239D01*
X167779Y95072D01*
X167834Y94933D01*
X167890Y94850D01*
X167918Y94822D01*
X168279Y94406D01*
X168473Y94212D01*
X168640Y94073D01*
X168806Y93962D01*
X168945Y93878D01*
X169028Y93823D01*
X169056Y93795D01*
X169334Y93684D01*
X169611Y93601D01*
X169889Y93518D01*
X170139Y93490D01*
X170389Y93462D01*
X170555Y93434D01*
X171027D01*
X171333Y93490D01*
X171582Y93518D01*
X171832Y93573D01*
X171999Y93629D01*
X172165Y93656D01*
X172249Y93712D01*
X172276D01*
X172721Y93989D01*
X172915Y94128D01*
X173082Y94267D01*
X173220Y94378D01*
X173332Y94489D01*
X173387Y94545D01*
X173415Y94572D01*
X173720Y95044D01*
X173942Y95516D01*
X174025Y95711D01*
X174081Y95877D01*
X174137Y95988D01*
Y96016D01*
X174275Y96710D01*
X174331Y97071D01*
X174359Y97376D01*
Y97654D01*
X174386Y97876D01*
Y98015D01*
Y98070D01*
X174359Y98737D01*
X174331Y99042D01*
X174275Y99320D01*
X174248Y99542D01*
X174220Y99708D01*
X174192Y99820D01*
Y99847D01*
X174109Y100153D01*
X173998Y100430D01*
X173915Y100680D01*
X173803Y100902D01*
X173692Y101069D01*
X173637Y101208D01*
X173581Y101291D01*
X173554Y101319D01*
X173193Y101763D01*
X172998Y101930D01*
X172804Y102068D01*
X172665Y102179D01*
X172526Y102263D01*
X172443Y102318D01*
X172415Y102346D01*
X172138Y102485D01*
X171860Y102568D01*
X171582Y102651D01*
X171305Y102679D01*
X171083Y102707D01*
X170888Y102735D01*
D02*
G37*
G36*
X372111Y144135D02*
X366297Y142284D01*
X372111Y140432D01*
Y144135D01*
D02*
G37*
%LPD*%
D33*
X180000Y390000D02*
X200000Y370000D01*
X160000D02*
X180000Y390000D01*
Y130000D02*
Y390000D01*
X110000Y130000D02*
X180000D01*
M02*
