G04*
G04 #@! TF.GenerationSoftware,Altium Limited,Altium Designer,22.7.1 (60)*
G04*
G04 Layer_Color=8421504*
%FSLAX44Y44*%
%MOMM*%
G71*
G04*
G04 #@! TF.SameCoordinates,B907E7F6-3D8B-4148-802C-DA242210B7AD*
G04*
G04*
G04 #@! TF.FilePolarity,Positive*
G04*
G01*
G75*
%ADD12R,0.9000X1.6000*%
%ADD13R,1.5000X1.6600*%
%ADD14R,1.6600X1.5000*%
%ADD15R,1.6000X0.9000*%
%ADD16R,4.0000X3.2000*%
%ADD17O,2.0000X1.0000*%
%ADD18R,2.5000X1.7000*%
%ADD19R,1.6500X0.6500*%
%ADD20R,1.3000X0.7000*%
D12*
X381500Y387000D02*
D03*
X352500D02*
D03*
X190500Y335000D02*
D03*
X219500D02*
D03*
X190500Y355000D02*
D03*
X219500D02*
D03*
X191000Y375000D02*
D03*
X220000D02*
D03*
X191000Y395000D02*
D03*
X220000D02*
D03*
X252000Y112500D02*
D03*
X281000D02*
D03*
X329500Y111000D02*
D03*
X300500D02*
D03*
X296000Y88750D02*
D03*
X325000D02*
D03*
X250500Y198000D02*
D03*
X279500D02*
D03*
D13*
X335500Y387000D02*
D03*
X304500D02*
D03*
D14*
X80000Y55500D02*
D03*
Y24500D02*
D03*
D15*
X100000Y54500D02*
D03*
Y25500D02*
D03*
X190250Y132000D02*
D03*
Y161000D02*
D03*
X305000Y159500D02*
D03*
Y130500D02*
D03*
X325000Y159500D02*
D03*
Y130500D02*
D03*
X346000Y85500D02*
D03*
Y114500D02*
D03*
X215000Y90500D02*
D03*
Y119500D02*
D03*
X190250Y87000D02*
D03*
Y116000D02*
D03*
X165000Y161000D02*
D03*
Y132000D02*
D03*
X144000Y161000D02*
D03*
Y132000D02*
D03*
D16*
X285000Y352000D02*
D03*
Y268000D02*
D03*
D17*
X332000Y225000D02*
D03*
D18*
X225000D02*
D03*
X265000D02*
D03*
D19*
X216750Y135950D02*
D03*
Y148650D02*
D03*
Y161350D02*
D03*
Y174050D02*
D03*
X273250Y135950D02*
D03*
Y148650D02*
D03*
Y161350D02*
D03*
Y174050D02*
D03*
D20*
X124500Y143000D02*
D03*
Y162000D02*
D03*
X105000Y143000D02*
D03*
Y162000D02*
D03*
M02*
